<?xml version="1.0" encoding="UTF-8" standalone="no"?>
<svg xmlns="http://www.w3.org/2000/svg" xmlns:xlink="http://www.w3.org/1999/xlink" contentStyleType="text/css" height="595px" preserveAspectRatio="none" style="width:993px;height:595px;background:#FFFFFF;" version="1.1" viewBox="0 0 993 595" width="993px" zoomAndPan="magnify"><defs><filter height="300%" id="fwn3jv5fwcq51" width="300%" x="-1" y="-1"><feGaussianBlur result="blurOut" stdDeviation="2.0"/><feColorMatrix in="blurOut" result="blurOut2" type="matrix" values="0 0 0 0 0 0 0 0 0 0 0 0 0 0 0 0 0 0 .4 0"/><feOffset dx="4.0" dy="4.0" in="blurOut2" result="blurOut3"/><feBlend in="SourceGraphic" in2="blurOut3" mode="normal"/></filter></defs><g><!--MD5=[335f4d9be48430461c68bf6d6fdba145]
class App--><g id="elem_App"><rect codeLine="2" fill="#FEFECE" filter="url(#fwn3jv5fwcq51)" height="64.2969" id="App" style="stroke:#A80036;stroke-width:1.0;" width="202" x="356.5" y="39.5"/><ellipse cx="438.25" cy="55.5" fill="#ADD1B2" rx="11" ry="11" style="stroke:#A80036;stroke-width:1.0;"/><path d="M440.5938,51.1719 C439.6563,50.7344 439.0625,50.5938 438.1875,50.5938 C435.5625,50.5938 433.5625,52.6719 433.5625,55.3906 L433.5625,56.5156 C433.5625,59.0938 435.6719,60.9844 438.5625,60.9844 C439.7813,60.9844 440.9375,60.6875 441.6875,60.1406 C442.2656,59.7344 442.5938,59.2813 442.5938,58.8906 C442.5938,58.4375 442.2031,58.0469 441.7344,58.0469 C441.5156,58.0469 441.3125,58.125 441.125,58.3125 C440.6719,58.7969 440.6719,58.7969 440.4844,58.8906 C440.0625,59.1563 439.375,59.2813 438.6094,59.2813 C436.5625,59.2813 435.2656,58.1875 435.2656,56.4844 L435.2656,55.3906 C435.2656,53.6094 436.5156,52.2969 438.25,52.2969 C438.8281,52.2969 439.4375,52.4531 439.9063,52.7031 C440.3906,52.9844 440.5625,53.2031 440.6563,53.6094 C440.7188,54.0156 440.75,54.1406 440.8906,54.2656 C441.0313,54.4063 441.2656,54.5156 441.4844,54.5156 C441.75,54.5156 442.0156,54.375 442.1875,54.1563 C442.2969,54 442.3281,53.8125 442.3281,53.3906 L442.3281,51.9688 C442.3281,51.5313 442.3125,51.4063 442.2188,51.25 C442.0625,50.9844 441.7813,50.8438 441.4844,50.8438 C441.1875,50.8438 440.9844,50.9375 440.7656,51.25 L440.5938,51.1719 Z " fill="#000000"/><text fill="#000000" font-family="sans-serif" font-size="14" lengthAdjust="spacing" textLength="30" x="458.75" y="60.3467">App</text><line style="stroke:#A80036;stroke-width:1.0;" x1="357.5" x2="557.5" y1="71.5" y2="71.5"/><line style="stroke:#A80036;stroke-width:1.0;" x1="357.5" x2="557.5" y1="79.5" y2="79.5"/><ellipse cx="367.5" cy="90.5" fill="#84BE84" rx="3" ry="3" style="stroke:#038048;stroke-width:1.0;"/><text fill="#000000" font-family="sans-serif" font-size="14" lengthAdjust="spacing" textLength="176" x="376.5" y="96.4951">main(String[] args) : void</text></g><!--MD5=[09ce52be0ee7de43c61b6e2d59bf108b]
class Person--><g id="elem_Person"><rect codeLine="5" fill="#FEFECE" filter="url(#fwn3jv5fwcq51)" height="129.4844" id="Person" style="stroke:#A80036;stroke-width:1.0;" width="299" x="594" y="7"/><ellipse cx="714.75" cy="23" fill="#ADD1B2" rx="11" ry="11" style="stroke:#A80036;stroke-width:1.0;"/><path d="M717.0938,18.6719 C716.1563,18.2344 715.5625,18.0938 714.6875,18.0938 C712.0625,18.0938 710.0625,20.1719 710.0625,22.8906 L710.0625,24.0156 C710.0625,26.5938 712.1719,28.4844 715.0625,28.4844 C716.2813,28.4844 717.4375,28.1875 718.1875,27.6406 C718.7656,27.2344 719.0938,26.7813 719.0938,26.3906 C719.0938,25.9375 718.7031,25.5469 718.2344,25.5469 C718.0156,25.5469 717.8125,25.625 717.625,25.8125 C717.1719,26.2969 717.1719,26.2969 716.9844,26.3906 C716.5625,26.6563 715.875,26.7813 715.1094,26.7813 C713.0625,26.7813 711.7656,25.6875 711.7656,23.9844 L711.7656,22.8906 C711.7656,21.1094 713.0156,19.7969 714.75,19.7969 C715.3281,19.7969 715.9375,19.9531 716.4063,20.2031 C716.8906,20.4844 717.0625,20.7031 717.1563,21.1094 C717.2188,21.5156 717.25,21.6406 717.3906,21.7656 C717.5313,21.9063 717.7656,22.0156 717.9844,22.0156 C718.25,22.0156 718.5156,21.875 718.6875,21.6563 C718.7969,21.5 718.8281,21.3125 718.8281,20.8906 L718.8281,19.4688 C718.8281,19.0313 718.8125,18.9063 718.7188,18.75 C718.5625,18.4844 718.2813,18.3438 717.9844,18.3438 C717.6875,18.3438 717.4844,18.4375 717.2656,18.75 L717.0938,18.6719 Z " fill="#000000"/><text fill="#000000" font-family="sans-serif" font-size="14" lengthAdjust="spacing" textLength="49" x="735.25" y="27.8467">Person</text><line style="stroke:#A80036;stroke-width:1.0;" x1="595" x2="892" y1="39" y2="39"/><polygon fill="none" points="605,45,609,49,605,53,601,49" style="stroke:#B38D22;stroke-width:1.0;"/><text fill="#000000" font-family="sans-serif" font-size="14" lengthAdjust="spacing" textLength="131" x="614" y="55.9951">nachname : String</text><line style="stroke:#A80036;stroke-width:1.0;" x1="595" x2="892" y1="63.2969" y2="63.2969"/><polygon fill="#FFFF44" points="605,69.2969,609,73.2969,605,77.2969,601,73.2969" style="stroke:#B38D22;stroke-width:1.0;"/><text fill="#000000" font-family="sans-serif" font-size="14" lengthAdjust="spacing" textLength="181" x="614" y="80.292">Person(String nachname)</text><ellipse cx="605" cy="90.5938" fill="#84BE84" rx="3" ry="3" style="stroke:#038048;stroke-width:1.0;"/><text fill="#000000" font-family="sans-serif" font-size="14" lengthAdjust="spacing" textLength="273" x="614" y="96.5889">setNachname(String nachname) : void</text><ellipse cx="605" cy="106.8906" fill="#84BE84" rx="3" ry="3" style="stroke:#038048;stroke-width:1.0;"/><text fill="#000000" font-family="sans-serif" font-size="14" lengthAdjust="spacing" textLength="167" x="614" y="112.8857">getNachname() : String</text><ellipse cx="605" cy="123.1875" fill="#84BE84" rx="3" ry="3" style="stroke:#038048;stroke-width:1.0;"/><text fill="#000000" font-family="sans-serif" font-size="14" lengthAdjust="spacing" textLength="139" x="614" y="129.1826">vorstellen() : String</text></g><!--MD5=[cf50a5de139d8ee8ab91969acb1dc454]
class Mitarbeiter--><g id="elem_Mitarbeiter"><rect codeLine="12" fill="#FEFECE" filter="url(#fwn3jv5fwcq51)" height="145.7813" id="Mitarbeiter" style="stroke:#A80036;stroke-width:1.0;" width="395" x="302" y="213"/><ellipse cx="454.25" cy="229" fill="#ADD1B2" rx="11" ry="11" style="stroke:#A80036;stroke-width:1.0;"/><path d="M456.5938,224.6719 C455.6563,224.2344 455.0625,224.0938 454.1875,224.0938 C451.5625,224.0938 449.5625,226.1719 449.5625,228.8906 L449.5625,230.0156 C449.5625,232.5938 451.6719,234.4844 454.5625,234.4844 C455.7813,234.4844 456.9375,234.1875 457.6875,233.6406 C458.2656,233.2344 458.5938,232.7813 458.5938,232.3906 C458.5938,231.9375 458.2031,231.5469 457.7344,231.5469 C457.5156,231.5469 457.3125,231.625 457.125,231.8125 C456.6719,232.2969 456.6719,232.2969 456.4844,232.3906 C456.0625,232.6563 455.375,232.7813 454.6094,232.7813 C452.5625,232.7813 451.2656,231.6875 451.2656,229.9844 L451.2656,228.8906 C451.2656,227.1094 452.5156,225.7969 454.25,225.7969 C454.8281,225.7969 455.4375,225.9531 455.9063,226.2031 C456.3906,226.4844 456.5625,226.7031 456.6563,227.1094 C456.7188,227.5156 456.75,227.6406 456.8906,227.7656 C457.0313,227.9063 457.2656,228.0156 457.4844,228.0156 C457.75,228.0156 458.0156,227.875 458.1875,227.6563 C458.2969,227.5 458.3281,227.3125 458.3281,226.8906 L458.3281,225.4688 C458.3281,225.0313 458.3125,224.9063 458.2188,224.75 C458.0625,224.4844 457.7813,224.3438 457.4844,224.3438 C457.1875,224.3438 456.9844,224.4375 456.7656,224.75 L456.5938,224.6719 Z " fill="#000000"/><text fill="#000000" font-family="sans-serif" font-size="14" lengthAdjust="spacing" textLength="82" x="474.75" y="233.8467">Mitarbeiter</text><line style="stroke:#A80036;stroke-width:1.0;" x1="303" x2="696" y1="245" y2="245"/><polygon fill="none" points="313,251,317,255,313,259,309,255" style="stroke:#B38D22;stroke-width:1.0;"/><text fill="#000000" font-family="sans-serif" font-size="14" lengthAdjust="spacing" textLength="156" x="322" y="261.9951">personalNummer : int</text><line style="stroke:#A80036;stroke-width:1.0;" x1="303" x2="696" y1="269.2969" y2="269.2969"/><polygon fill="#FFFF44" points="313,275.2969,317,279.2969,313,283.2969,309,279.2969" style="stroke:#B38D22;stroke-width:1.0;"/><text fill="#000000" font-family="sans-serif" font-size="14" lengthAdjust="spacing" textLength="369" x="322" y="286.292">Mitarbeiter(String nachname, int personalNummer)</text><polygon fill="#FFFF44" points="313,291.5938,317,295.5938,313,299.5938,309,295.5938" style="stroke:#B38D22;stroke-width:1.0;"/><text fill="#000000" font-family="sans-serif" font-size="14" lengthAdjust="spacing" textLength="214" x="322" y="302.5889">Mitarbeiter(String nachname)</text><ellipse cx="313" cy="312.8906" fill="#84BE84" rx="3" ry="3" style="stroke:#038048;stroke-width:1.0;"/><text fill="#000000" font-family="sans-serif" font-size="14" lengthAdjust="spacing" textLength="345" x="322" y="318.8857">setPersonalNummer(int personalNummer) : void</text><ellipse cx="313" cy="329.1875" fill="#84BE84" rx="3" ry="3" style="stroke:#038048;stroke-width:1.0;"/><text fill="#000000" font-family="sans-serif" font-size="14" lengthAdjust="spacing" textLength="190" x="322" y="335.1826">getPersonalNummer() : int</text><ellipse cx="313" cy="345.4844" fill="#84BE84" rx="3" ry="3" style="stroke:#038048;stroke-width:1.0;"/><text fill="#000000" font-family="sans-serif" font-size="14" lengthAdjust="spacing" textLength="139" x="322" y="351.4795">vorstellen() : String</text></g><!--MD5=[b68af693cf60e945a9cb87ea33cffb44]
class Lehrer--><g id="elem_Lehrer"><rect codeLine="20" fill="#FEFECE" filter="url(#fwn3jv5fwcq51)" height="129.4844" id="Lehrer" style="stroke:#A80036;stroke-width:1.0;" width="501" x="7" y="444.5"/><ellipse cx="229.75" cy="460.5" fill="#ADD1B2" rx="11" ry="11" style="stroke:#A80036;stroke-width:1.0;"/><path d="M232.0938,456.1719 C231.1563,455.7344 230.5625,455.5938 229.6875,455.5938 C227.0625,455.5938 225.0625,457.6719 225.0625,460.3906 L225.0625,461.5156 C225.0625,464.0938 227.1719,465.9844 230.0625,465.9844 C231.2813,465.9844 232.4375,465.6875 233.1875,465.1406 C233.7656,464.7344 234.0938,464.2813 234.0938,463.8906 C234.0938,463.4375 233.7031,463.0469 233.2344,463.0469 C233.0156,463.0469 232.8125,463.125 232.625,463.3125 C232.1719,463.7969 232.1719,463.7969 231.9844,463.8906 C231.5625,464.1563 230.875,464.2813 230.1094,464.2813 C228.0625,464.2813 226.7656,463.1875 226.7656,461.4844 L226.7656,460.3906 C226.7656,458.6094 228.0156,457.2969 229.75,457.2969 C230.3281,457.2969 230.9375,457.4531 231.4063,457.7031 C231.8906,457.9844 232.0625,458.2031 232.1563,458.6094 C232.2188,459.0156 232.25,459.1406 232.3906,459.2656 C232.5313,459.4063 232.7656,459.5156 232.9844,459.5156 C233.25,459.5156 233.5156,459.375 233.6875,459.1563 C233.7969,459 233.8281,458.8125 233.8281,458.3906 L233.8281,456.9688 C233.8281,456.5313 233.8125,456.4063 233.7188,456.25 C233.5625,455.9844 233.2813,455.8438 232.9844,455.8438 C232.6875,455.8438 232.4844,455.9375 232.2656,456.25 L232.0938,456.1719 Z " fill="#000000"/><text fill="#000000" font-family="sans-serif" font-size="14" lengthAdjust="spacing" textLength="47" x="250.25" y="465.3467">Lehrer</text><line style="stroke:#A80036;stroke-width:1.0;" x1="8" x2="507" y1="476.5" y2="476.5"/><rect fill="none" height="6" style="stroke:#C82930;stroke-width:1.0;" width="6" x="15" y="484.5"/><text fill="#000000" font-family="sans-serif" font-size="14" lengthAdjust="spacing" textLength="143" x="27" y="493.4951">fachbereich : String</text><line style="stroke:#A80036;stroke-width:1.0;" x1="8" x2="507" y1="500.7969" y2="500.7969"/><ellipse cx="18" cy="511.7969" fill="#84BE84" rx="3" ry="3" style="stroke:#038048;stroke-width:1.0;"/><text fill="#000000" font-family="sans-serif" font-size="14" lengthAdjust="spacing" textLength="475" x="27" y="517.792">Lehrer(String nachname, int personalnummer, String fachbereich)</text><ellipse cx="18" cy="528.0938" fill="#84BE84" rx="3" ry="3" style="stroke:#038048;stroke-width:1.0;"/><text fill="#000000" font-family="sans-serif" font-size="14" lengthAdjust="spacing" textLength="180" x="27" y="534.0889">getFachbereich() : String</text><ellipse cx="18" cy="544.3906" fill="#84BE84" rx="3" ry="3" style="stroke:#038048;stroke-width:1.0;"/><text fill="#000000" font-family="sans-serif" font-size="14" lengthAdjust="spacing" textLength="298" x="27" y="550.3857">setFachbereich(String fachbereich) : void</text><ellipse cx="18" cy="560.6875" fill="#84BE84" rx="3" ry="3" style="stroke:#038048;stroke-width:1.0;"/><text fill="#000000" font-family="sans-serif" font-size="14" lengthAdjust="spacing" textLength="139" x="27" y="566.6826">vorstellen() : String</text></g><!--MD5=[3b163f382fcb0a60af2759cb55ad0fea]
class Angestellte--><g id="elem_Angestellte"><rect codeLine="27" fill="#FEFECE" filter="url(#fwn3jv5fwcq51)" height="145.7813" id="Angestellte" style="stroke:#A80036;stroke-width:1.0;" width="397" x="543" y="436"/><ellipse cx="695.25" cy="452" fill="#ADD1B2" rx="11" ry="11" style="stroke:#A80036;stroke-width:1.0;"/><path d="M697.5938,447.6719 C696.6563,447.2344 696.0625,447.0938 695.1875,447.0938 C692.5625,447.0938 690.5625,449.1719 690.5625,451.8906 L690.5625,453.0156 C690.5625,455.5938 692.6719,457.4844 695.5625,457.4844 C696.7813,457.4844 697.9375,457.1875 698.6875,456.6406 C699.2656,456.2344 699.5938,455.7813 699.5938,455.3906 C699.5938,454.9375 699.2031,454.5469 698.7344,454.5469 C698.5156,454.5469 698.3125,454.625 698.125,454.8125 C697.6719,455.2969 697.6719,455.2969 697.4844,455.3906 C697.0625,455.6563 696.375,455.7813 695.6094,455.7813 C693.5625,455.7813 692.2656,454.6875 692.2656,452.9844 L692.2656,451.8906 C692.2656,450.1094 693.5156,448.7969 695.25,448.7969 C695.8281,448.7969 696.4375,448.9531 696.9063,449.2031 C697.3906,449.4844 697.5625,449.7031 697.6563,450.1094 C697.7188,450.5156 697.75,450.6406 697.8906,450.7656 C698.0313,450.9063 698.2656,451.0156 698.4844,451.0156 C698.75,451.0156 699.0156,450.875 699.1875,450.6563 C699.2969,450.5 699.3281,450.3125 699.3281,449.8906 L699.3281,448.4688 C699.3281,448.0313 699.3125,447.9063 699.2188,447.75 C699.0625,447.4844 698.7813,447.3438 698.4844,447.3438 C698.1875,447.3438 697.9844,447.4375 697.7656,447.75 L697.5938,447.6719 Z " fill="#000000"/><text fill="#000000" font-family="sans-serif" font-size="14" lengthAdjust="spacing" textLength="84" x="715.75" y="456.8467">Angestellte</text><line style="stroke:#A80036;stroke-width:1.0;" x1="544" x2="939" y1="468" y2="468"/><rect fill="none" height="6" style="stroke:#C82930;stroke-width:1.0;" width="6" x="551" y="476"/><text fill="#000000" font-family="sans-serif" font-size="14" lengthAdjust="spacing" textLength="157" x="563" y="484.9951">schulleitung : boolean</text><line style="stroke:#A80036;stroke-width:1.0;" x1="544" x2="939" y1="492.2969" y2="492.2969"/><ellipse cx="554" cy="503.2969" fill="#84BE84" rx="3" ry="3" style="stroke:#038048;stroke-width:1.0;"/><text fill="#000000" font-family="sans-serif" font-size="14" lengthAdjust="spacing" textLength="216" x="563" y="509.292">Angestellte(String nachname)</text><ellipse cx="554" cy="519.5938" fill="#84BE84" rx="3" ry="3" style="stroke:#038048;stroke-width:1.0;"/><text fill="#000000" font-family="sans-serif" font-size="14" lengthAdjust="spacing" textLength="371" x="563" y="525.5889">Angestellte(String nachname, int personalNummer)</text><ellipse cx="554" cy="535.8906" fill="#84BE84" rx="3" ry="3" style="stroke:#038048;stroke-width:1.0;"/><text fill="#000000" font-family="sans-serif" font-size="14" lengthAdjust="spacing" textLength="312" x="563" y="541.8857">setSchulleitung(boolean schulleitung) : void</text><ellipse cx="554" cy="552.1875" fill="#84BE84" rx="3" ry="3" style="stroke:#038048;stroke-width:1.0;"/><text fill="#000000" font-family="sans-serif" font-size="14" lengthAdjust="spacing" textLength="180" x="563" y="558.1826">isSchulleitung() : boolean</text><ellipse cx="554" cy="568.4844" fill="#84BE84" rx="3" ry="3" style="stroke:#038048;stroke-width:1.0;"/><text fill="#000000" font-family="sans-serif" font-size="14" lengthAdjust="spacing" textLength="139" x="563" y="574.4795">vorstellen() : String</text></g><!--MD5=[e0c77432632b1b568746454dd033b200]
class Lernende--><g id="elem_Lernende"><rect codeLine="35" fill="#FEFECE" filter="url(#fwn3jv5fwcq51)" height="129.4844" id="Lernende" style="stroke:#A80036;stroke-width:1.0;" width="247" x="732" y="221.5"/><ellipse cx="817.25" cy="237.5" fill="#ADD1B2" rx="11" ry="11" style="stroke:#A80036;stroke-width:1.0;"/><path d="M819.5938,233.1719 C818.6563,232.7344 818.0625,232.5938 817.1875,232.5938 C814.5625,232.5938 812.5625,234.6719 812.5625,237.3906 L812.5625,238.5156 C812.5625,241.0938 814.6719,242.9844 817.5625,242.9844 C818.7813,242.9844 819.9375,242.6875 820.6875,242.1406 C821.2656,241.7344 821.5938,241.2813 821.5938,240.8906 C821.5938,240.4375 821.2031,240.0469 820.7344,240.0469 C820.5156,240.0469 820.3125,240.125 820.125,240.3125 C819.6719,240.7969 819.6719,240.7969 819.4844,240.8906 C819.0625,241.1563 818.375,241.2813 817.6094,241.2813 C815.5625,241.2813 814.2656,240.1875 814.2656,238.4844 L814.2656,237.3906 C814.2656,235.6094 815.5156,234.2969 817.25,234.2969 C817.8281,234.2969 818.4375,234.4531 818.9063,234.7031 C819.3906,234.9844 819.5625,235.2031 819.6563,235.6094 C819.7188,236.0156 819.75,236.1406 819.8906,236.2656 C820.0313,236.4063 820.2656,236.5156 820.4844,236.5156 C820.75,236.5156 821.0156,236.375 821.1875,236.1563 C821.2969,236 821.3281,235.8125 821.3281,235.3906 L821.3281,233.9688 C821.3281,233.5313 821.3125,233.4063 821.2188,233.25 C821.0625,232.9844 820.7813,232.8438 820.4844,232.8438 C820.1875,232.8438 819.9844,232.9375 819.7656,233.25 L819.5938,233.1719 Z " fill="#000000"/><text fill="#000000" font-family="sans-serif" font-size="14" lengthAdjust="spacing" textLength="68" x="837.75" y="242.3467">Lernende</text><line style="stroke:#A80036;stroke-width:1.0;" x1="733" x2="978" y1="253.5" y2="253.5"/><rect fill="none" height="6" style="stroke:#C82930;stroke-width:1.0;" width="6" x="740" y="261.5"/><text fill="#000000" font-family="sans-serif" font-size="14" lengthAdjust="spacing" textLength="93" x="752" y="270.4951">nummer : int</text><line style="stroke:#A80036;stroke-width:1.0;" x1="733" x2="978" y1="277.7969" y2="277.7969"/><ellipse cx="743" cy="288.7969" fill="#84BE84" rx="3" ry="3" style="stroke:#038048;stroke-width:1.0;"/><text fill="#000000" font-family="sans-serif" font-size="14" lengthAdjust="spacing" textLength="200" x="752" y="294.792">Lernende(String nachname)</text><ellipse cx="743" cy="305.0938" fill="#84BE84" rx="3" ry="3" style="stroke:#038048;stroke-width:1.0;"/><text fill="#000000" font-family="sans-serif" font-size="14" lengthAdjust="spacing" textLength="221" x="752" y="311.0889">setNummer(int nummer) : void</text><ellipse cx="743" cy="321.3906" fill="#84BE84" rx="3" ry="3" style="stroke:#038048;stroke-width:1.0;"/><text fill="#000000" font-family="sans-serif" font-size="14" lengthAdjust="spacing" textLength="129" x="752" y="327.3857">getNummer() : int</text><ellipse cx="743" cy="337.6875" fill="#84BE84" rx="3" ry="3" style="stroke:#038048;stroke-width:1.0;"/><text fill="#000000" font-family="sans-serif" font-size="14" lengthAdjust="spacing" textLength="139" x="752" y="343.6826">vorstellen() : String</text></g><!--MD5=[b55e1fc4f5ed1150be76a7fd4391a706]
reverse link Person to Mitarbeiter--><g id="link_Person_Mitarbeiter"><path codeLine="43" d="M655.039,149.541 C631.363,170.16 605.861,192.37 582.493,212.721 " fill="none" id="Person-backto-Mitarbeiter" style="stroke:#A80036;stroke-width:1.0;"/><polygon fill="none" points="650.613,144.113,670.292,136.257,659.807,154.671,650.613,144.113" style="stroke:#A80036;stroke-width:1.0;"/><text fill="#000000" font-family="sans-serif" font-size="13" lengthAdjust="spacing" textLength="52" x="636.5" y="179.0669">extends</text></g><!--MD5=[9c834ccf53bee16c2f5ff79eb16bfce4]
reverse link Person to Lernende--><g id="link_Person_Lernende"><path codeLine="44" d="M786.512,154.108 C798.249,176.377 810.792,200.175 821.92,221.288 " fill="none" id="Person-backto-Lernende" style="stroke:#A80036;stroke-width:1.0;"/><polygon fill="none" points="780.236,157.214,777.104,136.257,792.622,150.686,780.236,157.214" style="stroke:#A80036;stroke-width:1.0;"/><text fill="#000000" font-family="sans-serif" font-size="13" lengthAdjust="spacing" textLength="52" x="800.5" y="179.0669">extends</text></g><!--MD5=[5f8c01e2d598d3d40cae6158d4529506]
reverse link Mitarbeiter to Lehrer--><g id="link_Mitarbeiter_Lehrer"><path codeLine="45" d="M405.515,372.83 C379.491,396.595 351.71,421.965 327.328,444.232 " fill="none" id="Mitarbeiter-backto-Lehrer" style="stroke:#A80036;stroke-width:1.0;"/><polygon fill="none" points="401.106,367.376,420.595,359.058,410.547,377.714,401.106,367.376" style="stroke:#A80036;stroke-width:1.0;"/><text fill="#000000" font-family="sans-serif" font-size="13" lengthAdjust="spacing" textLength="52" x="387.5" y="402.0669">extends</text></g><!--MD5=[cb25b1e4020e44f278560a480684987c]
reverse link Mitarbeiter to Angestellte--><g id="link_Mitarbeiter_Angestellte"><path codeLine="46" d="M593.174,372.545 C616.005,393.395 640.205,415.495 662.288,435.662 " fill="none" id="Mitarbeiter-backto-Angestellte" style="stroke:#A80036;stroke-width:1.0;"/><polygon fill="none" points="588.453,377.714,578.405,359.058,597.894,367.376,588.453,377.714" style="stroke:#A80036;stroke-width:1.0;"/><text fill="#000000" font-family="sans-serif" font-size="13" lengthAdjust="spacing" textLength="52" x="628.5" y="402.0669">extends</text></g><!--MD5=[ca0095db438bdb7d090f1572f7c7f52a]
@startuml
skin rose
class App {
    + main(String[] args) : void
}
class Person {
    # nachname : String
    # Person(String nachname)
    + setNachname(String nachname) : void
    + getNachname() : String
    + vorstellen() : String
}
class Mitarbeiter {
    # personalNummer : int
    # Mitarbeiter(String nachname, int personalNummer)
    # Mitarbeiter(String nachname)
    + setPersonalNummer(int personalNummer) : void
    + getPersonalNummer() : int
    + vorstellen() : String
}
class Lehrer {
    - fachbereich : String
    + Lehrer(String nachname, int personalnummer, String fachbereich)
    + getFachbereich() : String 
    + setFachbereich(String fachbereich) : void
    + vorstellen() : String
}
class Angestellte {
    - schulleitung : boolean
    + Angestellte(String nachname)
    + Angestellte(String nachname, int personalNummer)
    + setSchulleitung(boolean schulleitung) : void
    + isSchulleitung() : boolean
    + vorstellen() : String
}
class Lernende {
    - nummer : int 
    + Lernende(String nachname)
    + setNummer(int nummer) : void
    + getNummer() : int
    + vorstellen() : String
}

Person <|- - Mitarbeiter : "extends"
Person <|- - Lernende : "extends"
Mitarbeiter <|- - Lehrer : "extends"
Mitarbeiter <|- - Angestellte : "extends"
@enduml

PlantUML version 1.2022.2(Sat Mar 05 16:30:19 UTC 2022)
(GPL source distribution)
Java Runtime: Java(TM) SE Runtime Environment
JVM: Java HotSpot(TM) 64-Bit Server VM
Default Encoding: UTF-8
Language: en
Country: US
--></g></svg>