<?xml version="1.0" encoding="UTF-8" standalone="no"?>
<svg xmlns="http://www.w3.org/2000/svg" xmlns:xlink="http://www.w3.org/1999/xlink" contentScriptType="application/ecmascript" contentStyleType="text/css" height="587px" preserveAspectRatio="none" style="width:817px;height:587px;background:#FFFFFF;" version="1.1" viewBox="0 0 817 587" width="817px" zoomAndPan="magnify"><defs><filter height="300%" id="f1vgba6xthc6x7" width="300%" x="-1" y="-1"><feGaussianBlur result="blurOut" stdDeviation="2.0"/><feColorMatrix in="blurOut" result="blurOut2" type="matrix" values="0 0 0 0 0 0 0 0 0 0 0 0 0 0 0 0 0 0 .4 0"/><feOffset dx="4.0" dy="4.0" in="blurOut2" result="blurOut3"/><feBlend in="SourceGraphic" in2="blurOut3" mode="normal"/></filter></defs><g><!--MD5=[335f4d9be48430461c68bf6d6fdba145]
class App--><rect codeLine="1" fill="#FEFECE" filter="url(#f1vgba6xthc6x7)" height="60.8047" id="App" style="stroke:#A80036;stroke-width:1.5;" width="169" x="278.5" y="51.5"/><ellipse cx="346.75" cy="67.5" fill="#ADD1B2" rx="11" ry="11" style="stroke:#A80036;stroke-width:1.0;"/><path d="M349.7188,73.1406 Q349.1406,73.4375 348.5,73.5781 Q347.8594,73.7344 347.1563,73.7344 Q344.6563,73.7344 343.3281,72.0938 Q342.0156,70.4375 342.0156,67.3125 Q342.0156,64.1875 343.3281,62.5313 Q344.6563,60.875 347.1563,60.875 Q347.8594,60.875 348.5,61.0313 Q349.1563,61.1875 349.7188,61.4844 L349.7188,64.2031 Q349.0938,63.625 348.5,63.3594 Q347.9063,63.0781 347.2813,63.0781 Q345.9375,63.0781 345.25,64.1563 Q344.5625,65.2188 344.5625,67.3125 Q344.5625,69.4063 345.25,70.4844 Q345.9375,71.5469 347.2813,71.5469 Q347.9063,71.5469 348.5,71.2813 Q349.0938,71 349.7188,70.4219 L349.7188,73.1406 Z " fill="#000000"/><text fill="#000000" font-family="sans-serif" font-size="12" lengthAdjust="spacing" textLength="24" x="367.25" y="71.6543">App</text><line style="stroke:#A80036;stroke-width:1.5;" x1="279.5" x2="446.5" y1="83.5" y2="83.5"/><line style="stroke:#A80036;stroke-width:1.5;" x1="279.5" x2="446.5" y1="91.5" y2="91.5"/><ellipse cx="289.5" cy="102.5" fill="#84BE84" rx="3" ry="3" style="stroke:#038048;stroke-width:1.0;"/><text fill="#000000" font-family="sans-serif" font-size="11" lengthAdjust="spacing" textLength="143" x="298.5" y="105.7104">main(String[] args) : void</text><!--MD5=[09ce52be0ee7de43c61b6e2d59bf108b]
class Person--><rect codeLine="4" fill="#FEFECE" filter="url(#f1vgba6xthc6x7)" height="150.4375" id="Person" style="stroke:#A80036;stroke-width:1.5;" width="244" x="483" y="7"/><ellipse cx="578.75" cy="23" fill="#ADD1B2" rx="11" ry="11" style="stroke:#A80036;stroke-width:1.0;"/><path d="M581.7188,28.6406 Q581.1406,28.9375 580.5,29.0781 Q579.8594,29.2344 579.1563,29.2344 Q576.6563,29.2344 575.3281,27.5938 Q574.0156,25.9375 574.0156,22.8125 Q574.0156,19.6875 575.3281,18.0313 Q576.6563,16.375 579.1563,16.375 Q579.8594,16.375 580.5,16.5313 Q581.1563,16.6875 581.7188,16.9844 L581.7188,19.7031 Q581.0938,19.125 580.5,18.8594 Q579.9063,18.5781 579.2813,18.5781 Q577.9375,18.5781 577.25,19.6563 Q576.5625,20.7188 576.5625,22.8125 Q576.5625,24.9063 577.25,25.9844 Q577.9375,27.0469 579.2813,27.0469 Q579.9063,27.0469 580.5,26.7813 Q581.0938,26.5 581.7188,25.9219 L581.7188,28.6406 Z " fill="#000000"/><text fill="#000000" font-family="sans-serif" font-size="12" lengthAdjust="spacing" textLength="44" x="599.25" y="27.1543">Person</text><line style="stroke:#A80036;stroke-width:1.5;" x1="484" x2="726" y1="39" y2="39"/><polygon fill="none" points="494,45,498,49,494,53,490,49" style="stroke:#B38D22;stroke-width:1.0;"/><text fill="#000000" font-family="sans-serif" font-size="11" lengthAdjust="spacing" textLength="105" x="503" y="53.2104">nachname : String</text><rect fill="none" height="6" style="stroke:#C82930;stroke-width:1.0;" width="6" x="491" y="59.8047"/><text fill="#000000" font-family="sans-serif" font-size="11" lengthAdjust="spacing" textLength="115" x="503" y="66.0151">ehepartner : Person</text><line style="stroke:#A80036;stroke-width:1.5;" x1="484" x2="726" y1="72.6094" y2="72.6094"/><polygon fill="#FFFF44" points="494,78.6094,498,82.6094,494,86.6094,490,82.6094" style="stroke:#B38D22;stroke-width:1.0;"/><text fill="#000000" font-family="sans-serif" font-size="11" lengthAdjust="spacing" textLength="145" x="503" y="86.8198">Person(String nachname)</text><ellipse cx="494" cy="96.4141" fill="#84BE84" rx="3" ry="3" style="stroke:#038048;stroke-width:1.0;"/><text fill="#000000" font-family="sans-serif" font-size="11" lengthAdjust="spacing" textLength="218" x="503" y="99.6245">setNachname(String nachname) : void</text><ellipse cx="494" cy="109.2188" fill="#84BE84" rx="3" ry="3" style="stroke:#038048;stroke-width:1.0;"/><text fill="#000000" font-family="sans-serif" font-size="11" lengthAdjust="spacing" textLength="132" x="503" y="112.4292">getNachname() : String</text><ellipse cx="494" cy="122.0234" fill="#84BE84" rx="3" ry="3" style="stroke:#038048;stroke-width:1.0;"/><text fill="#000000" font-family="sans-serif" font-size="11" lengthAdjust="spacing" textLength="110" x="503" y="125.2339">vorstellen() : String</text><polygon fill="#FFFF44" points="494,129.8281,498,133.8281,494,137.8281,490,133.8281" style="stroke:#B38D22;stroke-width:1.0;"/><text fill="#000000" font-family="sans-serif" font-size="11" lengthAdjust="spacing" textLength="197" x="503" y="138.0386">heiraten(Person ehepartner) : void</text><polygon fill="#FFFF44" points="494,142.6328,498,146.6328,494,150.6328,490,146.6328" style="stroke:#B38D22;stroke-width:1.0;"/><text fill="#000000" font-family="sans-serif" font-size="11" lengthAdjust="spacing" textLength="94" x="503" y="150.8433">scheiden() : void</text><!--MD5=[cf50a5de139d8ee8ab91969acb1dc454]
class Mitarbeiter--><rect codeLine="14" fill="#FEFECE" filter="url(#f1vgba6xthc6x7)" height="124.8281" id="Mitarbeiter" style="stroke:#A80036;stroke-width:1.5;" width="317" x="248.5" y="234"/><ellipse cx="368.75" cy="250" fill="#ADD1B2" rx="11" ry="11" style="stroke:#A80036;stroke-width:1.0;"/><path d="M371.7188,255.6406 Q371.1406,255.9375 370.5,256.0781 Q369.8594,256.2344 369.1563,256.2344 Q366.6563,256.2344 365.3281,254.5938 Q364.0156,252.9375 364.0156,249.8125 Q364.0156,246.6875 365.3281,245.0313 Q366.6563,243.375 369.1563,243.375 Q369.8594,243.375 370.5,243.5313 Q371.1563,243.6875 371.7188,243.9844 L371.7188,246.7031 Q371.0938,246.125 370.5,245.8594 Q369.9063,245.5781 369.2813,245.5781 Q367.9375,245.5781 367.25,246.6563 Q366.5625,247.7188 366.5625,249.8125 Q366.5625,251.9063 367.25,252.9844 Q367.9375,254.0469 369.2813,254.0469 Q369.9063,254.0469 370.5,253.7813 Q371.0938,253.5 371.7188,252.9219 L371.7188,255.6406 Z " fill="#000000"/><text fill="#000000" font-family="sans-serif" font-size="12" lengthAdjust="spacing" textLength="68" x="389.25" y="254.1543">Mitarbeiter</text><line style="stroke:#A80036;stroke-width:1.5;" x1="249.5" x2="564.5" y1="266" y2="266"/><polygon fill="none" points="259.5,272,263.5,276,259.5,280,255.5,276" style="stroke:#B38D22;stroke-width:1.0;"/><text fill="#000000" font-family="sans-serif" font-size="11" lengthAdjust="spacing" textLength="125" x="268.5" y="280.2104">personalNummer : int</text><line style="stroke:#A80036;stroke-width:1.5;" x1="249.5" x2="564.5" y1="286.8047" y2="286.8047"/><polygon fill="#FFFF44" points="259.5,292.8047,263.5,296.8047,259.5,300.8047,255.5,296.8047" style="stroke:#B38D22;stroke-width:1.0;"/><text fill="#000000" font-family="sans-serif" font-size="11" lengthAdjust="spacing" textLength="291" x="268.5" y="301.0151">Mitarbeiter(String nachname, int personalNummer)</text><polygon fill="#FFFF44" points="259.5,305.6094,263.5,309.6094,259.5,313.6094,255.5,309.6094" style="stroke:#B38D22;stroke-width:1.0;"/><text fill="#000000" font-family="sans-serif" font-size="11" lengthAdjust="spacing" textLength="166" x="268.5" y="313.8198">Mitarbeiter(String nachname)</text><ellipse cx="259.5" cy="323.4141" fill="#84BE84" rx="3" ry="3" style="stroke:#038048;stroke-width:1.0;"/><text fill="#000000" font-family="sans-serif" font-size="11" lengthAdjust="spacing" textLength="277" x="268.5" y="326.6245">setPersonalNummer(int personalNummer) : void</text><ellipse cx="259.5" cy="336.2188" fill="#84BE84" rx="3" ry="3" style="stroke:#038048;stroke-width:1.0;"/><text fill="#000000" font-family="sans-serif" font-size="11" lengthAdjust="spacing" textLength="151" x="268.5" y="339.4292">getPersonalNummer() : int</text><ellipse cx="259.5" cy="349.0234" fill="#84BE84" rx="3" ry="3" style="stroke:#038048;stroke-width:1.0;"/><text fill="#000000" font-family="sans-serif" font-size="11" lengthAdjust="spacing" textLength="110" x="268.5" y="352.2339">vorstellen() : String</text><!--MD5=[b68af693cf60e945a9cb87ea33cffb44]
class Lehrer--><rect codeLine="22" fill="#FEFECE" filter="url(#f1vgba6xthc6x7)" height="137.6328" id="Lehrer" style="stroke:#A80036;stroke-width:1.5;" width="404" x="7" y="436"/><ellipse cx="184.75" cy="452" fill="#ADD1B2" rx="11" ry="11" style="stroke:#A80036;stroke-width:1.0;"/><path d="M187.7188,457.6406 Q187.1406,457.9375 186.5,458.0781 Q185.8594,458.2344 185.1563,458.2344 Q182.6563,458.2344 181.3281,456.5938 Q180.0156,454.9375 180.0156,451.8125 Q180.0156,448.6875 181.3281,447.0313 Q182.6563,445.375 185.1563,445.375 Q185.8594,445.375 186.5,445.5313 Q187.1563,445.6875 187.7188,445.9844 L187.7188,448.7031 Q187.0938,448.125 186.5,447.8594 Q185.9063,447.5781 185.2813,447.5781 Q183.9375,447.5781 183.25,448.6563 Q182.5625,449.7188 182.5625,451.8125 Q182.5625,453.9063 183.25,454.9844 Q183.9375,456.0469 185.2813,456.0469 Q185.9063,456.0469 186.5,455.7813 Q187.0938,455.5 187.7188,454.9219 L187.7188,457.6406 Z " fill="#000000"/><text fill="#000000" font-family="sans-serif" font-size="12" lengthAdjust="spacing" textLength="40" x="205.25" y="456.1543">Lehrer</text><line style="stroke:#A80036;stroke-width:1.5;" x1="8" x2="410" y1="468" y2="468"/><rect fill="none" height="6" style="stroke:#C82930;stroke-width:1.0;" width="6" x="15" y="476"/><text fill="#000000" font-family="sans-serif" font-size="11" lengthAdjust="spacing" textLength="112" x="27" y="482.2104">fachbereich : String</text><line style="stroke:#A80036;stroke-width:1.5;" x1="8" x2="410" y1="488.8047" y2="488.8047"/><ellipse cx="18" cy="499.8047" fill="#84BE84" rx="3" ry="3" style="stroke:#038048;stroke-width:1.0;"/><text fill="#000000" font-family="sans-serif" font-size="11" lengthAdjust="spacing" textLength="254" x="27" y="503.0151">Lehrer(String nachname, String fachbereich)</text><ellipse cx="18" cy="512.6094" fill="#84BE84" rx="3" ry="3" style="stroke:#038048;stroke-width:1.0;"/><text fill="#000000" font-family="sans-serif" font-size="11" lengthAdjust="spacing" textLength="266" x="27" y="515.8198">Lehrer(String nachname, int personalnummer)</text><ellipse cx="18" cy="525.4141" fill="#84BE84" rx="3" ry="3" style="stroke:#038048;stroke-width:1.0;"/><text fill="#000000" font-family="sans-serif" font-size="11" lengthAdjust="spacing" textLength="378" x="27" y="528.6245">Lehrer(String nachname, int personalnummer, String fachbereich)</text><ellipse cx="18" cy="538.2188" fill="#84BE84" rx="3" ry="3" style="stroke:#038048;stroke-width:1.0;"/><text fill="#000000" font-family="sans-serif" font-size="11" lengthAdjust="spacing" textLength="140" x="27" y="541.4292">getFachbereich() : String</text><ellipse cx="18" cy="551.0234" fill="#84BE84" rx="3" ry="3" style="stroke:#038048;stroke-width:1.0;"/><text fill="#000000" font-family="sans-serif" font-size="11" lengthAdjust="spacing" textLength="233" x="27" y="554.2339">setFachbereich(String fachbereich) : void</text><ellipse cx="18" cy="563.8281" fill="#84BE84" rx="3" ry="3" style="stroke:#038048;stroke-width:1.0;"/><text fill="#000000" font-family="sans-serif" font-size="11" lengthAdjust="spacing" textLength="110" x="27" y="567.0386">vorstellen() : String</text><!--MD5=[3b163f382fcb0a60af2759cb55ad0fea]
class Angestellte--><rect codeLine="31" fill="#FEFECE" filter="url(#f1vgba6xthc6x7)" height="124.8281" id="Angestellte" style="stroke:#A80036;stroke-width:1.5;" width="319" x="446.5" y="442.5"/><ellipse cx="566.25" cy="458.5" fill="#ADD1B2" rx="11" ry="11" style="stroke:#A80036;stroke-width:1.0;"/><path d="M569.2188,464.1406 Q568.6406,464.4375 568,464.5781 Q567.3594,464.7344 566.6563,464.7344 Q564.1563,464.7344 562.8281,463.0938 Q561.5156,461.4375 561.5156,458.3125 Q561.5156,455.1875 562.8281,453.5313 Q564.1563,451.875 566.6563,451.875 Q567.3594,451.875 568,452.0313 Q568.6563,452.1875 569.2188,452.4844 L569.2188,455.2031 Q568.5938,454.625 568,454.3594 Q567.4063,454.0781 566.7813,454.0781 Q565.4375,454.0781 564.75,455.1563 Q564.0625,456.2188 564.0625,458.3125 Q564.0625,460.4063 564.75,461.4844 Q565.4375,462.5469 566.7813,462.5469 Q567.4063,462.5469 568,462.2813 Q568.5938,462 569.2188,461.4219 L569.2188,464.1406 Z " fill="#000000"/><text fill="#000000" font-family="sans-serif" font-size="12" lengthAdjust="spacing" textLength="71" x="586.75" y="462.6543">Angestellte</text><line style="stroke:#A80036;stroke-width:1.5;" x1="447.5" x2="764.5" y1="474.5" y2="474.5"/><rect fill="none" height="6" style="stroke:#C82930;stroke-width:1.0;" width="6" x="454.5" y="482.5"/><text fill="#000000" font-family="sans-serif" font-size="11" lengthAdjust="spacing" textLength="125" x="466.5" y="488.7104">schulleitung : boolean</text><line style="stroke:#A80036;stroke-width:1.5;" x1="447.5" x2="764.5" y1="495.3047" y2="495.3047"/><ellipse cx="457.5" cy="506.3047" fill="#84BE84" rx="3" ry="3" style="stroke:#038048;stroke-width:1.0;"/><text fill="#000000" font-family="sans-serif" font-size="11" lengthAdjust="spacing" textLength="168" x="466.5" y="509.5151">Angestellte(String nachname)</text><ellipse cx="457.5" cy="519.1094" fill="#84BE84" rx="3" ry="3" style="stroke:#038048;stroke-width:1.0;"/><text fill="#000000" font-family="sans-serif" font-size="11" lengthAdjust="spacing" textLength="293" x="466.5" y="522.3198">Angestellte(String nachname, int personalNummer)</text><ellipse cx="457.5" cy="531.9141" fill="#84BE84" rx="3" ry="3" style="stroke:#038048;stroke-width:1.0;"/><text fill="#000000" font-family="sans-serif" font-size="11" lengthAdjust="spacing" textLength="247" x="466.5" y="535.1245">setSchulleitung(boolean schulleitung) : void</text><ellipse cx="457.5" cy="544.7188" fill="#84BE84" rx="3" ry="3" style="stroke:#038048;stroke-width:1.0;"/><text fill="#000000" font-family="sans-serif" font-size="11" lengthAdjust="spacing" textLength="144" x="466.5" y="547.9292">isSchulleitung() : boolean</text><ellipse cx="457.5" cy="557.5234" fill="#84BE84" rx="3" ry="3" style="stroke:#038048;stroke-width:1.0;"/><text fill="#000000" font-family="sans-serif" font-size="11" lengthAdjust="spacing" textLength="110" x="466.5" y="560.7339">vorstellen() : String</text><!--MD5=[e0c77432632b1b568746454dd033b200]
class Lernende--><rect codeLine="39" fill="#FEFECE" filter="url(#f1vgba6xthc6x7)" height="112.0234" id="Lernende" style="stroke:#A80036;stroke-width:1.5;" width="202" x="601" y="240.5"/><ellipse cx="668.25" cy="256.5" fill="#ADD1B2" rx="11" ry="11" style="stroke:#A80036;stroke-width:1.0;"/><path d="M671.2188,262.1406 Q670.6406,262.4375 670,262.5781 Q669.3594,262.7344 668.6563,262.7344 Q666.1563,262.7344 664.8281,261.0938 Q663.5156,259.4375 663.5156,256.3125 Q663.5156,253.1875 664.8281,251.5313 Q666.1563,249.875 668.6563,249.875 Q669.3594,249.875 670,250.0313 Q670.6563,250.1875 671.2188,250.4844 L671.2188,253.2031 Q670.5938,252.625 670,252.3594 Q669.4063,252.0781 668.7813,252.0781 Q667.4375,252.0781 666.75,253.1563 Q666.0625,254.2188 666.0625,256.3125 Q666.0625,258.4063 666.75,259.4844 Q667.4375,260.5469 668.7813,260.5469 Q669.4063,260.5469 670,260.2813 Q670.5938,260 671.2188,259.4219 L671.2188,262.1406 Z " fill="#000000"/><text fill="#000000" font-family="sans-serif" font-size="12" lengthAdjust="spacing" textLength="59" x="688.75" y="260.6543">Lernende</text><line style="stroke:#A80036;stroke-width:1.5;" x1="602" x2="802" y1="272.5" y2="272.5"/><rect fill="none" height="6" style="stroke:#C82930;stroke-width:1.0;" width="6" x="609" y="280.5"/><text fill="#000000" font-family="sans-serif" font-size="11" lengthAdjust="spacing" textLength="74" x="621" y="286.7104">nummer : int</text><line style="stroke:#A80036;stroke-width:1.5;" x1="602" x2="802" y1="293.3047" y2="293.3047"/><ellipse cx="612" cy="304.3047" fill="#84BE84" rx="3" ry="3" style="stroke:#038048;stroke-width:1.0;"/><text fill="#000000" font-family="sans-serif" font-size="11" lengthAdjust="spacing" textLength="158" x="621" y="307.5151">Lernende(String nachname)</text><ellipse cx="612" cy="317.1094" fill="#84BE84" rx="3" ry="3" style="stroke:#038048;stroke-width:1.0;"/><text fill="#000000" font-family="sans-serif" font-size="11" lengthAdjust="spacing" textLength="176" x="621" y="320.3198">setNummer(int nummer) : void</text><ellipse cx="612" cy="329.9141" fill="#84BE84" rx="3" ry="3" style="stroke:#038048;stroke-width:1.0;"/><text fill="#000000" font-family="sans-serif" font-size="11" lengthAdjust="spacing" textLength="101" x="621" y="333.1245">getNummer() : int</text><ellipse cx="612" cy="342.7188" fill="#84BE84" rx="3" ry="3" style="stroke:#038048;stroke-width:1.0;"/><text fill="#000000" font-family="sans-serif" font-size="11" lengthAdjust="spacing" textLength="110" x="621" y="345.9292">vorstellen() : String</text><!--MD5=[b55e1fc4f5ed1150be76a7fd4391a706]
reverse link Person to Mitarbeiter--><path codeLine="47" d="M522.12,171.95 C502.76,192.73 482.55,214.41 464.57,233.71 " fill="none" id="Person-backto-Mitarbeiter" style="stroke:#A80036;stroke-width:1.0;"/><polygon fill="none" points="517.27,166.88,536.03,157.02,527.51,176.43,517.27,166.88" style="stroke:#A80036;stroke-width:1.0;"/><text fill="#000000" font-family="sans-serif" font-size="13" lengthAdjust="spacing" textLength="51" x="507" y="200.0669">extends</text><!--MD5=[9c834ccf53bee16c2f5ff79eb16bfce4]
reverse link Person to Lernende--><path codeLine="48" d="M647.17,175.39 C657.31,197.59 667.82,220.61 676.89,240.49 " fill="none" id="Person-backto-Lernende" style="stroke:#A80036;stroke-width:1.0;"/><polygon fill="none" points="640.73,178.12,638.79,157.02,653.46,172.31,640.73,178.12" style="stroke:#A80036;stroke-width:1.0;"/><text fill="#000000" font-family="sans-serif" font-size="13" lengthAdjust="spacing" textLength="51" x="661" y="200.0669">extends</text><!--MD5=[5f8c01e2d598d3d40cae6158d4529506]
reverse link Mitarbeiter to Lehrer--><path codeLine="49" d="M333.96,373.68 C314.44,394.03 293.48,415.89 274.41,435.78 " fill="none" id="Mitarbeiter-backto-Lehrer" style="stroke:#A80036;stroke-width:1.0;"/><polygon fill="none" points="328.97,368.77,347.86,359.18,339.07,378.46,328.97,368.77" style="stroke:#A80036;stroke-width:1.0;"/><text fill="#000000" font-family="sans-serif" font-size="13" lengthAdjust="spacing" textLength="51" x="315" y="402.0669">extends</text><!--MD5=[cb25b1e4020e44f278560a480684987c]
reverse link Mitarbeiter to Angestellte--><path codeLine="50" d="M480.44,373.7 C502.2,396.29 525.76,420.74 546.53,442.28 " fill="none" id="Mitarbeiter-backto-Angestellte" style="stroke:#A80036;stroke-width:1.0;"/><polygon fill="none" points="475.27,378.44,466.44,359.18,485.36,368.72,475.27,378.44" style="stroke:#A80036;stroke-width:1.0;"/><text fill="#000000" font-family="sans-serif" font-size="13" lengthAdjust="spacing" textLength="51" x="508" y="402.0669">extends</text><!--MD5=[cc8f708f1950b2f27fc9b06395f2edb7]
reverse link Person to Person--><path codeLine="52" d="M740.06,64.86 C753.47,68.29 762,74.01 762,82 C762,92.34 747.74,98.86 727.11,101.56 " fill="none" id="Person-backto-Person" style="stroke:#A80036;stroke-width:1.0;"/><polygon fill="none" points="727.11,62.44,732.268,67.4793,738.9036,64.6562,733.7455,59.6169,727.11,62.44" style="stroke:#A80036;stroke-width:1.0;"/><text fill="#000000" font-family="sans-serif" font-size="13" lengthAdjust="spacing" textLength="8" x="735.1889" y="57.7636">1</text><!--MD5=[99d442bc158b53ea2e258ae1a0a7666d]
@startuml
class App {
    + main(String[] args) : void
}
class Person {
    # nachname : String
    - ehepartner : Person
    # Person(String nachname)
    + setNachname(String nachname) : void
    + getNachname() : String
    + vorstellen() : String
    # heiraten(Person ehepartner) : void
    # scheiden() : void
}
class Mitarbeiter {
    # personalNummer : int
    # Mitarbeiter(String nachname, int personalNummer)
    # Mitarbeiter(String nachname)
    + setPersonalNummer(int personalNummer) : void
    + getPersonalNummer() : int
    + vorstellen() : String
}
class Lehrer {
    - fachbereich : String
    + Lehrer(String nachname, String fachbereich)
    + Lehrer(String nachname, int personalnummer)
    + Lehrer(String nachname, int personalnummer, String fachbereich)
    + getFachbereich() : String 
    + setFachbereich(String fachbereich) : void
    + vorstellen() : String
}
class Angestellte {
    - schulleitung : boolean
    + Angestellte(String nachname)
    + Angestellte(String nachname, int personalNummer)
    + setSchulleitung(boolean schulleitung) : void
    + isSchulleitung() : boolean
    + vorstellen() : String
}
class Lernende {
    - nummer : int 
    + Lernende(String nachname)
    + setNummer(int nummer) : void
    + getNummer() : int
    + vorstellen() : String
}

Person <|- - Mitarbeiter : "extends"
Person <|- - Lernende : "extends"
Mitarbeiter <|- - Lehrer : "extends"
Mitarbeiter <|- - Angestellte : "extends"

Person "1" o- - Person
@enduml

PlantUML version 1.2022.1(Tue Feb 01 18:19:58 UTC 2022)
(GPL source distribution)
Java Runtime: OpenJDK Runtime Environment
JVM: OpenJDK 64-Bit Server VM
Default Encoding: UTF-8
Language: en
Country: null
--></g></svg>