<?xml version="1.0" encoding="UTF-8" standalone="no"?>
<svg xmlns="http://www.w3.org/2000/svg" xmlns:xlink="http://www.w3.org/1999/xlink" contentScriptType="application/ecmascript" contentStyleType="text/css" height="536px" preserveAspectRatio="none" style="width:817px;height:536px;background:#FFFFFF;" version="1.1" viewBox="0 0 817 536" width="817px" zoomAndPan="magnify"><defs><filter height="300%" id="f7f2cm9ciohlc" width="300%" x="-1" y="-1"><feGaussianBlur result="blurOut" stdDeviation="2.0"/><feColorMatrix in="blurOut" result="blurOut2" type="matrix" values="0 0 0 0 0 0 0 0 0 0 0 0 0 0 0 0 0 0 .4 0"/><feOffset dx="4.0" dy="4.0" in="blurOut2" result="blurOut3"/><feBlend in="SourceGraphic" in2="blurOut3" mode="normal"/></filter></defs><g><!--MD5=[335f4d9be48430461c68bf6d6fdba145]
class App--><rect codeLine="1" fill="#FEFECE" filter="url(#f7f2cm9ciohlc)" height="60.8047" id="App" style="stroke:#A80036;stroke-width:1.5;" width="169" x="278.5" y="32.5"/><ellipse cx="346.75" cy="48.5" fill="#ADD1B2" rx="11" ry="11" style="stroke:#A80036;stroke-width:1.0;"/><path d="M349.7188,54.1406 Q349.1406,54.4375 348.5,54.5781 Q347.8594,54.7344 347.1563,54.7344 Q344.6563,54.7344 343.3281,53.0938 Q342.0156,51.4375 342.0156,48.3125 Q342.0156,45.1875 343.3281,43.5313 Q344.6563,41.875 347.1563,41.875 Q347.8594,41.875 348.5,42.0313 Q349.1563,42.1875 349.7188,42.4844 L349.7188,45.2031 Q349.0938,44.625 348.5,44.3594 Q347.9063,44.0781 347.2813,44.0781 Q345.9375,44.0781 345.25,45.1563 Q344.5625,46.2188 344.5625,48.3125 Q344.5625,50.4063 345.25,51.4844 Q345.9375,52.5469 347.2813,52.5469 Q347.9063,52.5469 348.5,52.2813 Q349.0938,52 349.7188,51.4219 L349.7188,54.1406 Z " fill="#000000"/><text fill="#000000" font-family="sans-serif" font-size="12" lengthAdjust="spacing" textLength="24" x="367.25" y="52.6543">App</text><line style="stroke:#A80036;stroke-width:1.5;" x1="279.5" x2="446.5" y1="64.5" y2="64.5"/><line style="stroke:#A80036;stroke-width:1.5;" x1="279.5" x2="446.5" y1="72.5" y2="72.5"/><ellipse cx="289.5" cy="83.5" fill="#84BE84" rx="3" ry="3" style="stroke:#038048;stroke-width:1.0;"/><text fill="#000000" font-family="sans-serif" font-size="11" lengthAdjust="spacing" textLength="143" x="298.5" y="86.7104">main(String[] args) : void</text><!--MD5=[09ce52be0ee7de43c61b6e2d59bf108b]
class Person--><rect codeLine="4" fill="#FEFECE" filter="url(#f7f2cm9ciohlc)" height="112.0234" id="Person" style="stroke:#A80036;stroke-width:1.5;" width="244" x="483" y="7"/><ellipse cx="578.75" cy="23" fill="#ADD1B2" rx="11" ry="11" style="stroke:#A80036;stroke-width:1.0;"/><path d="M581.7188,28.6406 Q581.1406,28.9375 580.5,29.0781 Q579.8594,29.2344 579.1563,29.2344 Q576.6563,29.2344 575.3281,27.5938 Q574.0156,25.9375 574.0156,22.8125 Q574.0156,19.6875 575.3281,18.0313 Q576.6563,16.375 579.1563,16.375 Q579.8594,16.375 580.5,16.5313 Q581.1563,16.6875 581.7188,16.9844 L581.7188,19.7031 Q581.0938,19.125 580.5,18.8594 Q579.9063,18.5781 579.2813,18.5781 Q577.9375,18.5781 577.25,19.6563 Q576.5625,20.7188 576.5625,22.8125 Q576.5625,24.9063 577.25,25.9844 Q577.9375,27.0469 579.2813,27.0469 Q579.9063,27.0469 580.5,26.7813 Q581.0938,26.5 581.7188,25.9219 L581.7188,28.6406 Z " fill="#000000"/><text fill="#000000" font-family="sans-serif" font-size="12" lengthAdjust="spacing" textLength="44" x="599.25" y="27.1543">Person</text><line style="stroke:#A80036;stroke-width:1.5;" x1="484" x2="726" y1="39" y2="39"/><polygon fill="none" points="494,45,498,49,494,53,490,49" style="stroke:#B38D22;stroke-width:1.0;"/><text fill="#000000" font-family="sans-serif" font-size="11" lengthAdjust="spacing" textLength="105" x="503" y="53.2104">nachname : String</text><line style="stroke:#A80036;stroke-width:1.5;" x1="484" x2="726" y1="59.8047" y2="59.8047"/><polygon fill="#FFFF44" points="494,65.8047,498,69.8047,494,73.8047,490,69.8047" style="stroke:#B38D22;stroke-width:1.0;"/><text fill="#000000" font-family="sans-serif" font-size="11" lengthAdjust="spacing" textLength="145" x="503" y="74.0151">Person(String nachname)</text><ellipse cx="494" cy="83.6094" fill="#84BE84" rx="3" ry="3" style="stroke:#038048;stroke-width:1.0;"/><text fill="#000000" font-family="sans-serif" font-size="11" lengthAdjust="spacing" textLength="218" x="503" y="86.8198">setNachname(String nachname) : void</text><ellipse cx="494" cy="96.4141" fill="#84BE84" rx="3" ry="3" style="stroke:#038048;stroke-width:1.0;"/><text fill="#000000" font-family="sans-serif" font-size="11" lengthAdjust="spacing" textLength="132" x="503" y="99.6245">getNachname() : String</text><ellipse cx="494" cy="109.2188" fill="#84BE84" rx="3" ry="3" style="stroke:#038048;stroke-width:1.0;"/><text fill="#000000" font-family="sans-serif" font-size="11" lengthAdjust="spacing" textLength="110" x="503" y="112.4292">vorstellen() : String</text><!--MD5=[cf50a5de139d8ee8ab91969acb1dc454]
class Mitarbeiter--><rect codeLine="11" fill="#FEFECE" filter="url(#f7f2cm9ciohlc)" height="124.8281" id="Mitarbeiter" style="stroke:#A80036;stroke-width:1.5;" width="317" x="248.5" y="196"/><ellipse cx="368.75" cy="212" fill="#ADD1B2" rx="11" ry="11" style="stroke:#A80036;stroke-width:1.0;"/><path d="M371.7188,217.6406 Q371.1406,217.9375 370.5,218.0781 Q369.8594,218.2344 369.1563,218.2344 Q366.6563,218.2344 365.3281,216.5938 Q364.0156,214.9375 364.0156,211.8125 Q364.0156,208.6875 365.3281,207.0313 Q366.6563,205.375 369.1563,205.375 Q369.8594,205.375 370.5,205.5313 Q371.1563,205.6875 371.7188,205.9844 L371.7188,208.7031 Q371.0938,208.125 370.5,207.8594 Q369.9063,207.5781 369.2813,207.5781 Q367.9375,207.5781 367.25,208.6563 Q366.5625,209.7188 366.5625,211.8125 Q366.5625,213.9063 367.25,214.9844 Q367.9375,216.0469 369.2813,216.0469 Q369.9063,216.0469 370.5,215.7813 Q371.0938,215.5 371.7188,214.9219 L371.7188,217.6406 Z " fill="#000000"/><text fill="#000000" font-family="sans-serif" font-size="12" lengthAdjust="spacing" textLength="68" x="389.25" y="216.1543">Mitarbeiter</text><line style="stroke:#A80036;stroke-width:1.5;" x1="249.5" x2="564.5" y1="228" y2="228"/><polygon fill="none" points="259.5,234,263.5,238,259.5,242,255.5,238" style="stroke:#B38D22;stroke-width:1.0;"/><text fill="#000000" font-family="sans-serif" font-size="11" lengthAdjust="spacing" textLength="125" x="268.5" y="242.2104">personalNummer : int</text><line style="stroke:#A80036;stroke-width:1.5;" x1="249.5" x2="564.5" y1="248.8047" y2="248.8047"/><polygon fill="#FFFF44" points="259.5,254.8047,263.5,258.8047,259.5,262.8047,255.5,258.8047" style="stroke:#B38D22;stroke-width:1.0;"/><text fill="#000000" font-family="sans-serif" font-size="11" lengthAdjust="spacing" textLength="291" x="268.5" y="263.0151">Mitarbeiter(String nachname, int personalNummer)</text><polygon fill="#FFFF44" points="259.5,267.6094,263.5,271.6094,259.5,275.6094,255.5,271.6094" style="stroke:#B38D22;stroke-width:1.0;"/><text fill="#000000" font-family="sans-serif" font-size="11" lengthAdjust="spacing" textLength="166" x="268.5" y="275.8198">Mitarbeiter(String nachname)</text><ellipse cx="259.5" cy="285.4141" fill="#84BE84" rx="3" ry="3" style="stroke:#038048;stroke-width:1.0;"/><text fill="#000000" font-family="sans-serif" font-size="11" lengthAdjust="spacing" textLength="277" x="268.5" y="288.6245">setPersonalNummer(int personalNummer) : void</text><ellipse cx="259.5" cy="298.2188" fill="#84BE84" rx="3" ry="3" style="stroke:#038048;stroke-width:1.0;"/><text fill="#000000" font-family="sans-serif" font-size="11" lengthAdjust="spacing" textLength="151" x="268.5" y="301.4292">getPersonalNummer() : int</text><ellipse cx="259.5" cy="311.0234" fill="#84BE84" rx="3" ry="3" style="stroke:#038048;stroke-width:1.0;"/><text fill="#000000" font-family="sans-serif" font-size="11" lengthAdjust="spacing" textLength="110" x="268.5" y="314.2339">vorstellen() : String</text><!--MD5=[b68af693cf60e945a9cb87ea33cffb44]
class Lehrer--><rect codeLine="19" fill="#FEFECE" filter="url(#f7f2cm9ciohlc)" height="112.0234" id="Lehrer" style="stroke:#A80036;stroke-width:1.5;" width="404" x="7" y="404.5"/><ellipse cx="184.75" cy="420.5" fill="#ADD1B2" rx="11" ry="11" style="stroke:#A80036;stroke-width:1.0;"/><path d="M187.7188,426.1406 Q187.1406,426.4375 186.5,426.5781 Q185.8594,426.7344 185.1563,426.7344 Q182.6563,426.7344 181.3281,425.0938 Q180.0156,423.4375 180.0156,420.3125 Q180.0156,417.1875 181.3281,415.5313 Q182.6563,413.875 185.1563,413.875 Q185.8594,413.875 186.5,414.0313 Q187.1563,414.1875 187.7188,414.4844 L187.7188,417.2031 Q187.0938,416.625 186.5,416.3594 Q185.9063,416.0781 185.2813,416.0781 Q183.9375,416.0781 183.25,417.1563 Q182.5625,418.2188 182.5625,420.3125 Q182.5625,422.4063 183.25,423.4844 Q183.9375,424.5469 185.2813,424.5469 Q185.9063,424.5469 186.5,424.2813 Q187.0938,424 187.7188,423.4219 L187.7188,426.1406 Z " fill="#000000"/><text fill="#000000" font-family="sans-serif" font-size="12" lengthAdjust="spacing" textLength="40" x="205.25" y="424.6543">Lehrer</text><line style="stroke:#A80036;stroke-width:1.5;" x1="8" x2="410" y1="436.5" y2="436.5"/><rect fill="none" height="6" style="stroke:#C82930;stroke-width:1.0;" width="6" x="15" y="444.5"/><text fill="#000000" font-family="sans-serif" font-size="11" lengthAdjust="spacing" textLength="112" x="27" y="450.7104">fachbereich : String</text><line style="stroke:#A80036;stroke-width:1.5;" x1="8" x2="410" y1="457.3047" y2="457.3047"/><ellipse cx="18" cy="468.3047" fill="#84BE84" rx="3" ry="3" style="stroke:#038048;stroke-width:1.0;"/><text fill="#000000" font-family="sans-serif" font-size="11" lengthAdjust="spacing" textLength="378" x="27" y="471.5151">Lehrer(String nachname, int personalnummer, String fachbereich)</text><ellipse cx="18" cy="481.1094" fill="#84BE84" rx="3" ry="3" style="stroke:#038048;stroke-width:1.0;"/><text fill="#000000" font-family="sans-serif" font-size="11" lengthAdjust="spacing" textLength="140" x="27" y="484.3198">getFachbereich() : String</text><ellipse cx="18" cy="493.9141" fill="#84BE84" rx="3" ry="3" style="stroke:#038048;stroke-width:1.0;"/><text fill="#000000" font-family="sans-serif" font-size="11" lengthAdjust="spacing" textLength="233" x="27" y="497.1245">setFachbereich(String fachbereich) : void</text><ellipse cx="18" cy="506.7188" fill="#84BE84" rx="3" ry="3" style="stroke:#038048;stroke-width:1.0;"/><text fill="#000000" font-family="sans-serif" font-size="11" lengthAdjust="spacing" textLength="110" x="27" y="509.9292">vorstellen() : String</text><!--MD5=[3b163f382fcb0a60af2759cb55ad0fea]
class Angestellte--><rect codeLine="26" fill="#FEFECE" filter="url(#f7f2cm9ciohlc)" height="124.8281" id="Angestellte" style="stroke:#A80036;stroke-width:1.5;" width="319" x="446.5" y="398"/><ellipse cx="566.25" cy="414" fill="#ADD1B2" rx="11" ry="11" style="stroke:#A80036;stroke-width:1.0;"/><path d="M569.2188,419.6406 Q568.6406,419.9375 568,420.0781 Q567.3594,420.2344 566.6563,420.2344 Q564.1563,420.2344 562.8281,418.5938 Q561.5156,416.9375 561.5156,413.8125 Q561.5156,410.6875 562.8281,409.0313 Q564.1563,407.375 566.6563,407.375 Q567.3594,407.375 568,407.5313 Q568.6563,407.6875 569.2188,407.9844 L569.2188,410.7031 Q568.5938,410.125 568,409.8594 Q567.4063,409.5781 566.7813,409.5781 Q565.4375,409.5781 564.75,410.6563 Q564.0625,411.7188 564.0625,413.8125 Q564.0625,415.9063 564.75,416.9844 Q565.4375,418.0469 566.7813,418.0469 Q567.4063,418.0469 568,417.7813 Q568.5938,417.5 569.2188,416.9219 L569.2188,419.6406 Z " fill="#000000"/><text fill="#000000" font-family="sans-serif" font-size="12" lengthAdjust="spacing" textLength="71" x="586.75" y="418.1543">Angestellte</text><line style="stroke:#A80036;stroke-width:1.5;" x1="447.5" x2="764.5" y1="430" y2="430"/><rect fill="none" height="6" style="stroke:#C82930;stroke-width:1.0;" width="6" x="454.5" y="438"/><text fill="#000000" font-family="sans-serif" font-size="11" lengthAdjust="spacing" textLength="125" x="466.5" y="444.2104">schulleitung : boolean</text><line style="stroke:#A80036;stroke-width:1.5;" x1="447.5" x2="764.5" y1="450.8047" y2="450.8047"/><ellipse cx="457.5" cy="461.8047" fill="#84BE84" rx="3" ry="3" style="stroke:#038048;stroke-width:1.0;"/><text fill="#000000" font-family="sans-serif" font-size="11" lengthAdjust="spacing" textLength="168" x="466.5" y="465.0151">Angestellte(String nachname)</text><ellipse cx="457.5" cy="474.6094" fill="#84BE84" rx="3" ry="3" style="stroke:#038048;stroke-width:1.0;"/><text fill="#000000" font-family="sans-serif" font-size="11" lengthAdjust="spacing" textLength="293" x="466.5" y="477.8198">Angestellte(String nachname, int personalNummer)</text><ellipse cx="457.5" cy="487.4141" fill="#84BE84" rx="3" ry="3" style="stroke:#038048;stroke-width:1.0;"/><text fill="#000000" font-family="sans-serif" font-size="11" lengthAdjust="spacing" textLength="247" x="466.5" y="490.6245">setSchulleitung(boolean schulleitung) : void</text><ellipse cx="457.5" cy="500.2188" fill="#84BE84" rx="3" ry="3" style="stroke:#038048;stroke-width:1.0;"/><text fill="#000000" font-family="sans-serif" font-size="11" lengthAdjust="spacing" textLength="144" x="466.5" y="503.4292">isSchulleitung() : boolean</text><ellipse cx="457.5" cy="513.0234" fill="#84BE84" rx="3" ry="3" style="stroke:#038048;stroke-width:1.0;"/><text fill="#000000" font-family="sans-serif" font-size="11" lengthAdjust="spacing" textLength="110" x="466.5" y="516.2339">vorstellen() : String</text><!--MD5=[e0c77432632b1b568746454dd033b200]
class Lernende--><rect codeLine="34" fill="#FEFECE" filter="url(#f7f2cm9ciohlc)" height="112.0234" id="Lernende" style="stroke:#A80036;stroke-width:1.5;" width="202" x="601" y="202.5"/><ellipse cx="668.25" cy="218.5" fill="#ADD1B2" rx="11" ry="11" style="stroke:#A80036;stroke-width:1.0;"/><path d="M671.2188,224.1406 Q670.6406,224.4375 670,224.5781 Q669.3594,224.7344 668.6563,224.7344 Q666.1563,224.7344 664.8281,223.0938 Q663.5156,221.4375 663.5156,218.3125 Q663.5156,215.1875 664.8281,213.5313 Q666.1563,211.875 668.6563,211.875 Q669.3594,211.875 670,212.0313 Q670.6563,212.1875 671.2188,212.4844 L671.2188,215.2031 Q670.5938,214.625 670,214.3594 Q669.4063,214.0781 668.7813,214.0781 Q667.4375,214.0781 666.75,215.1563 Q666.0625,216.2188 666.0625,218.3125 Q666.0625,220.4063 666.75,221.4844 Q667.4375,222.5469 668.7813,222.5469 Q669.4063,222.5469 670,222.2813 Q670.5938,222 671.2188,221.4219 L671.2188,224.1406 Z " fill="#000000"/><text fill="#000000" font-family="sans-serif" font-size="12" lengthAdjust="spacing" textLength="59" x="688.75" y="222.6543">Lernende</text><line style="stroke:#A80036;stroke-width:1.5;" x1="602" x2="802" y1="234.5" y2="234.5"/><rect fill="none" height="6" style="stroke:#C82930;stroke-width:1.0;" width="6" x="609" y="242.5"/><text fill="#000000" font-family="sans-serif" font-size="11" lengthAdjust="spacing" textLength="74" x="621" y="248.7104">nummer : int</text><line style="stroke:#A80036;stroke-width:1.5;" x1="602" x2="802" y1="255.3047" y2="255.3047"/><ellipse cx="612" cy="266.3047" fill="#84BE84" rx="3" ry="3" style="stroke:#038048;stroke-width:1.0;"/><text fill="#000000" font-family="sans-serif" font-size="11" lengthAdjust="spacing" textLength="158" x="621" y="269.5151">Lernende(String nachname)</text><ellipse cx="612" cy="279.1094" fill="#84BE84" rx="3" ry="3" style="stroke:#038048;stroke-width:1.0;"/><text fill="#000000" font-family="sans-serif" font-size="11" lengthAdjust="spacing" textLength="176" x="621" y="282.3198">setNummer(int nummer) : void</text><ellipse cx="612" cy="291.9141" fill="#84BE84" rx="3" ry="3" style="stroke:#038048;stroke-width:1.0;"/><text fill="#000000" font-family="sans-serif" font-size="11" lengthAdjust="spacing" textLength="101" x="621" y="295.1245">getNummer() : int</text><ellipse cx="612" cy="304.7188" fill="#84BE84" rx="3" ry="3" style="stroke:#038048;stroke-width:1.0;"/><text fill="#000000" font-family="sans-serif" font-size="11" lengthAdjust="spacing" textLength="110" x="621" y="307.9292">vorstellen() : String</text><!--MD5=[b55e1fc4f5ed1150be76a7fd4391a706]
reverse link Person to Mitarbeiter--><path codeLine="42" d="M534.07,133.32 C513.19,153.72 490.51,175.89 470.16,195.77 " fill="none" id="Person-backto-Mitarbeiter" style="stroke:#A80036;stroke-width:1.0;"/><polygon fill="none" points="529.33,128.16,548.53,119.19,539.11,138.18,529.33,128.16" style="stroke:#A80036;stroke-width:1.0;"/><text fill="#000000" font-family="sans-serif" font-size="13" lengthAdjust="spacing" textLength="51" x="519" y="162.0669">extends</text><!--MD5=[9c834ccf53bee16c2f5ff79eb16bfce4]
reverse link Person to Lernende--><path codeLine="43" d="M641.7,137.2 C652.51,158.77 664.15,182 674.3,202.24 " fill="none" id="Person-backto-Lernende" style="stroke:#A80036;stroke-width:1.0;"/><polygon fill="none" points="635.37,140.21,632.67,119.19,647.89,133.93,635.37,140.21" style="stroke:#A80036;stroke-width:1.0;"/><text fill="#000000" font-family="sans-serif" font-size="13" lengthAdjust="spacing" textLength="51" x="655" y="162.0669">extends</text><!--MD5=[5f8c01e2d598d3d40cae6158d4529506]
reverse link Mitarbeiter to Lehrer--><path codeLine="44" d="M331.8,335.46 C309.18,358.31 284.8,382.94 263.77,404.18 " fill="none" id="Mitarbeiter-backto-Lehrer" style="stroke:#A80036;stroke-width:1.0;"/><polygon fill="none" points="326.93,330.43,345.98,321.14,336.88,340.28,326.93,330.43" style="stroke:#A80036;stroke-width:1.0;"/><text fill="#000000" font-family="sans-serif" font-size="13" lengthAdjust="spacing" textLength="51" x="315" y="364.0669">extends</text><!--MD5=[cb25b1e4020e44f278560a480684987c]
reverse link Mitarbeiter to Angestellte--><path codeLine="45" d="M482.57,335.45 C503.04,356.02 524.94,378.03 544.53,397.72 " fill="none" id="Mitarbeiter-backto-Angestellte" style="stroke:#A80036;stroke-width:1.0;"/><polygon fill="none" points="477.47,340.25,468.33,321.14,487.4,330.38,477.47,340.25" style="stroke:#A80036;stroke-width:1.0;"/><text fill="#000000" font-family="sans-serif" font-size="13" lengthAdjust="spacing" textLength="51" x="514" y="364.0669">extends</text><!--MD5=[00af21ca6d43a568057bcb5537af2a51]
@startuml
class App {
    + main(String[] args) : void
}
class Person {
    # nachname : String
    # Person(String nachname)
    + setNachname(String nachname) : void
    + getNachname() : String
    + vorstellen() : String
}
class Mitarbeiter {
    # personalNummer : int
    # Mitarbeiter(String nachname, int personalNummer)
    # Mitarbeiter(String nachname)
    + setPersonalNummer(int personalNummer) : void
    + getPersonalNummer() : int
    + vorstellen() : String
}
class Lehrer {
    - fachbereich : String
    + Lehrer(String nachname, int personalnummer, String fachbereich)
    + getFachbereich() : String 
    + setFachbereich(String fachbereich) : void
    + vorstellen() : String
}
class Angestellte {
    - schulleitung : boolean
    + Angestellte(String nachname)
    + Angestellte(String nachname, int personalNummer)
    + setSchulleitung(boolean schulleitung) : void
    + isSchulleitung() : boolean
    + vorstellen() : String
}
class Lernende {
    - nummer : int 
    + Lernende(String nachname)
    + setNummer(int nummer) : void
    + getNummer() : int
    + vorstellen() : String
}

Person <|- - Mitarbeiter : "extends"
Person <|- - Lernende : "extends"
Mitarbeiter <|- - Lehrer : "extends"
Mitarbeiter <|- - Angestellte : "extends"
@enduml

PlantUML version 1.2022.1(Tue Feb 01 18:19:58 UTC 2022)
(GPL source distribution)
Java Runtime: OpenJDK Runtime Environment
JVM: OpenJDK 64-Bit Server VM
Default Encoding: UTF-8
Language: en
Country: null
--></g></svg>