<?xml version="1.0" encoding="UTF-8" standalone="no"?>
<svg xmlns="http://www.w3.org/2000/svg" xmlns:xlink="http://www.w3.org/1999/xlink" contentScriptType="application/ecmascript" contentStyleType="text/css" height="677px" preserveAspectRatio="none" style="width:817px;height:677px;background:#FFFFFF;" version="1.1" viewBox="0 0 817 677" width="817px" zoomAndPan="magnify"><defs><filter height="300%" id="f1qfch556esgmd" width="300%" x="-1" y="-1"><feGaussianBlur result="blurOut" stdDeviation="2.0"/><feColorMatrix in="blurOut" result="blurOut2" type="matrix" values="0 0 0 0 0 0 0 0 0 0 0 0 0 0 0 0 0 0 .4 0"/><feOffset dx="4.0" dy="4.0" in="blurOut2" result="blurOut3"/><feBlend in="SourceGraphic" in2="blurOut3" mode="normal"/></filter></defs><g><!--MD5=[335f4d9be48430461c68bf6d6fdba145]
class App--><rect codeLine="1" fill="#FEFECE" filter="url(#f1qfch556esgmd)" height="60.8047" id="App" style="stroke:#A80036;stroke-width:1.5;" width="169" x="278.5" y="77.5"/><ellipse cx="346.75" cy="93.5" fill="#ADD1B2" rx="11" ry="11" style="stroke:#A80036;stroke-width:1.0;"/><path d="M349.7188,99.1406 Q349.1406,99.4375 348.5,99.5781 Q347.8594,99.7344 347.1563,99.7344 Q344.6563,99.7344 343.3281,98.0938 Q342.0156,96.4375 342.0156,93.3125 Q342.0156,90.1875 343.3281,88.5313 Q344.6563,86.875 347.1563,86.875 Q347.8594,86.875 348.5,87.0313 Q349.1563,87.1875 349.7188,87.4844 L349.7188,90.2031 Q349.0938,89.625 348.5,89.3594 Q347.9063,89.0781 347.2813,89.0781 Q345.9375,89.0781 345.25,90.1563 Q344.5625,91.2188 344.5625,93.3125 Q344.5625,95.4063 345.25,96.4844 Q345.9375,97.5469 347.2813,97.5469 Q347.9063,97.5469 348.5,97.2813 Q349.0938,97 349.7188,96.4219 L349.7188,99.1406 Z " fill="#000000"/><text fill="#000000" font-family="sans-serif" font-size="12" lengthAdjust="spacing" textLength="24" x="367.25" y="97.6543">App</text><line style="stroke:#A80036;stroke-width:1.5;" x1="279.5" x2="446.5" y1="109.5" y2="109.5"/><line style="stroke:#A80036;stroke-width:1.5;" x1="279.5" x2="446.5" y1="117.5" y2="117.5"/><ellipse cx="289.5" cy="128.5" fill="#84BE84" rx="3" ry="3" style="stroke:#038048;stroke-width:1.0;"/><text fill="#000000" font-family="sans-serif" font-size="11" lengthAdjust="spacing" textLength="143" x="298.5" y="131.7104">main(String[] args) : void</text><!--MD5=[09ce52be0ee7de43c61b6e2d59bf108b]
class Person--><rect codeLine="4" fill="#FEFECE" filter="url(#f1qfch556esgmd)" height="201.6563" id="Person" style="stroke:#A80036;stroke-width:1.5;" width="244" x="483" y="7"/><ellipse cx="578.75" cy="23" fill="#ADD1B2" rx="11" ry="11" style="stroke:#A80036;stroke-width:1.0;"/><path d="M581.7188,28.6406 Q581.1406,28.9375 580.5,29.0781 Q579.8594,29.2344 579.1563,29.2344 Q576.6563,29.2344 575.3281,27.5938 Q574.0156,25.9375 574.0156,22.8125 Q574.0156,19.6875 575.3281,18.0313 Q576.6563,16.375 579.1563,16.375 Q579.8594,16.375 580.5,16.5313 Q581.1563,16.6875 581.7188,16.9844 L581.7188,19.7031 Q581.0938,19.125 580.5,18.8594 Q579.9063,18.5781 579.2813,18.5781 Q577.9375,18.5781 577.25,19.6563 Q576.5625,20.7188 576.5625,22.8125 Q576.5625,24.9063 577.25,25.9844 Q577.9375,27.0469 579.2813,27.0469 Q579.9063,27.0469 580.5,26.7813 Q581.0938,26.5 581.7188,25.9219 L581.7188,28.6406 Z " fill="#000000"/><text fill="#000000" font-family="sans-serif" font-size="12" lengthAdjust="spacing" textLength="44" x="599.25" y="27.1543">Person</text><line style="stroke:#A80036;stroke-width:1.5;" x1="484" x2="726" y1="39" y2="39"/><polygon fill="none" points="494,45,498,49,494,53,490,49" style="stroke:#B38D22;stroke-width:1.0;"/><text fill="#000000" font-family="sans-serif" font-size="11" lengthAdjust="spacing" textLength="105" x="503" y="53.2104">nachname : String</text><rect fill="none" height="6" style="stroke:#C82930;stroke-width:1.0;" width="6" x="491" y="59.8047"/><text fill="#000000" font-family="sans-serif" font-size="11" lengthAdjust="spacing" textLength="115" x="503" y="66.0151">ehepartner : Person</text><line style="stroke:#A80036;stroke-width:1.5;" x1="484" x2="726" y1="72.6094" y2="72.6094"/><polygon fill="#FFFF44" points="494,78.6094,498,82.6094,494,86.6094,490,82.6094" style="stroke:#B38D22;stroke-width:1.0;"/><text fill="#000000" font-family="sans-serif" font-size="11" lengthAdjust="spacing" textLength="145" x="503" y="86.8198">Person(String nachname)</text><ellipse cx="494" cy="96.4141" fill="#84BE84" rx="3" ry="3" style="stroke:#038048;stroke-width:1.0;"/><text fill="#000000" font-family="sans-serif" font-size="11" lengthAdjust="spacing" textLength="218" x="503" y="99.6245">setNachname(String nachname) : void</text><ellipse cx="494" cy="109.2188" fill="#84BE84" rx="3" ry="3" style="stroke:#038048;stroke-width:1.0;"/><text fill="#000000" font-family="sans-serif" font-size="11" lengthAdjust="spacing" textLength="132" x="503" y="112.4292">getNachname() : String</text><ellipse cx="494" cy="122.0234" fill="#84BE84" rx="3" ry="3" style="stroke:#038048;stroke-width:1.0;"/><text fill="#000000" font-family="sans-serif" font-size="11" lengthAdjust="spacing" textLength="110" x="503" y="125.2339">vorstellen() : String</text><polygon fill="#FFFF44" points="494,129.8281,498,133.8281,494,137.8281,490,133.8281" style="stroke:#B38D22;stroke-width:1.0;"/><text fill="#000000" font-family="sans-serif" font-size="11" lengthAdjust="spacing" textLength="197" x="503" y="138.0386">heiraten(Person ehepartner) : void</text><polygon fill="#FFFF44" points="494,142.6328,498,146.6328,494,150.6328,490,146.6328" style="stroke:#B38D22;stroke-width:1.0;"/><text fill="#000000" font-family="sans-serif" font-size="11" lengthAdjust="spacing" textLength="94" x="503" y="150.8433">scheiden() : void</text><ellipse cx="494" cy="160.4375" fill="#84BE84" rx="3" ry="3" style="stroke:#038048;stroke-width:1.0;"/><text fill="#000000" font-family="sans-serif" font-size="11" lengthAdjust="spacing" textLength="99" x="503" y="163.6479">toString() : String</text><ellipse cx="494" cy="173.2422" fill="#84BE84" rx="3" ry="3" style="stroke:#038048;stroke-width:1.0;"/><text fill="#000000" font-family="sans-serif" font-size="11" lengthAdjust="spacing" textLength="91" x="503" y="176.4526">hashCode() : int</text><ellipse cx="494" cy="186.0469" fill="#84BE84" rx="3" ry="3" style="stroke:#038048;stroke-width:1.0;"/><text fill="#000000" font-family="sans-serif" font-size="11" lengthAdjust="spacing" textLength="160" x="503" y="189.2573">equals(Object obj) : boolean</text><ellipse cx="494" cy="198.8516" fill="#84BE84" rx="3" ry="3" style="stroke:#038048;stroke-width:1.0;"/><text fill="#000000" font-family="sans-serif" font-size="11" lengthAdjust="spacing" textLength="91" x="503" y="202.062">hashCode() : int</text><!--MD5=[cf50a5de139d8ee8ab91969acb1dc454]
class Mitarbeiter--><rect codeLine="18" fill="#FEFECE" filter="url(#f1qfch556esgmd)" height="150.4375" id="Mitarbeiter" style="stroke:#A80036;stroke-width:1.5;" width="317" x="248.5" y="286"/><ellipse cx="368.75" cy="302" fill="#ADD1B2" rx="11" ry="11" style="stroke:#A80036;stroke-width:1.0;"/><path d="M371.7188,307.6406 Q371.1406,307.9375 370.5,308.0781 Q369.8594,308.2344 369.1563,308.2344 Q366.6563,308.2344 365.3281,306.5938 Q364.0156,304.9375 364.0156,301.8125 Q364.0156,298.6875 365.3281,297.0313 Q366.6563,295.375 369.1563,295.375 Q369.8594,295.375 370.5,295.5313 Q371.1563,295.6875 371.7188,295.9844 L371.7188,298.7031 Q371.0938,298.125 370.5,297.8594 Q369.9063,297.5781 369.2813,297.5781 Q367.9375,297.5781 367.25,298.6563 Q366.5625,299.7188 366.5625,301.8125 Q366.5625,303.9063 367.25,304.9844 Q367.9375,306.0469 369.2813,306.0469 Q369.9063,306.0469 370.5,305.7813 Q371.0938,305.5 371.7188,304.9219 L371.7188,307.6406 Z " fill="#000000"/><text fill="#000000" font-family="sans-serif" font-size="12" lengthAdjust="spacing" textLength="68" x="389.25" y="306.1543">Mitarbeiter</text><line style="stroke:#A80036;stroke-width:1.5;" x1="249.5" x2="564.5" y1="318" y2="318"/><polygon fill="none" points="259.5,324,263.5,328,259.5,332,255.5,328" style="stroke:#B38D22;stroke-width:1.0;"/><text fill="#000000" font-family="sans-serif" font-size="11" lengthAdjust="spacing" textLength="125" x="268.5" y="332.2104">personalNummer : int</text><line style="stroke:#A80036;stroke-width:1.5;" x1="249.5" x2="564.5" y1="338.8047" y2="338.8047"/><polygon fill="#FFFF44" points="259.5,344.8047,263.5,348.8047,259.5,352.8047,255.5,348.8047" style="stroke:#B38D22;stroke-width:1.0;"/><text fill="#000000" font-family="sans-serif" font-size="11" lengthAdjust="spacing" textLength="291" x="268.5" y="353.0151">Mitarbeiter(String nachname, int personalNummer)</text><polygon fill="#FFFF44" points="259.5,357.6094,263.5,361.6094,259.5,365.6094,255.5,361.6094" style="stroke:#B38D22;stroke-width:1.0;"/><text fill="#000000" font-family="sans-serif" font-size="11" lengthAdjust="spacing" textLength="166" x="268.5" y="365.8198">Mitarbeiter(String nachname)</text><ellipse cx="259.5" cy="375.4141" fill="#84BE84" rx="3" ry="3" style="stroke:#038048;stroke-width:1.0;"/><text fill="#000000" font-family="sans-serif" font-size="11" lengthAdjust="spacing" textLength="277" x="268.5" y="378.6245">setPersonalNummer(int personalNummer) : void</text><ellipse cx="259.5" cy="388.2188" fill="#84BE84" rx="3" ry="3" style="stroke:#038048;stroke-width:1.0;"/><text fill="#000000" font-family="sans-serif" font-size="11" lengthAdjust="spacing" textLength="151" x="268.5" y="391.4292">getPersonalNummer() : int</text><ellipse cx="259.5" cy="401.0234" fill="#84BE84" rx="3" ry="3" style="stroke:#038048;stroke-width:1.0;"/><text fill="#000000" font-family="sans-serif" font-size="11" lengthAdjust="spacing" textLength="110" x="268.5" y="404.2339">vorstellen() : String</text><ellipse cx="259.5" cy="413.8281" fill="#84BE84" rx="3" ry="3" style="stroke:#038048;stroke-width:1.0;"/><text fill="#000000" font-family="sans-serif" font-size="11" lengthAdjust="spacing" textLength="99" x="268.5" y="417.0386">toString() : String</text><ellipse cx="259.5" cy="426.6328" fill="#84BE84" rx="3" ry="3" style="stroke:#038048;stroke-width:1.0;"/><text fill="#000000" font-family="sans-serif" font-size="11" lengthAdjust="spacing" textLength="91" x="268.5" y="429.8433">hashCode() : int</text><!--MD5=[b68af693cf60e945a9cb87ea33cffb44]
class Lehrer--><rect codeLine="28" fill="#FEFECE" filter="url(#f1qfch556esgmd)" height="150.4375" id="Lehrer" style="stroke:#A80036;stroke-width:1.5;" width="404" x="7" y="513"/><ellipse cx="184.75" cy="529" fill="#ADD1B2" rx="11" ry="11" style="stroke:#A80036;stroke-width:1.0;"/><path d="M187.7188,534.6406 Q187.1406,534.9375 186.5,535.0781 Q185.8594,535.2344 185.1563,535.2344 Q182.6563,535.2344 181.3281,533.5938 Q180.0156,531.9375 180.0156,528.8125 Q180.0156,525.6875 181.3281,524.0313 Q182.6563,522.375 185.1563,522.375 Q185.8594,522.375 186.5,522.5313 Q187.1563,522.6875 187.7188,522.9844 L187.7188,525.7031 Q187.0938,525.125 186.5,524.8594 Q185.9063,524.5781 185.2813,524.5781 Q183.9375,524.5781 183.25,525.6563 Q182.5625,526.7188 182.5625,528.8125 Q182.5625,530.9063 183.25,531.9844 Q183.9375,533.0469 185.2813,533.0469 Q185.9063,533.0469 186.5,532.7813 Q187.0938,532.5 187.7188,531.9219 L187.7188,534.6406 Z " fill="#000000"/><text fill="#000000" font-family="sans-serif" font-size="12" lengthAdjust="spacing" textLength="40" x="205.25" y="533.1543">Lehrer</text><line style="stroke:#A80036;stroke-width:1.5;" x1="8" x2="410" y1="545" y2="545"/><rect fill="none" height="6" style="stroke:#C82930;stroke-width:1.0;" width="6" x="15" y="553"/><text fill="#000000" font-family="sans-serif" font-size="11" lengthAdjust="spacing" textLength="112" x="27" y="559.2104">fachbereich : String</text><line style="stroke:#A80036;stroke-width:1.5;" x1="8" x2="410" y1="565.8047" y2="565.8047"/><ellipse cx="18" cy="576.8047" fill="#84BE84" rx="3" ry="3" style="stroke:#038048;stroke-width:1.0;"/><text fill="#000000" font-family="sans-serif" font-size="11" lengthAdjust="spacing" textLength="254" x="27" y="580.0151">Lehrer(String nachname, String fachbereich)</text><ellipse cx="18" cy="589.6094" fill="#84BE84" rx="3" ry="3" style="stroke:#038048;stroke-width:1.0;"/><text fill="#000000" font-family="sans-serif" font-size="11" lengthAdjust="spacing" textLength="266" x="27" y="592.8198">Lehrer(String nachname, int personalnummer)</text><ellipse cx="18" cy="602.4141" fill="#84BE84" rx="3" ry="3" style="stroke:#038048;stroke-width:1.0;"/><text fill="#000000" font-family="sans-serif" font-size="11" lengthAdjust="spacing" textLength="378" x="27" y="605.6245">Lehrer(String nachname, int personalnummer, String fachbereich)</text><ellipse cx="18" cy="615.2188" fill="#84BE84" rx="3" ry="3" style="stroke:#038048;stroke-width:1.0;"/><text fill="#000000" font-family="sans-serif" font-size="11" lengthAdjust="spacing" textLength="140" x="27" y="618.4292">getFachbereich() : String</text><ellipse cx="18" cy="628.0234" fill="#84BE84" rx="3" ry="3" style="stroke:#038048;stroke-width:1.0;"/><text fill="#000000" font-family="sans-serif" font-size="11" lengthAdjust="spacing" textLength="233" x="27" y="631.2339">setFachbereich(String fachbereich) : void</text><ellipse cx="18" cy="640.8281" fill="#84BE84" rx="3" ry="3" style="stroke:#038048;stroke-width:1.0;"/><text fill="#000000" font-family="sans-serif" font-size="11" lengthAdjust="spacing" textLength="110" x="27" y="644.0386">vorstellen() : String</text><ellipse cx="18" cy="653.6328" fill="#84BE84" rx="3" ry="3" style="stroke:#038048;stroke-width:1.0;"/><text fill="#000000" font-family="sans-serif" font-size="11" lengthAdjust="spacing" textLength="99" x="27" y="656.8433">toString() : String</text><!--MD5=[3b163f382fcb0a60af2759cb55ad0fea]
class Angestellte--><rect codeLine="38" fill="#FEFECE" filter="url(#f1qfch556esgmd)" height="137.6328" id="Angestellte" style="stroke:#A80036;stroke-width:1.5;" width="319" x="446.5" y="519"/><ellipse cx="566.25" cy="535" fill="#ADD1B2" rx="11" ry="11" style="stroke:#A80036;stroke-width:1.0;"/><path d="M569.2188,540.6406 Q568.6406,540.9375 568,541.0781 Q567.3594,541.2344 566.6563,541.2344 Q564.1563,541.2344 562.8281,539.5938 Q561.5156,537.9375 561.5156,534.8125 Q561.5156,531.6875 562.8281,530.0313 Q564.1563,528.375 566.6563,528.375 Q567.3594,528.375 568,528.5313 Q568.6563,528.6875 569.2188,528.9844 L569.2188,531.7031 Q568.5938,531.125 568,530.8594 Q567.4063,530.5781 566.7813,530.5781 Q565.4375,530.5781 564.75,531.6563 Q564.0625,532.7188 564.0625,534.8125 Q564.0625,536.9063 564.75,537.9844 Q565.4375,539.0469 566.7813,539.0469 Q567.4063,539.0469 568,538.7813 Q568.5938,538.5 569.2188,537.9219 L569.2188,540.6406 Z " fill="#000000"/><text fill="#000000" font-family="sans-serif" font-size="12" lengthAdjust="spacing" textLength="71" x="586.75" y="539.1543">Angestellte</text><line style="stroke:#A80036;stroke-width:1.5;" x1="447.5" x2="764.5" y1="551" y2="551"/><rect fill="none" height="6" style="stroke:#C82930;stroke-width:1.0;" width="6" x="454.5" y="559"/><text fill="#000000" font-family="sans-serif" font-size="11" lengthAdjust="spacing" textLength="125" x="466.5" y="565.2104">schulleitung : boolean</text><line style="stroke:#A80036;stroke-width:1.5;" x1="447.5" x2="764.5" y1="571.8047" y2="571.8047"/><ellipse cx="457.5" cy="582.8047" fill="#84BE84" rx="3" ry="3" style="stroke:#038048;stroke-width:1.0;"/><text fill="#000000" font-family="sans-serif" font-size="11" lengthAdjust="spacing" textLength="168" x="466.5" y="586.0151">Angestellte(String nachname)</text><ellipse cx="457.5" cy="595.6094" fill="#84BE84" rx="3" ry="3" style="stroke:#038048;stroke-width:1.0;"/><text fill="#000000" font-family="sans-serif" font-size="11" lengthAdjust="spacing" textLength="293" x="466.5" y="598.8198">Angestellte(String nachname, int personalNummer)</text><ellipse cx="457.5" cy="608.4141" fill="#84BE84" rx="3" ry="3" style="stroke:#038048;stroke-width:1.0;"/><text fill="#000000" font-family="sans-serif" font-size="11" lengthAdjust="spacing" textLength="247" x="466.5" y="611.6245">setSchulleitung(boolean schulleitung) : void</text><ellipse cx="457.5" cy="621.2188" fill="#84BE84" rx="3" ry="3" style="stroke:#038048;stroke-width:1.0;"/><text fill="#000000" font-family="sans-serif" font-size="11" lengthAdjust="spacing" textLength="144" x="466.5" y="624.4292">isSchulleitung() : boolean</text><ellipse cx="457.5" cy="634.0234" fill="#84BE84" rx="3" ry="3" style="stroke:#038048;stroke-width:1.0;"/><text fill="#000000" font-family="sans-serif" font-size="11" lengthAdjust="spacing" textLength="110" x="466.5" y="637.2339">vorstellen() : String</text><ellipse cx="457.5" cy="646.8281" fill="#84BE84" rx="3" ry="3" style="stroke:#038048;stroke-width:1.0;"/><text fill="#000000" font-family="sans-serif" font-size="11" lengthAdjust="spacing" textLength="99" x="466.5" y="650.0386">toString() : String</text><!--MD5=[e0c77432632b1b568746454dd033b200]
class Lernende--><rect codeLine="47" fill="#FEFECE" filter="url(#f1qfch556esgmd)" height="137.6328" id="Lernende" style="stroke:#A80036;stroke-width:1.5;" width="202" x="601" y="292"/><ellipse cx="668.25" cy="308" fill="#ADD1B2" rx="11" ry="11" style="stroke:#A80036;stroke-width:1.0;"/><path d="M671.2188,313.6406 Q670.6406,313.9375 670,314.0781 Q669.3594,314.2344 668.6563,314.2344 Q666.1563,314.2344 664.8281,312.5938 Q663.5156,310.9375 663.5156,307.8125 Q663.5156,304.6875 664.8281,303.0313 Q666.1563,301.375 668.6563,301.375 Q669.3594,301.375 670,301.5313 Q670.6563,301.6875 671.2188,301.9844 L671.2188,304.7031 Q670.5938,304.125 670,303.8594 Q669.4063,303.5781 668.7813,303.5781 Q667.4375,303.5781 666.75,304.6563 Q666.0625,305.7188 666.0625,307.8125 Q666.0625,309.9063 666.75,310.9844 Q667.4375,312.0469 668.7813,312.0469 Q669.4063,312.0469 670,311.7813 Q670.5938,311.5 671.2188,310.9219 L671.2188,313.6406 Z " fill="#000000"/><text fill="#000000" font-family="sans-serif" font-size="12" lengthAdjust="spacing" textLength="59" x="688.75" y="312.1543">Lernende</text><line style="stroke:#A80036;stroke-width:1.5;" x1="602" x2="802" y1="324" y2="324"/><rect fill="none" height="6" style="stroke:#C82930;stroke-width:1.0;" width="6" x="609" y="332"/><text fill="#000000" font-family="sans-serif" font-size="11" lengthAdjust="spacing" textLength="74" x="621" y="338.2104">nummer : int</text><line style="stroke:#A80036;stroke-width:1.5;" x1="602" x2="802" y1="344.8047" y2="344.8047"/><ellipse cx="612" cy="355.8047" fill="#84BE84" rx="3" ry="3" style="stroke:#038048;stroke-width:1.0;"/><text fill="#000000" font-family="sans-serif" font-size="11" lengthAdjust="spacing" textLength="158" x="621" y="359.0151">Lernende(String nachname)</text><ellipse cx="612" cy="368.6094" fill="#84BE84" rx="3" ry="3" style="stroke:#038048;stroke-width:1.0;"/><text fill="#000000" font-family="sans-serif" font-size="11" lengthAdjust="spacing" textLength="176" x="621" y="371.8198">setNummer(int nummer) : void</text><ellipse cx="612" cy="381.4141" fill="#84BE84" rx="3" ry="3" style="stroke:#038048;stroke-width:1.0;"/><text fill="#000000" font-family="sans-serif" font-size="11" lengthAdjust="spacing" textLength="101" x="621" y="384.6245">getNummer() : int</text><ellipse cx="612" cy="394.2188" fill="#84BE84" rx="3" ry="3" style="stroke:#038048;stroke-width:1.0;"/><text fill="#000000" font-family="sans-serif" font-size="11" lengthAdjust="spacing" textLength="110" x="621" y="397.4292">vorstellen() : String</text><ellipse cx="612" cy="407.0234" fill="#84BE84" rx="3" ry="3" style="stroke:#038048;stroke-width:1.0;"/><text fill="#000000" font-family="sans-serif" font-size="11" lengthAdjust="spacing" textLength="99" x="621" y="410.2339">toString() : String</text><ellipse cx="612" cy="419.8281" fill="#84BE84" rx="3" ry="3" style="stroke:#038048;stroke-width:1.0;"/><text fill="#000000" font-family="sans-serif" font-size="11" lengthAdjust="spacing" textLength="91" x="621" y="423.0386">hashCode() : int</text><!--MD5=[b55e1fc4f5ed1150be76a7fd4391a706]
reverse link Person to Mitarbeiter--><path codeLine="57" d="M513.5,224.99 C497.2,245.66 480.62,266.68 465.55,285.78 " fill="none" id="Person-backto-Mitarbeiter" style="stroke:#A80036;stroke-width:1.0;"/><polygon fill="none" points="508.01,220.65,525.89,209.28,519,229.32,508.01,220.65" style="stroke:#A80036;stroke-width:1.0;"/><text fill="#000000" font-family="sans-serif" font-size="13" lengthAdjust="spacing" textLength="51" x="502" y="252.0669">extends</text><!--MD5=[9c834ccf53bee16c2f5ff79eb16bfce4]
reverse link Person to Lernende--><path codeLine="58" d="M650.98,227.99 C659.46,249.91 668.03,272.1 675.67,291.86 " fill="none" id="Person-backto-Lernende" style="stroke:#A80036;stroke-width:1.0;"/><polygon fill="none" points="644.44,230.46,643.76,209.28,657.49,225.42,644.44,230.46" style="stroke:#A80036;stroke-width:1.0;"/><text fill="#000000" font-family="sans-serif" font-size="13" lengthAdjust="spacing" textLength="51" x="661" y="252.0669">extends</text><!--MD5=[5f8c01e2d598d3d40cae6158d4529506]
reverse link Mitarbeiter to Lehrer--><path codeLine="59" d="M328.18,451.57 C310.32,471.86 291.54,493.2 274.31,512.78 " fill="none" id="Mitarbeiter-backto-Lehrer" style="stroke:#A80036;stroke-width:1.0;"/><polygon fill="none" points="323.15,446.69,341.62,436.3,333.66,455.94,323.15,446.69" style="stroke:#A80036;stroke-width:1.0;"/><text fill="#000000" font-family="sans-serif" font-size="13" lengthAdjust="spacing" textLength="51" x="315" y="479.0669">extends</text><!--MD5=[cb25b1e4020e44f278560a480684987c]
reverse link Mitarbeiter to Angestellte--><path codeLine="60" d="M486.22,451.57 C506.05,473.99 527,497.68 545.74,518.86 " fill="none" id="Mitarbeiter-backto-Angestellte" style="stroke:#A80036;stroke-width:1.0;"/><polygon fill="none" points="480.72,455.92,472.71,436.3,491.21,446.64,480.72,455.92" style="stroke:#A80036;stroke-width:1.0;"/><text fill="#000000" font-family="sans-serif" font-size="13" lengthAdjust="spacing" textLength="51" x="514" y="479.0669">extends</text><!--MD5=[cc8f708f1950b2f27fc9b06395f2edb7]
reverse link Person to Person--><path codeLine="62" d="M740.06,86.89 C753.47,91.11 762,98.15 762,108 C762,120.74 747.74,128.77 727.11,132.1 " fill="none" id="Person-backto-Person" style="stroke:#A80036;stroke-width:1.0;"/><polygon fill="none" points="727.11,83.9,732.0552,89.1484,738.8018,86.6022,733.8566,81.3538,727.11,83.9" style="stroke:#A80036;stroke-width:1.0;"/><text fill="#000000" font-family="sans-serif" font-size="13" lengthAdjust="spacing" textLength="8" x="735.1889" y="78.9578">1</text><!--MD5=[7ee204886a8aa622af7323ab3502a7b3]
@startuml
class App {
    + main(String[] args) : void
}
class Person {
    # nachname : String
    - ehepartner : Person
    # Person(String nachname)
    + setNachname(String nachname) : void
    + getNachname() : String
    + vorstellen() : String
    # heiraten(Person ehepartner) : void
    # scheiden() : void
    + toString() : String
    + hashCode() : int
    + equals(Object obj) : boolean
    + hashCode() : int
}
class Mitarbeiter {
    # personalNummer : int
    # Mitarbeiter(String nachname, int personalNummer)
    # Mitarbeiter(String nachname)
    + setPersonalNummer(int personalNummer) : void
    + getPersonalNummer() : int
    + vorstellen() : String
    + toString() : String
    + hashCode() : int
}
class Lehrer {
    - fachbereich : String
    + Lehrer(String nachname, String fachbereich)
    + Lehrer(String nachname, int personalnummer)
    + Lehrer(String nachname, int personalnummer, String fachbereich)
    + getFachbereich() : String 
    + setFachbereich(String fachbereich) : void
    + vorstellen() : String
    + toString() : String
}
class Angestellte {
    - schulleitung : boolean
    + Angestellte(String nachname)
    + Angestellte(String nachname, int personalNummer)
    + setSchulleitung(boolean schulleitung) : void
    + isSchulleitung() : boolean
    + vorstellen() : String
    + toString() : String
}
class Lernende {
    - nummer : int 
    + Lernende(String nachname)
    + setNummer(int nummer) : void
    + getNummer() : int
    + vorstellen() : String
    + toString() : String
    + hashCode() : int
}

Person <|- - Mitarbeiter : "extends"
Person <|- - Lernende : "extends"
Mitarbeiter <|- - Lehrer : "extends"
Mitarbeiter <|- - Angestellte : "extends"

Person "1" o- - Person
@enduml

PlantUML version 1.2022.1(Tue Feb 01 18:19:58 UTC 2022)
(GPL source distribution)
Java Runtime: OpenJDK Runtime Environment
JVM: OpenJDK 64-Bit Server VM
Default Encoding: UTF-8
Language: en
Country: null
--></g></svg>