<?xml version="1.0" encoding="UTF-8" standalone="no"?><svg xmlns="http://www.w3.org/2000/svg" xmlns:xlink="http://www.w3.org/1999/xlink" contentScriptType="application/ecmascript" contentStyleType="text/css" height="766px" preserveAspectRatio="none" style="width:839px;height:766px;" version="1.1" viewBox="0 0 839 766" width="839px" zoomAndPan="magnify"><defs><filter height="300%" id="f1re4c2ljivyg1" width="300%" x="-1" y="-1"><feGaussianBlur result="blurOut" stdDeviation="2.0"/><feColorMatrix in="blurOut" result="blurOut2" type="matrix" values="0 0 0 0 0 0 0 0 0 0 0 0 0 0 0 0 0 0 .4 0"/><feOffset dx="4.0" dy="4.0" in="blurOut2" result="blurOut3"/><feBlend in="SourceGraphic" in2="blurOut3" mode="normal"/></filter></defs><g><!--MD5=[335f4d9be48430461c68bf6d6fdba145]
class App--><rect codeLine="1" fill="#FEFECE" filter="url(#f1re4c2ljivyg1)" height="60.8047" id="App" style="stroke:#A80036;stroke-width:1.5;" width="166" x="81.5" y="99.5"/><ellipse cx="148.25" cy="115.5" fill="#ADD1B2" rx="11" ry="11" style="stroke:#A80036;stroke-width:1.0;"/><path d="M150.5938,111.1719 C149.6563,110.7344 149.0625,110.5938 148.1875,110.5938 C145.5625,110.5938 143.5625,112.6719 143.5625,115.3906 L143.5625,116.5156 C143.5625,119.0938 145.6719,120.9844 148.5625,120.9844 C149.7813,120.9844 150.9375,120.6875 151.6875,120.1406 C152.2656,119.7344 152.5938,119.2813 152.5938,118.8906 C152.5938,118.4375 152.2031,118.0469 151.7344,118.0469 C151.5156,118.0469 151.3125,118.125 151.125,118.3125 C150.6719,118.7969 150.6719,118.7969 150.4844,118.8906 C150.0625,119.1563 149.375,119.2813 148.6094,119.2813 C146.5625,119.2813 145.2656,118.1875 145.2656,116.4844 L145.2656,115.3906 C145.2656,113.6094 146.5156,112.2969 148.25,112.2969 C148.8281,112.2969 149.4375,112.4531 149.9063,112.7031 C150.3906,112.9844 150.5625,113.2031 150.6563,113.6094 C150.7188,114.0156 150.75,114.1406 150.8906,114.2656 C151.0313,114.4063 151.2656,114.5156 151.4844,114.5156 C151.75,114.5156 152.0156,114.375 152.1875,114.1563 C152.2969,114 152.3281,113.8125 152.3281,113.3906 L152.3281,111.9688 C152.3281,111.5313 152.3125,111.4063 152.2188,111.25 C152.0625,110.9844 151.7813,110.8438 151.4844,110.8438 C151.1875,110.8438 150.9844,110.9375 150.7656,111.25 L150.5938,111.1719 Z " fill="#000000"/><text fill="#000000" font-family="sans-serif" font-size="12" lengthAdjust="spacing" textLength="24" x="168.75" y="119.6543">App</text><line style="stroke:#A80036;stroke-width:1.5;" x1="82.5" x2="246.5" y1="131.5" y2="131.5"/><line style="stroke:#A80036;stroke-width:1.5;" x1="82.5" x2="246.5" y1="139.5" y2="139.5"/><ellipse cx="92.5" cy="150.5" fill="#84BE84" rx="3" ry="3" style="stroke:#038048;stroke-width:1.0;"/><text fill="#000000" font-family="sans-serif" font-size="11" lengthAdjust="spacing" textLength="140" x="101.5" y="153.7104">main(String[] args) : void</text><!--MD5=[939598fe90a965a637042066a6c7a538]
class Eatable--><rect codeLine="6" fill="#FEFECE" filter="url(#f1re4c2ljivyg1)" height="73.6094" id="Eatable" style="stroke:#A80036;stroke-width:1.5;" width="140" x="72.5" y="384"/><ellipse cx="115.85" cy="400" fill="#B4A7E5" rx="11" ry="11" style="stroke:#A80036;stroke-width:1.0;"/><path d="M116.8031,396.7813 L118.5219,396.7813 C118.9125,396.7813 119.1,396.75 119.225,396.6719 C119.4906,396.5156 119.6313,396.2344 119.6313,395.9375 C119.6313,395.6719 119.5219,395.4063 119.2875,395.2344 C119.1156,395.125 118.975,395.0938 118.5219,395.0938 L113.3813,395.0938 C112.9438,395.0938 112.8188,395.1094 112.6625,395.2031 C112.4125,395.3594 112.2563,395.6563 112.2563,395.9375 C112.2563,396.2188 112.3969,396.4688 112.6156,396.6406 C112.7719,396.75 112.9594,396.7813 113.3813,396.7813 L115.1,396.7813 L115.1,403.2969 L113.3813,403.2969 C112.9438,403.2969 112.8188,403.3125 112.6625,403.4219 C112.4125,403.5781 112.2563,403.8594 112.2563,404.1563 C112.2563,404.4063 112.3969,404.6719 112.6156,404.8281 C112.7719,404.9531 112.975,405 113.3813,405 L118.5219,405 C119.2719,405 119.6313,404.7188 119.6313,404.1563 C119.6313,403.875 119.5219,403.625 119.2875,403.4531 C119.1156,403.3281 118.975,403.2969 118.5219,403.2969 L116.8031,403.2969 L116.8031,396.7813 Z " fill="#000000"/><text fill="#000000" font-family="sans-serif" font-size="12" font-style="italic" lengthAdjust="spacing" textLength="45" x="136.15" y="404.1543">Eatable</text><line style="stroke:#A80036;stroke-width:1.5;" x1="73.5" x2="211.5" y1="416" y2="416"/><line style="stroke:#A80036;stroke-width:1.5;" x1="73.5" x2="211.5" y1="424" y2="424"/><ellipse cx="83.5" cy="435" fill="#84BE84" rx="3" ry="3" style="stroke:#038048;stroke-width:1.0;"/><text fill="#000000" font-family="sans-serif" font-size="11" lengthAdjust="spacing" textLength="86" x="92.5" y="438.2104">inKantine() : int</text><ellipse cx="83.5" cy="447.8047" fill="#84BE84" rx="3" ry="3" style="stroke:#038048;stroke-width:1.0;"/><text fill="#000000" font-family="sans-serif" font-size="11" lengthAdjust="spacing" textLength="114" x="92.5" y="451.0151">Bewertung() : String</text><!--MD5=[09ce52be0ee7de43c61b6e2d59bf108b]
class Person--><rect codeLine="11" fill="#FEFECE" filter="url(#f1re4c2ljivyg1)" height="246.0078" id="Person" style="stroke:#A80036;stroke-width:1.5;" width="245" x="283" y="7"/><ellipse cx="371.25" cy="25.9688" fill="#ADD1B2" rx="11" ry="11" style="stroke:#A80036;stroke-width:1.0;"/><path d="M373.5938,21.6406 C372.6563,21.2031 372.0625,21.0625 371.1875,21.0625 C368.5625,21.0625 366.5625,23.1406 366.5625,25.8594 L366.5625,26.9844 C366.5625,29.5625 368.6719,31.4531 371.5625,31.4531 C372.7813,31.4531 373.9375,31.1563 374.6875,30.6094 C375.2656,30.2031 375.5938,29.75 375.5938,29.3594 C375.5938,28.9063 375.2031,28.5156 374.7344,28.5156 C374.5156,28.5156 374.3125,28.5938 374.125,28.7813 C373.6719,29.2656 373.6719,29.2656 373.4844,29.3594 C373.0625,29.625 372.375,29.75 371.6094,29.75 C369.5625,29.75 368.2656,28.6563 368.2656,26.9531 L368.2656,25.8594 C368.2656,24.0781 369.5156,22.7656 371.25,22.7656 C371.8281,22.7656 372.4375,22.9219 372.9063,23.1719 C373.3906,23.4531 373.5625,23.6719 373.6563,24.0781 C373.7188,24.4844 373.75,24.6094 373.8906,24.7344 C374.0313,24.875 374.2656,24.9844 374.4844,24.9844 C374.75,24.9844 375.0156,24.8438 375.1875,24.625 C375.2969,24.4688 375.3281,24.2813 375.3281,23.8594 L375.3281,22.4375 C375.3281,22 375.3125,21.875 375.2188,21.7188 C375.0625,21.4531 374.7813,21.3125 374.4844,21.3125 C374.1875,21.3125 373.9844,21.4063 373.7656,21.7188 L373.5938,21.6406 Z " fill="#000000"/><text fill="#000000" font-family="sans-serif" font-size="12" font-style="italic" lengthAdjust="spacing" textLength="64" x="389.75" y="23.1387">«abstract»</text><text fill="#000000" font-family="sans-serif" font-size="12" lengthAdjust="spacing" textLength="41" x="401.25" y="37.1074">Person</text><line style="stroke:#A80036;stroke-width:1.5;" x1="284" x2="527" y1="44.9375" y2="44.9375"/><polygon fill="none" points="294,50.9375,298,54.9375,294,58.9375,290,54.9375" style="stroke:#B38D22;stroke-width:1.0;"/><text fill="#000000" font-family="sans-serif" font-size="11" lengthAdjust="spacing" textLength="104" x="303" y="59.1479">nachname : String</text><rect fill="none" height="6" style="stroke:#C82930;stroke-width:1.0;" width="6" x="291" y="65.7422"/><text fill="#000000" font-family="sans-serif" font-size="11" lengthAdjust="spacing" textLength="113" x="303" y="71.9526">ehepartner : Person</text><polygon fill="none" points="294,76.5469,298,80.5469,294,84.5469,290,80.5469" style="stroke:#B38D22;stroke-width:1.0;"/><text fill="#000000" font-family="sans-serif" font-size="11" lengthAdjust="spacing" text-decoration="underline" textLength="101" x="303" y="84.7573">MINPREIS : double</text><line style="stroke:#A80036;stroke-width:1.5;" x1="284" x2="527" y1="91.3516" y2="91.3516"/><polygon fill="#FFFF44" points="294,97.3516,298,101.3516,294,105.3516,290,101.3516" style="stroke:#B38D22;stroke-width:1.0;"/><text fill="#000000" font-family="sans-serif" font-size="11" lengthAdjust="spacing" textLength="143" x="303" y="105.562">Person(String nachname)</text><ellipse cx="294" cy="115.1563" fill="#84BE84" rx="3" ry="3" style="stroke:#038048;stroke-width:1.0;"/><text fill="#000000" font-family="sans-serif" font-size="11" lengthAdjust="spacing" textLength="219" x="303" y="118.3667">setNachname(String nachname) : void</text><ellipse cx="294" cy="127.9609" fill="#84BE84" rx="3" ry="3" style="stroke:#038048;stroke-width:1.0;"/><text fill="#000000" font-family="sans-serif" font-size="11" lengthAdjust="spacing" textLength="132" x="303" y="131.1714">getNachname() : String</text><ellipse cx="294" cy="140.7656" fill="#84BE84" rx="3" ry="3" style="stroke:#038048;stroke-width:1.0;"/><text fill="#000000" font-family="sans-serif" font-size="11" lengthAdjust="spacing" textLength="109" x="303" y="143.9761">vorstellen() : String</text><polygon fill="#FFFF44" points="294,148.5703,298,152.5703,294,156.5703,290,152.5703" style="stroke:#B38D22;stroke-width:1.0;"/><text fill="#000000" font-family="sans-serif" font-size="11" lengthAdjust="spacing" textLength="197" x="303" y="156.7808">heiraten(Person ehepartner) : void</text><polygon fill="#FFFF44" points="294,161.375,298,165.375,294,169.375,290,165.375" style="stroke:#B38D22;stroke-width:1.0;"/><text fill="#000000" font-family="sans-serif" font-size="11" lengthAdjust="spacing" textLength="95" x="303" y="169.5854">scheiden() : void</text><ellipse cx="294" cy="179.1797" fill="#84BE84" rx="3" ry="3" style="stroke:#038048;stroke-width:1.0;"/><text fill="#000000" font-family="sans-serif" font-size="11" lengthAdjust="spacing" textLength="86" x="303" y="182.3901">inKantine() : int</text><ellipse cx="294" cy="191.9844" fill="#84BE84" rx="3" ry="3" style="stroke:#038048;stroke-width:1.0;"/><text fill="#000000" font-family="sans-serif" font-size="11" lengthAdjust="spacing" textLength="176" x="303" y="195.1948">Bewertung(Object wer) : String</text><ellipse cx="294" cy="204.7891" fill="#84BE84" rx="3" ry="3" style="stroke:#038048;stroke-width:1.0;"/><text fill="#000000" font-family="sans-serif" font-size="11" lengthAdjust="spacing" textLength="161" x="303" y="207.9995">equals(Object obj) : boolean</text><ellipse cx="294" cy="217.5938" fill="#84BE84" rx="3" ry="3" style="stroke:#038048;stroke-width:1.0;"/><text fill="#000000" font-family="sans-serif" font-size="11" lengthAdjust="spacing" textLength="90" x="303" y="220.8042">hashCode() : int</text><ellipse cx="294" cy="230.3984" fill="#84BE84" rx="3" ry="3" style="stroke:#038048;stroke-width:1.0;"/><text fill="#000000" font-family="sans-serif" font-size="11" lengthAdjust="spacing" textLength="96" x="303" y="233.6089">toString() : String</text><ellipse cx="294" cy="243.2031" fill="#84BE84" rx="3" ry="3" style="stroke:#038048;stroke-width:1.0;"/><text fill="#000000" font-family="sans-serif" font-size="11" font-style="italic" lengthAdjust="spacing" textLength="199" x="303" y="246.4136">kantineKonsum(int anzahl) : double</text><!--MD5=[cf50a5de139d8ee8ab91969acb1dc454]
class Mitarbeiter--><rect codeLine="28" fill="#FEFECE" filter="url(#f1re4c2ljivyg1)" height="181.9844" id="Mitarbeiter" style="stroke:#A80036;stroke-width:1.5;" width="315" x="248" y="330"/><ellipse cx="368.75" cy="348.9688" fill="#ADD1B2" rx="11" ry="11" style="stroke:#A80036;stroke-width:1.0;"/><path d="M371.0938,344.6406 C370.1563,344.2031 369.5625,344.0625 368.6875,344.0625 C366.0625,344.0625 364.0625,346.1406 364.0625,348.8594 L364.0625,349.9844 C364.0625,352.5625 366.1719,354.4531 369.0625,354.4531 C370.2813,354.4531 371.4375,354.1563 372.1875,353.6094 C372.7656,353.2031 373.0938,352.75 373.0938,352.3594 C373.0938,351.9063 372.7031,351.5156 372.2344,351.5156 C372.0156,351.5156 371.8125,351.5938 371.625,351.7813 C371.1719,352.2656 371.1719,352.2656 370.9844,352.3594 C370.5625,352.625 369.875,352.75 369.1094,352.75 C367.0625,352.75 365.7656,351.6563 365.7656,349.9531 L365.7656,348.8594 C365.7656,347.0781 367.0156,345.7656 368.75,345.7656 C369.3281,345.7656 369.9375,345.9219 370.4063,346.1719 C370.8906,346.4531 371.0625,346.6719 371.1563,347.0781 C371.2188,347.4844 371.25,347.6094 371.3906,347.7344 C371.5313,347.875 371.7656,347.9844 371.9844,347.9844 C372.25,347.9844 372.5156,347.8438 372.6875,347.625 C372.7969,347.4688 372.8281,347.2813 372.8281,346.8594 L372.8281,345.4375 C372.8281,345 372.8125,344.875 372.7188,344.7188 C372.5625,344.4531 372.2813,344.3125 371.9844,344.3125 C371.6875,344.3125 371.4844,344.4063 371.2656,344.7188 L371.0938,344.6406 Z " fill="#000000"/><text fill="#000000" font-family="sans-serif" font-size="12" font-style="italic" lengthAdjust="spacing" textLength="64" x="389.75" y="346.1387">«abstract»</text><text fill="#000000" font-family="sans-serif" font-size="12" lengthAdjust="spacing" textLength="65" x="389.25" y="360.1074">Mitarbeiter</text><line style="stroke:#A80036;stroke-width:1.5;" x1="249" x2="562" y1="367.9375" y2="367.9375"/><polygon fill="none" points="259,373.9375,263,377.9375,259,381.9375,255,377.9375" style="stroke:#B38D22;stroke-width:1.0;"/><text fill="#000000" font-family="sans-serif" font-size="11" lengthAdjust="spacing" textLength="123" x="268" y="382.1479">personalNummer : int</text><line style="stroke:#A80036;stroke-width:1.5;" x1="249" x2="562" y1="388.7422" y2="388.7422"/><polygon fill="#FFFF44" points="259,394.7422,263,398.7422,259,402.7422,255,398.7422" style="stroke:#B38D22;stroke-width:1.0;"/><text fill="#000000" font-family="sans-serif" font-size="11" lengthAdjust="spacing" textLength="289" x="268" y="402.9526">Mitarbeiter(String nachname, int personalNummer)</text><polygon fill="#FFFF44" points="259,407.5469,263,411.5469,259,415.5469,255,411.5469" style="stroke:#B38D22;stroke-width:1.0;"/><text fill="#000000" font-family="sans-serif" font-size="11" lengthAdjust="spacing" textLength="166" x="268" y="415.7573">Mitarbeiter(String nachname)</text><ellipse cx="259" cy="425.3516" fill="#84BE84" rx="3" ry="3" style="stroke:#038048;stroke-width:1.0;"/><text fill="#000000" font-family="sans-serif" font-size="11" lengthAdjust="spacing" textLength="274" x="268" y="428.562">setPersonalNummer(int personalNummer) : void</text><ellipse cx="259" cy="438.1563" fill="#84BE84" rx="3" ry="3" style="stroke:#038048;stroke-width:1.0;"/><text fill="#000000" font-family="sans-serif" font-size="11" lengthAdjust="spacing" textLength="149" x="268" y="441.3667">getPersonalNummer() : int</text><ellipse cx="259" cy="450.9609" fill="#84BE84" rx="3" ry="3" style="stroke:#038048;stroke-width:1.0;"/><text fill="#000000" font-family="sans-serif" font-size="11" lengthAdjust="spacing" textLength="109" x="268" y="454.1714">vorstellen() : String</text><ellipse cx="259" cy="463.7656" fill="#84BE84" rx="3" ry="3" style="stroke:#038048;stroke-width:1.0;"/><text fill="#000000" font-family="sans-serif" font-size="11" lengthAdjust="spacing" textLength="96" x="268" y="466.9761">toString() : String</text><ellipse cx="259" cy="476.5703" fill="#84BE84" rx="3" ry="3" style="stroke:#038048;stroke-width:1.0;"/><text fill="#000000" font-family="sans-serif" font-size="11" lengthAdjust="spacing" textLength="90" x="268" y="479.7808">hashCode() : int</text><ellipse cx="259" cy="489.375" fill="#84BE84" rx="3" ry="3" style="stroke:#038048;stroke-width:1.0;"/><text fill="#000000" font-family="sans-serif" font-size="11" lengthAdjust="spacing" textLength="86" x="268" y="492.5854">inKantine() : int</text><ellipse cx="259" cy="502.1797" fill="#84BE84" rx="3" ry="3" style="stroke:#038048;stroke-width:1.0;"/><text fill="#000000" font-family="sans-serif" font-size="11" lengthAdjust="spacing" textLength="114" x="268" y="505.3901">Bewertung() : String</text><!--MD5=[b68af693cf60e945a9cb87ea33cffb44]
class Lehrer--><rect codeLine="40" fill="#FEFECE" filter="url(#f1re4c2ljivyg1)" height="163.2422" id="Lehrer" style="stroke:#A80036;stroke-width:1.5;" width="401" x="7" y="589"/><ellipse cx="183.75" cy="605" fill="#ADD1B2" rx="11" ry="11" style="stroke:#A80036;stroke-width:1.0;"/><path d="M186.0938,600.6719 C185.1563,600.2344 184.5625,600.0938 183.6875,600.0938 C181.0625,600.0938 179.0625,602.1719 179.0625,604.8906 L179.0625,606.0156 C179.0625,608.5938 181.1719,610.4844 184.0625,610.4844 C185.2813,610.4844 186.4375,610.1875 187.1875,609.6406 C187.7656,609.2344 188.0938,608.7813 188.0938,608.3906 C188.0938,607.9375 187.7031,607.5469 187.2344,607.5469 C187.0156,607.5469 186.8125,607.625 186.625,607.8125 C186.1719,608.2969 186.1719,608.2969 185.9844,608.3906 C185.5625,608.6563 184.875,608.7813 184.1094,608.7813 C182.0625,608.7813 180.7656,607.6875 180.7656,605.9844 L180.7656,604.8906 C180.7656,603.1094 182.0156,601.7969 183.75,601.7969 C184.3281,601.7969 184.9375,601.9531 185.4063,602.2031 C185.8906,602.4844 186.0625,602.7031 186.1563,603.1094 C186.2188,603.5156 186.25,603.6406 186.3906,603.7656 C186.5313,603.9063 186.7656,604.0156 186.9844,604.0156 C187.25,604.0156 187.5156,603.875 187.6875,603.6563 C187.7969,603.5 187.8281,603.3125 187.8281,602.8906 L187.8281,601.4688 C187.8281,601.0313 187.8125,600.9063 187.7188,600.75 C187.5625,600.4844 187.2813,600.3438 186.9844,600.3438 C186.6875,600.3438 186.4844,600.4375 186.2656,600.75 L186.0938,600.6719 Z " fill="#000000"/><text fill="#000000" font-family="sans-serif" font-size="12" lengthAdjust="spacing" textLength="39" x="204.25" y="609.1543">Lehrer</text><line style="stroke:#A80036;stroke-width:1.5;" x1="8" x2="407" y1="621" y2="621"/><rect fill="none" height="6" style="stroke:#C82930;stroke-width:1.0;" width="6" x="15" y="629"/><text fill="#000000" font-family="sans-serif" font-size="11" lengthAdjust="spacing" textLength="111" x="27" y="635.2104">fachbereich : String</text><line style="stroke:#A80036;stroke-width:1.5;" x1="8" x2="407" y1="641.8047" y2="641.8047"/><ellipse cx="18" cy="652.8047" fill="#84BE84" rx="3" ry="3" style="stroke:#038048;stroke-width:1.0;"/><text fill="#000000" font-family="sans-serif" font-size="11" lengthAdjust="spacing" textLength="253" x="27" y="656.0151">Lehrer(String nachname, String fachbereich)</text><ellipse cx="18" cy="665.6094" fill="#84BE84" rx="3" ry="3" style="stroke:#038048;stroke-width:1.0;"/><text fill="#000000" font-family="sans-serif" font-size="11" lengthAdjust="spacing" textLength="264" x="27" y="668.8198">Lehrer(String nachname, int personalnummer)</text><ellipse cx="18" cy="678.4141" fill="#84BE84" rx="3" ry="3" style="stroke:#038048;stroke-width:1.0;"/><text fill="#000000" font-family="sans-serif" font-size="11" lengthAdjust="spacing" textLength="375" x="27" y="681.6245">Lehrer(String nachname, int personalnummer, String fachbereich)</text><ellipse cx="18" cy="691.2188" fill="#84BE84" rx="3" ry="3" style="stroke:#038048;stroke-width:1.0;"/><text fill="#000000" font-family="sans-serif" font-size="11" lengthAdjust="spacing" textLength="140" x="27" y="694.4292">getFachbereich() : String</text><ellipse cx="18" cy="704.0234" fill="#84BE84" rx="3" ry="3" style="stroke:#038048;stroke-width:1.0;"/><text fill="#000000" font-family="sans-serif" font-size="11" lengthAdjust="spacing" textLength="234" x="27" y="707.2339">setFachbereich(String fachbereich) : void</text><ellipse cx="18" cy="716.8281" fill="#84BE84" rx="3" ry="3" style="stroke:#038048;stroke-width:1.0;"/><text fill="#000000" font-family="sans-serif" font-size="11" lengthAdjust="spacing" textLength="109" x="27" y="720.0386">vorstellen() : String</text><ellipse cx="18" cy="729.6328" fill="#84BE84" rx="3" ry="3" style="stroke:#038048;stroke-width:1.0;"/><text fill="#000000" font-family="sans-serif" font-size="11" lengthAdjust="spacing" textLength="201" x="27" y="732.8433">kantineKonsum(int anzahl) : double</text><ellipse cx="18" cy="742.4375" fill="#84BE84" rx="3" ry="3" style="stroke:#038048;stroke-width:1.0;"/><text fill="#000000" font-family="sans-serif" font-size="11" lengthAdjust="spacing" textLength="96" x="27" y="745.6479">toString() : String</text><!--MD5=[3b163f382fcb0a60af2759cb55ad0fea]
class Angestellte--><rect codeLine="51" fill="#FEFECE" filter="url(#f1re4c2ljivyg1)" height="150.4375" id="Angestellte" style="stroke:#A80036;stroke-width:1.5;" width="320" x="443.5" y="595.5"/><ellipse cx="565.25" cy="611.5" fill="#ADD1B2" rx="11" ry="11" style="stroke:#A80036;stroke-width:1.0;"/><path d="M567.5938,607.1719 C566.6563,606.7344 566.0625,606.5938 565.1875,606.5938 C562.5625,606.5938 560.5625,608.6719 560.5625,611.3906 L560.5625,612.5156 C560.5625,615.0938 562.6719,616.9844 565.5625,616.9844 C566.7813,616.9844 567.9375,616.6875 568.6875,616.1406 C569.2656,615.7344 569.5938,615.2813 569.5938,614.8906 C569.5938,614.4375 569.2031,614.0469 568.7344,614.0469 C568.5156,614.0469 568.3125,614.125 568.125,614.3125 C567.6719,614.7969 567.6719,614.7969 567.4844,614.8906 C567.0625,615.1563 566.375,615.2813 565.6094,615.2813 C563.5625,615.2813 562.2656,614.1875 562.2656,612.4844 L562.2656,611.3906 C562.2656,609.6094 563.5156,608.2969 565.25,608.2969 C565.8281,608.2969 566.4375,608.4531 566.9063,608.7031 C567.3906,608.9844 567.5625,609.2031 567.6563,609.6094 C567.7188,610.0156 567.75,610.1406 567.8906,610.2656 C568.0313,610.4063 568.2656,610.5156 568.4844,610.5156 C568.75,610.5156 569.0156,610.375 569.1875,610.1563 C569.2969,610 569.3281,609.8125 569.3281,609.3906 L569.3281,607.9688 C569.3281,607.5313 569.3125,607.4063 569.2188,607.25 C569.0625,606.9844 568.7813,606.8438 568.4844,606.8438 C568.1875,606.8438 567.9844,606.9375 567.7656,607.25 L567.5938,607.1719 Z " fill="#000000"/><text fill="#000000" font-family="sans-serif" font-size="12" lengthAdjust="spacing" textLength="68" x="585.75" y="615.6543">Angestellte</text><line style="stroke:#A80036;stroke-width:1.5;" x1="444.5" x2="762.5" y1="627.5" y2="627.5"/><rect fill="none" height="6" style="stroke:#C82930;stroke-width:1.0;" width="6" x="451.5" y="635.5"/><text fill="#000000" font-family="sans-serif" font-size="11" lengthAdjust="spacing" textLength="125" x="463.5" y="641.7104">schulleitung : boolean</text><line style="stroke:#A80036;stroke-width:1.5;" x1="444.5" x2="762.5" y1="648.3047" y2="648.3047"/><ellipse cx="454.5" cy="659.3047" fill="#84BE84" rx="3" ry="3" style="stroke:#038048;stroke-width:1.0;"/><text fill="#000000" font-family="sans-serif" font-size="11" lengthAdjust="spacing" textLength="171" x="463.5" y="662.5151">Angestellte(String nachname)</text><ellipse cx="454.5" cy="672.1094" fill="#84BE84" rx="3" ry="3" style="stroke:#038048;stroke-width:1.0;"/><text fill="#000000" font-family="sans-serif" font-size="11" lengthAdjust="spacing" textLength="294" x="463.5" y="675.3198">Angestellte(String nachname, int personalNummer)</text><ellipse cx="454.5" cy="684.9141" fill="#84BE84" rx="3" ry="3" style="stroke:#038048;stroke-width:1.0;"/><text fill="#000000" font-family="sans-serif" font-size="11" lengthAdjust="spacing" textLength="249" x="463.5" y="688.1245">setSchulleitung(boolean schulleitung) : void</text><ellipse cx="454.5" cy="697.7188" fill="#84BE84" rx="3" ry="3" style="stroke:#038048;stroke-width:1.0;"/><text fill="#000000" font-family="sans-serif" font-size="11" lengthAdjust="spacing" textLength="144" x="463.5" y="700.9292">isSchulleitung() : boolean</text><ellipse cx="454.5" cy="710.5234" fill="#84BE84" rx="3" ry="3" style="stroke:#038048;stroke-width:1.0;"/><text fill="#000000" font-family="sans-serif" font-size="11" lengthAdjust="spacing" textLength="109" x="463.5" y="713.7339">vorstellen() : String</text><ellipse cx="454.5" cy="723.3281" fill="#84BE84" rx="3" ry="3" style="stroke:#038048;stroke-width:1.0;"/><text fill="#000000" font-family="sans-serif" font-size="11" lengthAdjust="spacing" textLength="96" x="463.5" y="726.5386">toString() : String</text><ellipse cx="454.5" cy="736.1328" fill="#84BE84" rx="3" ry="3" style="stroke:#038048;stroke-width:1.0;"/><text fill="#000000" font-family="sans-serif" font-size="11" lengthAdjust="spacing" textLength="201" x="463.5" y="739.3433">kantineKonsum(int anzahl) : double</text><!--MD5=[e0c77432632b1b568746454dd033b200]
class Lernende--><rect codeLine="61" fill="#FEFECE" filter="url(#f1re4c2ljivyg1)" height="176.0469" id="Lernende" style="stroke:#A80036;stroke-width:1.5;" width="227" x="598" y="333"/><ellipse cx="678.75" cy="349" fill="#ADD1B2" rx="11" ry="11" style="stroke:#A80036;stroke-width:1.0;"/><path d="M681.0938,344.6719 C680.1563,344.2344 679.5625,344.0938 678.6875,344.0938 C676.0625,344.0938 674.0625,346.1719 674.0625,348.8906 L674.0625,350.0156 C674.0625,352.5938 676.1719,354.4844 679.0625,354.4844 C680.2813,354.4844 681.4375,354.1875 682.1875,353.6406 C682.7656,353.2344 683.0938,352.7813 683.0938,352.3906 C683.0938,351.9375 682.7031,351.5469 682.2344,351.5469 C682.0156,351.5469 681.8125,351.625 681.625,351.8125 C681.1719,352.2969 681.1719,352.2969 680.9844,352.3906 C680.5625,352.6563 679.875,352.7813 679.1094,352.7813 C677.0625,352.7813 675.7656,351.6875 675.7656,349.9844 L675.7656,348.8906 C675.7656,347.1094 677.0156,345.7969 678.75,345.7969 C679.3281,345.7969 679.9375,345.9531 680.4063,346.2031 C680.8906,346.4844 681.0625,346.7031 681.1563,347.1094 C681.2188,347.5156 681.25,347.6406 681.3906,347.7656 C681.5313,347.9063 681.7656,348.0156 681.9844,348.0156 C682.25,348.0156 682.5156,347.875 682.6875,347.6563 C682.7969,347.5 682.8281,347.3125 682.8281,346.8906 L682.8281,345.4688 C682.8281,345.0313 682.8125,344.9063 682.7188,344.75 C682.5625,344.4844 682.2813,344.3438 681.9844,344.3438 C681.6875,344.3438 681.4844,344.4375 681.2656,344.75 L681.0938,344.6719 Z " fill="#000000"/><text fill="#000000" font-family="sans-serif" font-size="12" lengthAdjust="spacing" textLength="57" x="699.25" y="353.1543">Lernende</text><line style="stroke:#A80036;stroke-width:1.5;" x1="599" x2="824" y1="365" y2="365"/><rect fill="none" height="6" style="stroke:#C82930;stroke-width:1.0;" width="6" x="606" y="373"/><text fill="#000000" font-family="sans-serif" font-size="11" lengthAdjust="spacing" textLength="73" x="618" y="379.2104">nummer : int</text><line style="stroke:#A80036;stroke-width:1.5;" x1="599" x2="824" y1="385.8047" y2="385.8047"/><ellipse cx="609" cy="396.8047" fill="#84BE84" rx="3" ry="3" style="stroke:#038048;stroke-width:1.0;"/><text fill="#000000" font-family="sans-serif" font-size="11" lengthAdjust="spacing" textLength="160" x="618" y="400.0151">Lernende(String nachname)</text><ellipse cx="609" cy="409.6094" fill="#84BE84" rx="3" ry="3" style="stroke:#038048;stroke-width:1.0;"/><text fill="#000000" font-family="sans-serif" font-size="11" lengthAdjust="spacing" textLength="176" x="618" y="412.8198">setNummer(int nummer) : void</text><ellipse cx="609" cy="422.4141" fill="#84BE84" rx="3" ry="3" style="stroke:#038048;stroke-width:1.0;"/><text fill="#000000" font-family="sans-serif" font-size="11" lengthAdjust="spacing" textLength="101" x="618" y="425.6245">getNummer() : int</text><ellipse cx="609" cy="435.2188" fill="#84BE84" rx="3" ry="3" style="stroke:#038048;stroke-width:1.0;"/><text fill="#000000" font-family="sans-serif" font-size="11" lengthAdjust="spacing" textLength="109" x="618" y="438.4292">vorstellen() : String</text><ellipse cx="609" cy="448.0234" fill="#84BE84" rx="3" ry="3" style="stroke:#038048;stroke-width:1.0;"/><text fill="#000000" font-family="sans-serif" font-size="11" lengthAdjust="spacing" textLength="86" x="618" y="451.2339">inKantine() : int</text><ellipse cx="609" cy="460.8281" fill="#84BE84" rx="3" ry="3" style="stroke:#038048;stroke-width:1.0;"/><text fill="#000000" font-family="sans-serif" font-size="11" lengthAdjust="spacing" textLength="114" x="618" y="464.0386">Bewertung() : String</text><ellipse cx="609" cy="473.6328" fill="#84BE84" rx="3" ry="3" style="stroke:#038048;stroke-width:1.0;"/><text fill="#000000" font-family="sans-serif" font-size="11" lengthAdjust="spacing" textLength="201" x="618" y="476.8433">kantineKonsum(int anzahl) : double</text><ellipse cx="609" cy="486.4375" fill="#84BE84" rx="3" ry="3" style="stroke:#038048;stroke-width:1.0;"/><text fill="#000000" font-family="sans-serif" font-size="11" lengthAdjust="spacing" textLength="96" x="618" y="489.6479">toString() : String</text><ellipse cx="609" cy="499.2422" fill="#84BE84" rx="3" ry="3" style="stroke:#038048;stroke-width:1.0;"/><text fill="#000000" font-family="sans-serif" font-size="11" lengthAdjust="spacing" textLength="90" x="618" y="502.4526">hashCode() : int</text><!--MD5=[b55e1fc4f5ed1150be76a7fd4391a706]
reverse link Person to Mitarbeiter--><path codeLine="74" d="M405.5,273.177 C405.5,292.475 405.5,311.829 405.5,329.861 " fill="none" id="Person-backto-Mitarbeiter" style="stroke:#A80036;stroke-width:1.0;"/><polygon fill="none" points="398.5,273.143,405.5,253.143,412.5,273.143,398.5,273.143" style="stroke:#A80036;stroke-width:1.0;"/><text fill="#000000" font-family="sans-serif" font-size="13" lengthAdjust="spacing" textLength="52" x="406.5" y="296.0669">extends</text><!--MD5=[9c834ccf53bee16c2f5ff79eb16bfce4]
reverse link Person to Lernende--><path codeLine="75" d="M542.845,260.714 C568.595,285.035 594.944,309.919 618.931,332.574 " fill="none" id="Person-backto-Lernende" style="stroke:#A80036;stroke-width:1.0;"/><polygon fill="none" points="537.933,265.704,528.199,246.882,547.545,255.526,537.933,265.704" style="stroke:#A80036;stroke-width:1.0;"/><text fill="#000000" font-family="sans-serif" font-size="13" lengthAdjust="spacing" textLength="52" x="577.5" y="296.0669">extends</text><!--MD5=[5f8c01e2d598d3d40cae6158d4529506]
reverse link Mitarbeiter to Lehrer--><path codeLine="76" d="M320.784,527.895 C304.423,548.346 287.531,569.461 271.945,588.943 " fill="none" id="Mitarbeiter-backto-Lehrer" style="stroke:#A80036;stroke-width:1.0;"/><polygon fill="none" points="315.497,523.298,333.457,512.053,326.43,532.044,315.497,523.298" style="stroke:#A80036;stroke-width:1.0;"/><text fill="#000000" font-family="sans-serif" font-size="13" lengthAdjust="spacing" textLength="52" x="307.5" y="555.0669">extends</text><!--MD5=[cb25b1e4020e44f278560a480684987c]
reverse link Mitarbeiter to Angestellte--><path codeLine="77" d="M490.29,527.988 C508.442,550.677 527.244,574.18 544.188,595.36 " fill="none" id="Mitarbeiter-backto-Angestellte" style="stroke:#A80036;stroke-width:1.0;"/><polygon fill="none" points="484.57,532.044,477.543,512.053,495.503,523.298,484.57,532.044" style="stroke:#A80036;stroke-width:1.0;"/><text fill="#000000" font-family="sans-serif" font-size="13" lengthAdjust="spacing" textLength="52" x="510.5" y="555.0669">extends</text><!--MD5=[cc8f708f1950b2f27fc9b06395f2edb7]
reverse link Person to Person--><path codeLine="79" d="M541.202,105.599 C554.531,110.506 563,118.64 563,130 C563,144.688 548.843,153.982 528.327,157.883 " fill="none" id="Person-backto-Person" style="stroke:#A80036;stroke-width:1.0;"/><polygon fill="#FFFFFF" points="528.327,102.117,533.0744,107.5449,539.9107,105.2503,535.1633,99.8224,528.327,102.117" style="stroke:#A80036;stroke-width:1.0;"/><text fill="#000000" font-family="sans-serif" font-size="13" lengthAdjust="spacing" textLength="96" x="569" y="134.5669">verheiratet mit</text><text fill="#000000" font-family="sans-serif" font-size="13" lengthAdjust="spacing" textLength="8" x="536.0555" y="97.0316">1</text><!--MD5=[18c2d2fd7ea1ef9c3b9449e505cd6c2e]
link Person to Eatable--><path codeLine="81" d="M294.346,253.143 C257.359,293.786 218.171,336.848 188.872,369.044 " fill="none" id="Person-to-Eatable" style="stroke:#A80036;stroke-width:1.0;stroke-dasharray:7.0,7.0;"/><polygon fill="none" points="193.974,373.838,175.336,383.918,183.62,364.415,193.974,373.838" style="stroke:#A80036;stroke-width:1.0;"/><text fill="#000000" font-family="sans-serif" font-size="13" lengthAdjust="spacing" textLength="76" x="267.5" y="296.0669">implements</text><!--MD5=[e19d01260eec7ae0a13f09fc1551c043]
@startuml
class App {
    + main(String[] args) : void
}


interface Eatable {
    + inKantine() : int
    + Bewertung() : String
}

class Person << abstract >> {
    # nachname : String
    - ehepartner : Person
    # {static} MINPREIS : double
    # Person(String nachname)
    + setNachname(String nachname) : void
    + getNachname() : String
    + vorstellen() : String
    # heiraten(Person ehepartner) : void
    # scheiden() : void
    + inKantine() : int
    + Bewertung(Object wer) : String
    + equals(Object obj) : boolean
    + hashCode() : int
    + toString() : String 
    + {abstract} kantineKonsum(int anzahl) : double
}
class Mitarbeiter << abstract >> {
    # personalNummer : int
    # Mitarbeiter(String nachname, int personalNummer)
    # Mitarbeiter(String nachname)
    + setPersonalNummer(int personalNummer) : void
    + getPersonalNummer() : int
    + vorstellen() : String
    + toString() : String
    + hashCode() : int
    + inKantine() : int
    + Bewertung() : String
}
class Lehrer {
    - fachbereich : String
    + Lehrer(String nachname, String fachbereich)
    + Lehrer(String nachname, int personalnummer)
    + Lehrer(String nachname, int personalnummer, String fachbereich)
    + getFachbereich() : String 
    + setFachbereich(String fachbereich) : void
    + vorstellen() : String
    + kantineKonsum(int anzahl) : double
    + toString() : String
}
class Angestellte {
    - schulleitung : boolean
    + Angestellte(String nachname)
    + Angestellte(String nachname, int personalNummer)
    + setSchulleitung(boolean schulleitung) : void
    + isSchulleitung() : boolean
    + vorstellen() : String
    + toString() : String
    + kantineKonsum(int anzahl) : double
}
class Lernende {
    - nummer : int 
    + Lernende(String nachname)
    + setNummer(int nummer) : void
    + getNummer() : int
    + vorstellen() : String
    + inKantine() : int
    + Bewertung() : String
    + kantineKonsum(int anzahl) : double
    + toString() : String
    + hashCode() : int
}

Person <|- - Mitarbeiter : "extends"
Person <|- - Lernende : "extends"
Mitarbeiter <|- - Lehrer : "extends"
Mitarbeiter <|- - Angestellte : "extends"

Person "1" o- - Person : "verheiratet mit"

Person ..|> Eatable : "implements"
@enduml

PlantUML version 1.2021.2beta7(Unknown compile time)
(GPL source distribution)
Java Runtime: Java(TM) SE Runtime Environment
JVM: Java HotSpot(TM) 64-Bit Server VM
Default Encoding: UTF-8
Language: en
Country: US
--></g></svg>