<?xml version="1.0" encoding="UTF-8" standalone="no"?>
<svg xmlns="http://www.w3.org/2000/svg" xmlns:xlink="http://www.w3.org/1999/xlink" contentStyleType="text/css" height="291px" preserveAspectRatio="none" style="width:691px;height:291px;background:#FFFFFF;" version="1.1" viewBox="0 0 691 291" width="691px" zoomAndPan="magnify"><defs><filter height="300%" id="f1tbvmx82yreq3" width="300%" x="-1" y="-1"><feGaussianBlur result="blurOut" stdDeviation="2.0"/><feColorMatrix in="blurOut" result="blurOut2" type="matrix" values="0 0 0 0 0 0 0 0 0 0 0 0 0 0 0 0 0 0 .4 0"/><feOffset dx="4.0" dy="4.0" in="blurOut2" result="blurOut3"/><feBlend in="SourceGraphic" in2="blurOut3" mode="normal"/></filter></defs><g><!--MD5=[335f4d9be48430461c68bf6d6fdba145]
class App--><g id="elem_App"><rect codeLine="2" fill="#FEFECE" filter="url(#f1tbvmx82yreq3)" height="64.2969" id="App" style="stroke:#A80036;stroke-width:1.0;" width="202" x="7" y="23.5"/><ellipse cx="88.75" cy="39.5" fill="#ADD1B2" rx="11" ry="11" style="stroke:#A80036;stroke-width:1.0;"/><path d="M91.0938,35.1719 C90.1563,34.7344 89.5625,34.5938 88.6875,34.5938 C86.0625,34.5938 84.0625,36.6719 84.0625,39.3906 L84.0625,40.5156 C84.0625,43.0938 86.1719,44.9844 89.0625,44.9844 C90.2813,44.9844 91.4375,44.6875 92.1875,44.1406 C92.7656,43.7344 93.0938,43.2813 93.0938,42.8906 C93.0938,42.4375 92.7031,42.0469 92.2344,42.0469 C92.0156,42.0469 91.8125,42.125 91.625,42.3125 C91.1719,42.7969 91.1719,42.7969 90.9844,42.8906 C90.5625,43.1563 89.875,43.2813 89.1094,43.2813 C87.0625,43.2813 85.7656,42.1875 85.7656,40.4844 L85.7656,39.3906 C85.7656,37.6094 87.0156,36.2969 88.75,36.2969 C89.3281,36.2969 89.9375,36.4531 90.4063,36.7031 C90.8906,36.9844 91.0625,37.2031 91.1563,37.6094 C91.2188,38.0156 91.25,38.1406 91.3906,38.2656 C91.5313,38.4063 91.7656,38.5156 91.9844,38.5156 C92.25,38.5156 92.5156,38.375 92.6875,38.1563 C92.7969,38 92.8281,37.8125 92.8281,37.3906 L92.8281,35.9688 C92.8281,35.5313 92.8125,35.4063 92.7188,35.25 C92.5625,34.9844 92.2813,34.8438 91.9844,34.8438 C91.6875,34.8438 91.4844,34.9375 91.2656,35.25 L91.0938,35.1719 Z " fill="#000000"/><text fill="#000000" font-family="sans-serif" font-size="14" lengthAdjust="spacing" textLength="30" x="109.25" y="44.3467">App</text><line style="stroke:#A80036;stroke-width:1.0;" x1="8" x2="208" y1="55.5" y2="55.5"/><line style="stroke:#A80036;stroke-width:1.0;" x1="8" x2="208" y1="63.5" y2="63.5"/><ellipse cx="18" cy="74.5" fill="#84BE84" rx="3" ry="3" style="stroke:#038048;stroke-width:1.0;"/><text fill="#000000" font-family="sans-serif" font-size="14" lengthAdjust="spacing" textLength="176" x="27" y="80.4951">main(String[] args) : void</text></g><!--MD5=[09ce52be0ee7de43c61b6e2d59bf108b]
class Person--><g id="elem_Person"><rect codeLine="5" fill="#FEFECE" filter="url(#f1tbvmx82yreq3)" height="96.8906" id="Person" style="stroke:#A80036;stroke-width:1.0;" width="299" x="244.5" y="7"/><ellipse cx="365.25" cy="23" fill="#ADD1B2" rx="11" ry="11" style="stroke:#A80036;stroke-width:1.0;"/><path d="M367.5938,18.6719 C366.6563,18.2344 366.0625,18.0938 365.1875,18.0938 C362.5625,18.0938 360.5625,20.1719 360.5625,22.8906 L360.5625,24.0156 C360.5625,26.5938 362.6719,28.4844 365.5625,28.4844 C366.7813,28.4844 367.9375,28.1875 368.6875,27.6406 C369.2656,27.2344 369.5938,26.7813 369.5938,26.3906 C369.5938,25.9375 369.2031,25.5469 368.7344,25.5469 C368.5156,25.5469 368.3125,25.625 368.125,25.8125 C367.6719,26.2969 367.6719,26.2969 367.4844,26.3906 C367.0625,26.6563 366.375,26.7813 365.6094,26.7813 C363.5625,26.7813 362.2656,25.6875 362.2656,23.9844 L362.2656,22.8906 C362.2656,21.1094 363.5156,19.7969 365.25,19.7969 C365.8281,19.7969 366.4375,19.9531 366.9063,20.2031 C367.3906,20.4844 367.5625,20.7031 367.6563,21.1094 C367.7188,21.5156 367.75,21.6406 367.8906,21.7656 C368.0313,21.9063 368.2656,22.0156 368.4844,22.0156 C368.75,22.0156 369.0156,21.875 369.1875,21.6563 C369.2969,21.5 369.3281,21.3125 369.3281,20.8906 L369.3281,19.4688 C369.3281,19.0313 369.3125,18.9063 369.2188,18.75 C369.0625,18.4844 368.7813,18.3438 368.4844,18.3438 C368.1875,18.3438 367.9844,18.4375 367.7656,18.75 L367.5938,18.6719 Z " fill="#000000"/><text fill="#000000" font-family="sans-serif" font-size="14" lengthAdjust="spacing" textLength="49" x="385.75" y="27.8467">Person</text><line style="stroke:#A80036;stroke-width:1.0;" x1="245.5" x2="542.5" y1="39" y2="39"/><rect fill="none" height="6" style="stroke:#C82930;stroke-width:1.0;" width="6" x="252.5" y="47"/><text fill="#000000" font-family="sans-serif" font-size="14" lengthAdjust="spacing" textLength="131" x="264.5" y="55.9951">nachname : String</text><line style="stroke:#A80036;stroke-width:1.0;" x1="245.5" x2="542.5" y1="63.2969" y2="63.2969"/><ellipse cx="255.5" cy="74.2969" fill="#84BE84" rx="3" ry="3" style="stroke:#038048;stroke-width:1.0;"/><text fill="#000000" font-family="sans-serif" font-size="14" lengthAdjust="spacing" textLength="273" x="264.5" y="80.292">setNachname(String nachname) : void</text><ellipse cx="255.5" cy="90.5938" fill="#84BE84" rx="3" ry="3" style="stroke:#038048;stroke-width:1.0;"/><text fill="#000000" font-family="sans-serif" font-size="14" lengthAdjust="spacing" textLength="167" x="264.5" y="96.5889">getNachname() : String</text></g><!--MD5=[b68af693cf60e945a9cb87ea33cffb44]
class Lehrer--><g id="elem_Lehrer"><rect codeLine="10" fill="#FEFECE" filter="url(#f1tbvmx82yreq3)" height="96.8906" id="Lehrer" style="stroke:#A80036;stroke-width:1.0;" width="324" x="71" y="181"/><ellipse cx="205.25" cy="197" fill="#ADD1B2" rx="11" ry="11" style="stroke:#A80036;stroke-width:1.0;"/><path d="M207.5938,192.6719 C206.6563,192.2344 206.0625,192.0938 205.1875,192.0938 C202.5625,192.0938 200.5625,194.1719 200.5625,196.8906 L200.5625,198.0156 C200.5625,200.5938 202.6719,202.4844 205.5625,202.4844 C206.7813,202.4844 207.9375,202.1875 208.6875,201.6406 C209.2656,201.2344 209.5938,200.7813 209.5938,200.3906 C209.5938,199.9375 209.2031,199.5469 208.7344,199.5469 C208.5156,199.5469 208.3125,199.625 208.125,199.8125 C207.6719,200.2969 207.6719,200.2969 207.4844,200.3906 C207.0625,200.6563 206.375,200.7813 205.6094,200.7813 C203.5625,200.7813 202.2656,199.6875 202.2656,197.9844 L202.2656,196.8906 C202.2656,195.1094 203.5156,193.7969 205.25,193.7969 C205.8281,193.7969 206.4375,193.9531 206.9063,194.2031 C207.3906,194.4844 207.5625,194.7031 207.6563,195.1094 C207.7188,195.5156 207.75,195.6406 207.8906,195.7656 C208.0313,195.9063 208.2656,196.0156 208.4844,196.0156 C208.75,196.0156 209.0156,195.875 209.1875,195.6563 C209.2969,195.5 209.3281,195.3125 209.3281,194.8906 L209.3281,193.4688 C209.3281,193.0313 209.3125,192.9063 209.2188,192.75 C209.0625,192.4844 208.7813,192.3438 208.4844,192.3438 C208.1875,192.3438 207.9844,192.4375 207.7656,192.75 L207.5938,192.6719 Z " fill="#000000"/><text fill="#000000" font-family="sans-serif" font-size="14" lengthAdjust="spacing" textLength="47" x="225.75" y="201.8467">Lehrer</text><line style="stroke:#A80036;stroke-width:1.0;" x1="72" x2="394" y1="213" y2="213"/><rect fill="none" height="6" style="stroke:#C82930;stroke-width:1.0;" width="6" x="79" y="221"/><text fill="#000000" font-family="sans-serif" font-size="14" lengthAdjust="spacing" textLength="143" x="91" y="229.9951">fachbereich : String</text><line style="stroke:#A80036;stroke-width:1.0;" x1="72" x2="394" y1="237.2969" y2="237.2969"/><ellipse cx="82" cy="248.2969" fill="#84BE84" rx="3" ry="3" style="stroke:#038048;stroke-width:1.0;"/><text fill="#000000" font-family="sans-serif" font-size="14" lengthAdjust="spacing" textLength="180" x="91" y="254.292">getFachbereich() : String</text><ellipse cx="82" cy="264.5938" fill="#84BE84" rx="3" ry="3" style="stroke:#038048;stroke-width:1.0;"/><text fill="#000000" font-family="sans-serif" font-size="14" lengthAdjust="spacing" textLength="298" x="91" y="270.5889">setFachbereich(String fachbereich) : void</text></g><!--MD5=[e0c77432632b1b568746454dd033b200]
class Lernende--><g id="elem_Lernende"><rect codeLine="15" fill="#FEFECE" filter="url(#f1tbvmx82yreq3)" height="96.8906" id="Lernende" style="stroke:#A80036;stroke-width:1.0;" width="247" x="430.5" y="181"/><ellipse cx="515.75" cy="197" fill="#ADD1B2" rx="11" ry="11" style="stroke:#A80036;stroke-width:1.0;"/><path d="M518.0938,192.6719 C517.1563,192.2344 516.5625,192.0938 515.6875,192.0938 C513.0625,192.0938 511.0625,194.1719 511.0625,196.8906 L511.0625,198.0156 C511.0625,200.5938 513.1719,202.4844 516.0625,202.4844 C517.2813,202.4844 518.4375,202.1875 519.1875,201.6406 C519.7656,201.2344 520.0938,200.7813 520.0938,200.3906 C520.0938,199.9375 519.7031,199.5469 519.2344,199.5469 C519.0156,199.5469 518.8125,199.625 518.625,199.8125 C518.1719,200.2969 518.1719,200.2969 517.9844,200.3906 C517.5625,200.6563 516.875,200.7813 516.1094,200.7813 C514.0625,200.7813 512.7656,199.6875 512.7656,197.9844 L512.7656,196.8906 C512.7656,195.1094 514.0156,193.7969 515.75,193.7969 C516.3281,193.7969 516.9375,193.9531 517.4063,194.2031 C517.8906,194.4844 518.0625,194.7031 518.1563,195.1094 C518.2188,195.5156 518.25,195.6406 518.3906,195.7656 C518.5313,195.9063 518.7656,196.0156 518.9844,196.0156 C519.25,196.0156 519.5156,195.875 519.6875,195.6563 C519.7969,195.5 519.8281,195.3125 519.8281,194.8906 L519.8281,193.4688 C519.8281,193.0313 519.8125,192.9063 519.7188,192.75 C519.5625,192.4844 519.2813,192.3438 518.9844,192.3438 C518.6875,192.3438 518.4844,192.4375 518.2656,192.75 L518.0938,192.6719 Z " fill="#000000"/><text fill="#000000" font-family="sans-serif" font-size="14" lengthAdjust="spacing" textLength="68" x="536.25" y="201.8467">Lernende</text><line style="stroke:#A80036;stroke-width:1.0;" x1="431.5" x2="676.5" y1="213" y2="213"/><rect fill="none" height="6" style="stroke:#C82930;stroke-width:1.0;" width="6" x="438.5" y="221"/><text fill="#000000" font-family="sans-serif" font-size="14" lengthAdjust="spacing" textLength="93" x="450.5" y="229.9951">nummer : int</text><line style="stroke:#A80036;stroke-width:1.0;" x1="431.5" x2="676.5" y1="237.2969" y2="237.2969"/><ellipse cx="441.5" cy="248.2969" fill="#84BE84" rx="3" ry="3" style="stroke:#038048;stroke-width:1.0;"/><text fill="#000000" font-family="sans-serif" font-size="14" lengthAdjust="spacing" textLength="221" x="450.5" y="254.292">setNummer(int nummer) : void</text><ellipse cx="441.5" cy="264.5938" fill="#84BE84" rx="3" ry="3" style="stroke:#038048;stroke-width:1.0;"/><text fill="#000000" font-family="sans-serif" font-size="14" lengthAdjust="spacing" textLength="129" x="450.5" y="270.5889">getNummer() : int</text></g><!--MD5=[bb70303e4aea5c3acc14f0e96cc19e46]
reverse link Person to Lehrer--><g id="link_Person_Lehrer"><path codeLine="21" d="M335.333,119.175 C316.28,139.53 295.462,161.77 277.607,180.8454 " fill="none" id="Person-backto-Lehrer" style="stroke:#A80036;stroke-width:1.0;"/><polygon fill="none" points="330.374,114.229,349.153,104.412,340.595,123.797,330.374,114.229" style="stroke:#A80036;stroke-width:1.0;"/><text fill="#000000" font-family="sans-serif" font-size="13" lengthAdjust="spacing" textLength="52" x="319" y="147.0669">extends</text></g><!--MD5=[9c834ccf53bee16c2f5ff79eb16bfce4]
reverse link Person to Lernende--><g id="link_Person_Lernende"><path codeLine="22" d="M452.302,119.175 C471.237,139.53 491.926,161.77 509.67,180.8454 " fill="none" id="Person-backto-Lernende" style="stroke:#A80036;stroke-width:1.0;"/><polygon fill="none" points="447.066,123.823,438.569,104.412,457.316,114.288,447.066,123.823" style="stroke:#A80036;stroke-width:1.0;"/><text fill="#000000" font-family="sans-serif" font-size="13" lengthAdjust="spacing" textLength="52" x="479" y="147.0669">extends</text></g><!--MD5=[956d65741038617118333a74ed712f4f]
@startuml
skin rose
class App {
    + main(String[] args) : void
}
class Person {
    - nachname : String
    + setNachname(String nachname) : void
    + getNachname() : String
}
class Lehrer {
    - fachbereich : String
    + getFachbereich() : String 
    + setFachbereich(String fachbereich) : void
}
class Lernende {
    - nummer : int 
    + setNummer(int nummer) : void
    + getNummer() : int
}

Person <|- - Lehrer : "extends"
Person <|- - Lernende : "extends"
@enduml

PlantUML version 1.2022.2(Sat Mar 05 16:30:19 UTC 2022)
(GPL source distribution)
Java Runtime: Java(TM) SE Runtime Environment
JVM: Java HotSpot(TM) 64-Bit Server VM
Default Encoding: UTF-8
Language: en
Country: US
--></g></svg>