<?xml version="1.0" encoding="UTF-8" standalone="no"?>
<svg xmlns="http://www.w3.org/2000/svg" xmlns:xlink="http://www.w3.org/1999/xlink" contentScriptType="application/ecmascript" contentStyleType="text/css" height="459px" preserveAspectRatio="none" style="width:689px;height:459px;background:#FFFFFF;" version="1.1" viewBox="0 0 689 459" width="689px" zoomAndPan="magnify"><defs><filter height="300%" id="f1d1soc9xr8esx" width="300%" x="-1" y="-1"><feGaussianBlur result="blurOut" stdDeviation="2.0"/><feColorMatrix in="blurOut" result="blurOut2" type="matrix" values="0 0 0 0 0 0 0 0 0 0 0 0 0 0 0 0 0 0 .4 0"/><feOffset dx="4.0" dy="4.0" in="blurOut2" result="blurOut3"/><feBlend in="SourceGraphic" in2="blurOut3" mode="normal"/></filter></defs><g><!--MD5=[335f4d9be48430461c68bf6d6fdba145]
class App--><rect codeLine="1" fill="#FEFECE" filter="url(#f1d1soc9xr8esx)" height="60.8047" id="App" style="stroke:#A80036;stroke-width:1.5;" width="169" x="153" y="19.5"/><ellipse cx="221.25" cy="35.5" fill="#ADD1B2" rx="11" ry="11" style="stroke:#A80036;stroke-width:1.0;"/><path d="M224.2188,41.1406 Q223.6406,41.4375 223,41.5781 Q222.3594,41.7344 221.6563,41.7344 Q219.1563,41.7344 217.8281,40.0938 Q216.5156,38.4375 216.5156,35.3125 Q216.5156,32.1875 217.8281,30.5313 Q219.1563,28.875 221.6563,28.875 Q222.3594,28.875 223,29.0313 Q223.6563,29.1875 224.2188,29.4844 L224.2188,32.2031 Q223.5938,31.625 223,31.3594 Q222.4063,31.0781 221.7813,31.0781 Q220.4375,31.0781 219.75,32.1563 Q219.0625,33.2188 219.0625,35.3125 Q219.0625,37.4063 219.75,38.4844 Q220.4375,39.5469 221.7813,39.5469 Q222.4063,39.5469 223,39.2813 Q223.5938,39 224.2188,38.4219 L224.2188,41.1406 Z " fill="#000000"/><text fill="#000000" font-family="sans-serif" font-size="12" lengthAdjust="spacing" textLength="24" x="241.75" y="39.6543">App</text><line style="stroke:#A80036;stroke-width:1.5;" x1="154" x2="321" y1="51.5" y2="51.5"/><line style="stroke:#A80036;stroke-width:1.5;" x1="154" x2="321" y1="59.5" y2="59.5"/><ellipse cx="164" cy="70.5" fill="#84BE84" rx="3" ry="3" style="stroke:#038048;stroke-width:1.0;"/><text fill="#000000" font-family="sans-serif" font-size="11" lengthAdjust="spacing" textLength="143" x="173" y="73.7104">main(String[] args) : void</text><!--MD5=[09ce52be0ee7de43c61b6e2d59bf108b]
class Person--><rect codeLine="4" fill="#FEFECE" filter="url(#f1d1soc9xr8esx)" height="86.4141" id="Person" style="stroke:#A80036;stroke-width:1.5;" width="244" x="357.5" y="7"/><ellipse cx="453.25" cy="23" fill="#ADD1B2" rx="11" ry="11" style="stroke:#A80036;stroke-width:1.0;"/><path d="M456.2188,28.6406 Q455.6406,28.9375 455,29.0781 Q454.3594,29.2344 453.6563,29.2344 Q451.1563,29.2344 449.8281,27.5938 Q448.5156,25.9375 448.5156,22.8125 Q448.5156,19.6875 449.8281,18.0313 Q451.1563,16.375 453.6563,16.375 Q454.3594,16.375 455,16.5313 Q455.6563,16.6875 456.2188,16.9844 L456.2188,19.7031 Q455.5938,19.125 455,18.8594 Q454.4063,18.5781 453.7813,18.5781 Q452.4375,18.5781 451.75,19.6563 Q451.0625,20.7188 451.0625,22.8125 Q451.0625,24.9063 451.75,25.9844 Q452.4375,27.0469 453.7813,27.0469 Q454.4063,27.0469 455,26.7813 Q455.5938,26.5 456.2188,25.9219 L456.2188,28.6406 Z " fill="#000000"/><text fill="#000000" font-family="sans-serif" font-size="12" lengthAdjust="spacing" textLength="44" x="473.75" y="27.1543">Person</text><line style="stroke:#A80036;stroke-width:1.5;" x1="358.5" x2="600.5" y1="39" y2="39"/><rect fill="none" height="6" style="stroke:#C82930;stroke-width:1.0;" width="6" x="365.5" y="47"/><text fill="#000000" font-family="sans-serif" font-size="11" lengthAdjust="spacing" textLength="105" x="377.5" y="53.2104">nachname : String</text><line style="stroke:#A80036;stroke-width:1.5;" x1="358.5" x2="600.5" y1="59.8047" y2="59.8047"/><ellipse cx="368.5" cy="70.8047" fill="#84BE84" rx="3" ry="3" style="stroke:#038048;stroke-width:1.0;"/><text fill="#000000" font-family="sans-serif" font-size="11" lengthAdjust="spacing" textLength="218" x="377.5" y="74.0151">setNachname(String nachname) : void</text><ellipse cx="368.5" cy="83.6094" fill="#84BE84" rx="3" ry="3" style="stroke:#038048;stroke-width:1.0;"/><text fill="#000000" font-family="sans-serif" font-size="11" lengthAdjust="spacing" textLength="132" x="377.5" y="86.8198">getNachname() : String</text><!--MD5=[cf50a5de139d8ee8ab91969acb1dc454]
class Mitarbeiter--><rect codeLine="9" fill="#FEFECE" filter="url(#f1d1soc9xr8esx)" height="86.4141" id="Mitarbeiter" style="stroke:#A80036;stroke-width:1.5;" width="303" x="135" y="176.5"/><ellipse cx="248.25" cy="192.5" fill="#ADD1B2" rx="11" ry="11" style="stroke:#A80036;stroke-width:1.0;"/><path d="M251.2188,198.1406 Q250.6406,198.4375 250,198.5781 Q249.3594,198.7344 248.6563,198.7344 Q246.1563,198.7344 244.8281,197.0938 Q243.5156,195.4375 243.5156,192.3125 Q243.5156,189.1875 244.8281,187.5313 Q246.1563,185.875 248.6563,185.875 Q249.3594,185.875 250,186.0313 Q250.6563,186.1875 251.2188,186.4844 L251.2188,189.2031 Q250.5938,188.625 250,188.3594 Q249.4063,188.0781 248.7813,188.0781 Q247.4375,188.0781 246.75,189.1563 Q246.0625,190.2188 246.0625,192.3125 Q246.0625,194.4063 246.75,195.4844 Q247.4375,196.5469 248.7813,196.5469 Q249.4063,196.5469 250,196.2813 Q250.5938,196 251.2188,195.4219 L251.2188,198.1406 Z " fill="#000000"/><text fill="#000000" font-family="sans-serif" font-size="12" lengthAdjust="spacing" textLength="68" x="268.75" y="196.6543">Mitarbeiter</text><line style="stroke:#A80036;stroke-width:1.5;" x1="136" x2="437" y1="208.5" y2="208.5"/><rect fill="none" height="6" style="stroke:#C82930;stroke-width:1.0;" width="6" x="143" y="216.5"/><text fill="#000000" font-family="sans-serif" font-size="11" lengthAdjust="spacing" textLength="125" x="155" y="222.7104">personalNummer : int</text><line style="stroke:#A80036;stroke-width:1.5;" x1="136" x2="437" y1="229.3047" y2="229.3047"/><ellipse cx="146" cy="240.3047" fill="#84BE84" rx="3" ry="3" style="stroke:#038048;stroke-width:1.0;"/><text fill="#000000" font-family="sans-serif" font-size="11" lengthAdjust="spacing" textLength="277" x="155" y="243.5151">setPersonalNummer(int personalNummer) : void</text><ellipse cx="146" cy="253.1094" fill="#84BE84" rx="3" ry="3" style="stroke:#038048;stroke-width:1.0;"/><text fill="#000000" font-family="sans-serif" font-size="11" lengthAdjust="spacing" textLength="151" x="155" y="256.3198">getPersonalNummer() : int</text><!--MD5=[b68af693cf60e945a9cb87ea33cffb44]
class Lehrer--><rect codeLine="14" fill="#FEFECE" filter="url(#f1d1soc9xr8esx)" height="99.2188" id="Lehrer" style="stroke:#A80036;stroke-width:1.5;" width="259" x="7" y="346"/><ellipse cx="112.25" cy="362" fill="#ADD1B2" rx="11" ry="11" style="stroke:#A80036;stroke-width:1.0;"/><path d="M115.2188,367.6406 Q114.6406,367.9375 114,368.0781 Q113.3594,368.2344 112.6563,368.2344 Q110.1563,368.2344 108.8281,366.5938 Q107.5156,364.9375 107.5156,361.8125 Q107.5156,358.6875 108.8281,357.0313 Q110.1563,355.375 112.6563,355.375 Q113.3594,355.375 114,355.5313 Q114.6563,355.6875 115.2188,355.9844 L115.2188,358.7031 Q114.5938,358.125 114,357.8594 Q113.4063,357.5781 112.7813,357.5781 Q111.4375,357.5781 110.75,358.6563 Q110.0625,359.7188 110.0625,361.8125 Q110.0625,363.9063 110.75,364.9844 Q111.4375,366.0469 112.7813,366.0469 Q113.4063,366.0469 114,365.7813 Q114.5938,365.5 115.2188,364.9219 L115.2188,367.6406 Z " fill="#000000"/><text fill="#000000" font-family="sans-serif" font-size="12" lengthAdjust="spacing" textLength="40" x="132.75" y="366.1543">Lehrer</text><line style="stroke:#A80036;stroke-width:1.5;" x1="8" x2="265" y1="378" y2="378"/><rect fill="none" height="6" style="stroke:#C82930;stroke-width:1.0;" width="6" x="15" y="386"/><text fill="#000000" font-family="sans-serif" font-size="11" lengthAdjust="spacing" textLength="112" x="27" y="392.2104">fachbereich : String</text><line style="stroke:#A80036;stroke-width:1.5;" x1="8" x2="265" y1="398.8047" y2="398.8047"/><ellipse cx="18" cy="409.8047" fill="#84BE84" rx="3" ry="3" style="stroke:#038048;stroke-width:1.0;"/><text fill="#000000" font-family="sans-serif" font-size="11" lengthAdjust="spacing" textLength="140" x="27" y="413.0151">getFachbereich() : String</text><ellipse cx="18" cy="422.6094" fill="#84BE84" rx="3" ry="3" style="stroke:#038048;stroke-width:1.0;"/><text fill="#000000" font-family="sans-serif" font-size="11" lengthAdjust="spacing" textLength="233" x="27" y="425.8198">setFachbereich(String fachbereich) : void</text><ellipse cx="18" cy="435.4141" fill="#84BE84" rx="3" ry="3" style="stroke:#038048;stroke-width:1.0;"/><text fill="#000000" font-family="sans-serif" font-size="11" lengthAdjust="spacing" textLength="110" x="27" y="438.6245">vorstellen() : String</text><!--MD5=[3b163f382fcb0a60af2759cb55ad0fea]
class Angestellte--><rect codeLine="20" fill="#FEFECE" filter="url(#f1d1soc9xr8esx)" height="99.2188" id="Angestellte" style="stroke:#A80036;stroke-width:1.5;" width="273" x="301" y="346"/><ellipse cx="397.75" cy="362" fill="#ADD1B2" rx="11" ry="11" style="stroke:#A80036;stroke-width:1.0;"/><path d="M400.7188,367.6406 Q400.1406,367.9375 399.5,368.0781 Q398.8594,368.2344 398.1563,368.2344 Q395.6563,368.2344 394.3281,366.5938 Q393.0156,364.9375 393.0156,361.8125 Q393.0156,358.6875 394.3281,357.0313 Q395.6563,355.375 398.1563,355.375 Q398.8594,355.375 399.5,355.5313 Q400.1563,355.6875 400.7188,355.9844 L400.7188,358.7031 Q400.0938,358.125 399.5,357.8594 Q398.9063,357.5781 398.2813,357.5781 Q396.9375,357.5781 396.25,358.6563 Q395.5625,359.7188 395.5625,361.8125 Q395.5625,363.9063 396.25,364.9844 Q396.9375,366.0469 398.2813,366.0469 Q398.9063,366.0469 399.5,365.7813 Q400.0938,365.5 400.7188,364.9219 L400.7188,367.6406 Z " fill="#000000"/><text fill="#000000" font-family="sans-serif" font-size="12" lengthAdjust="spacing" textLength="71" x="418.25" y="366.1543">Angestellte</text><line style="stroke:#A80036;stroke-width:1.5;" x1="302" x2="573" y1="378" y2="378"/><rect fill="none" height="6" style="stroke:#C82930;stroke-width:1.0;" width="6" x="309" y="386"/><text fill="#000000" font-family="sans-serif" font-size="11" lengthAdjust="spacing" textLength="125" x="321" y="392.2104">schulleitung : boolean</text><line style="stroke:#A80036;stroke-width:1.5;" x1="302" x2="573" y1="398.8047" y2="398.8047"/><ellipse cx="312" cy="409.8047" fill="#84BE84" rx="3" ry="3" style="stroke:#038048;stroke-width:1.0;"/><text fill="#000000" font-family="sans-serif" font-size="11" lengthAdjust="spacing" textLength="247" x="321" y="413.0151">setSchulleitung(boolean schulleitung) : void</text><ellipse cx="312" cy="422.6094" fill="#84BE84" rx="3" ry="3" style="stroke:#038048;stroke-width:1.0;"/><text fill="#000000" font-family="sans-serif" font-size="11" lengthAdjust="spacing" textLength="144" x="321" y="425.8198">isSchulleitung() : boolean</text><ellipse cx="312" cy="435.4141" fill="#84BE84" rx="3" ry="3" style="stroke:#038048;stroke-width:1.0;"/><text fill="#000000" font-family="sans-serif" font-size="11" lengthAdjust="spacing" textLength="110" x="321" y="438.6245">vorstellen() : String</text><!--MD5=[e0c77432632b1b568746454dd033b200]
class Lernende--><rect codeLine="26" fill="#FEFECE" filter="url(#f1d1soc9xr8esx)" height="99.2188" id="Lernende" style="stroke:#A80036;stroke-width:1.5;" width="202" x="473.5" y="170"/><ellipse cx="540.75" cy="186" fill="#ADD1B2" rx="11" ry="11" style="stroke:#A80036;stroke-width:1.0;"/><path d="M543.7188,191.6406 Q543.1406,191.9375 542.5,192.0781 Q541.8594,192.2344 541.1563,192.2344 Q538.6563,192.2344 537.3281,190.5938 Q536.0156,188.9375 536.0156,185.8125 Q536.0156,182.6875 537.3281,181.0313 Q538.6563,179.375 541.1563,179.375 Q541.8594,179.375 542.5,179.5313 Q543.1563,179.6875 543.7188,179.9844 L543.7188,182.7031 Q543.0938,182.125 542.5,181.8594 Q541.9063,181.5781 541.2813,181.5781 Q539.9375,181.5781 539.25,182.6563 Q538.5625,183.7188 538.5625,185.8125 Q538.5625,187.9063 539.25,188.9844 Q539.9375,190.0469 541.2813,190.0469 Q541.9063,190.0469 542.5,189.7813 Q543.0938,189.5 543.7188,188.9219 L543.7188,191.6406 Z " fill="#000000"/><text fill="#000000" font-family="sans-serif" font-size="12" lengthAdjust="spacing" textLength="59" x="561.25" y="190.1543">Lernende</text><line style="stroke:#A80036;stroke-width:1.5;" x1="474.5" x2="674.5" y1="202" y2="202"/><rect fill="none" height="6" style="stroke:#C82930;stroke-width:1.0;" width="6" x="481.5" y="210"/><text fill="#000000" font-family="sans-serif" font-size="11" lengthAdjust="spacing" textLength="74" x="493.5" y="216.2104">nummer : int</text><line style="stroke:#A80036;stroke-width:1.5;" x1="474.5" x2="674.5" y1="222.8047" y2="222.8047"/><ellipse cx="484.5" cy="233.8047" fill="#84BE84" rx="3" ry="3" style="stroke:#038048;stroke-width:1.0;"/><text fill="#000000" font-family="sans-serif" font-size="11" lengthAdjust="spacing" textLength="176" x="493.5" y="237.0151">setNummer(int nummer) : void</text><ellipse cx="484.5" cy="246.6094" fill="#84BE84" rx="3" ry="3" style="stroke:#038048;stroke-width:1.0;"/><text fill="#000000" font-family="sans-serif" font-size="11" lengthAdjust="spacing" textLength="101" x="493.5" y="249.8198">getNummer() : int</text><ellipse cx="484.5" cy="259.4141" fill="#84BE84" rx="3" ry="3" style="stroke:#038048;stroke-width:1.0;"/><text fill="#000000" font-family="sans-serif" font-size="11" lengthAdjust="spacing" textLength="110" x="493.5" y="262.6245">vorstellen() : String</text><!--MD5=[b55e1fc4f5ed1150be76a7fd4391a706]
reverse link Person to Mitarbeiter--><path codeLine="33" d="M415.47,106.57 C389.3,129.28 359.53,155.12 335.19,176.25 " fill="none" id="Person-backto-Mitarbeiter" style="stroke:#A80036;stroke-width:1.0;"/><polygon fill="none" points="411.11,101.09,430.8,93.27,420.28,111.66,411.11,101.09" style="stroke:#A80036;stroke-width:1.0;"/><text fill="#000000" font-family="sans-serif" font-size="13" lengthAdjust="spacing" textLength="51" x="396.5" y="136.0669">extends</text><!--MD5=[9c834ccf53bee16c2f5ff79eb16bfce4]
reverse link Person to Lernende--><path codeLine="34" d="M513.37,110.73 C524.34,130.06 536.37,151.27 546.83,169.71 " fill="none" id="Person-backto-Lernende" style="stroke:#A80036;stroke-width:1.0;"/><polygon fill="none" points="507.25,114.12,503.47,93.27,519.43,107.21,507.25,114.12" style="stroke:#A80036;stroke-width:1.0;"/><text fill="#000000" font-family="sans-serif" font-size="13" lengthAdjust="spacing" textLength="51" x="531.5" y="136.0669">extends</text><!--MD5=[5f8c01e2d598d3d40cae6158d4529506]
reverse link Mitarbeiter to Lehrer--><path codeLine="35" d="M236.89,278.05 C217.92,300.05 196.49,324.91 178.31,346 " fill="none" id="Mitarbeiter-backto-Lehrer" style="stroke:#A80036;stroke-width:1.0;"/><polygon fill="none" points="231.83,273.2,250.19,262.62,242.43,282.34,231.83,273.2" style="stroke:#A80036;stroke-width:1.0;"/><text fill="#000000" font-family="sans-serif" font-size="13" lengthAdjust="spacing" textLength="51" x="217.5" y="312.0669">extends</text><!--MD5=[cb25b1e4020e44f278560a480684987c]
reverse link Mitarbeiter to Angestellte--><path codeLine="36" d="M336.16,277.73 C355.33,299.81 377.02,324.81 395.41,346 " fill="none" id="Mitarbeiter-backto-Angestellte" style="stroke:#A80036;stroke-width:1.0;"/><polygon fill="none" points="330.87,282.31,323.05,262.62,341.45,273.14,330.87,282.31" style="stroke:#A80036;stroke-width:1.0;"/><text fill="#000000" font-family="sans-serif" font-size="13" lengthAdjust="spacing" textLength="51" x="368.5" y="312.0669">extends</text><!--MD5=[17629b90ec5330baf1f9d5ba398c43bc]
@startuml
class App {
    + main(String[] args) : void
}
class Person {
    - nachname : String
    + setNachname(String nachname) : void
    + getNachname() : String
}
class Mitarbeiter {
    - personalNummer : int
    + setPersonalNummer(int personalNummer) : void
    + getPersonalNummer() : int
}
class Lehrer {
    - fachbereich : String
    + getFachbereich() : String 
    + setFachbereich(String fachbereich) : void
    + vorstellen() : String
}
class Angestellte {
    - schulleitung : boolean
    + setSchulleitung(boolean schulleitung) : void
    + isSchulleitung() : boolean
    + vorstellen() : String
}
class Lernende {
    - nummer : int 
    + setNummer(int nummer) : void
    + getNummer() : int
    + vorstellen() : String
}

Person <|- - Mitarbeiter : "extends"
Person <|- - Lernende : "extends"
Mitarbeiter <|- - Lehrer : "extends"
Mitarbeiter <|- - Angestellte : "extends"
@enduml

PlantUML version 1.2022.1(Tue Feb 01 18:19:58 UTC 2022)
(GPL source distribution)
Java Runtime: OpenJDK Runtime Environment
JVM: OpenJDK 64-Bit Server VM
Default Encoding: UTF-8
Language: en
Country: null
--></g></svg>