<?xml version="1.0" encoding="UTF-8" standalone="no"?>
<svg xmlns="http://www.w3.org/2000/svg" xmlns:xlink="http://www.w3.org/1999/xlink" contentStyleType="text/css" height="498px" preserveAspectRatio="none" style="width:833px;height:498px;background:#FFFFFF;" version="1.1" viewBox="0 0 833 498" width="833px" zoomAndPan="magnify"><defs><filter height="300%" id="fujzgw4xbwy5y" width="300%" x="-1" y="-1"><feGaussianBlur result="blurOut" stdDeviation="2.0"/><feColorMatrix in="blurOut" result="blurOut2" type="matrix" values="0 0 0 0 0 0 0 0 0 0 0 0 0 0 0 0 0 0 .4 0"/><feOffset dx="4.0" dy="4.0" in="blurOut2" result="blurOut3"/><feBlend in="SourceGraphic" in2="blurOut3" mode="normal"/></filter></defs><g><!--MD5=[335f4d9be48430461c68bf6d6fdba145]
class App--><g id="elem_App"><rect codeLine="2" fill="#FEFECE" filter="url(#fujzgw4xbwy5y)" height="64.2969" id="App" style="stroke:#A80036;stroke-width:1.0;" width="202" x="200" y="23.5"/><ellipse cx="281.75" cy="39.5" fill="#ADD1B2" rx="11" ry="11" style="stroke:#A80036;stroke-width:1.0;"/><path d="M284.0938,35.1719 C283.1563,34.7344 282.5625,34.5938 281.6875,34.5938 C279.0625,34.5938 277.0625,36.6719 277.0625,39.3906 L277.0625,40.5156 C277.0625,43.0938 279.1719,44.9844 282.0625,44.9844 C283.2813,44.9844 284.4375,44.6875 285.1875,44.1406 C285.7656,43.7344 286.0938,43.2813 286.0938,42.8906 C286.0938,42.4375 285.7031,42.0469 285.2344,42.0469 C285.0156,42.0469 284.8125,42.125 284.625,42.3125 C284.1719,42.7969 284.1719,42.7969 283.9844,42.8906 C283.5625,43.1563 282.875,43.2813 282.1094,43.2813 C280.0625,43.2813 278.7656,42.1875 278.7656,40.4844 L278.7656,39.3906 C278.7656,37.6094 280.0156,36.2969 281.75,36.2969 C282.3281,36.2969 282.9375,36.4531 283.4063,36.7031 C283.8906,36.9844 284.0625,37.2031 284.1563,37.6094 C284.2188,38.0156 284.25,38.1406 284.3906,38.2656 C284.5313,38.4063 284.7656,38.5156 284.9844,38.5156 C285.25,38.5156 285.5156,38.375 285.6875,38.1563 C285.7969,38 285.8281,37.8125 285.8281,37.3906 L285.8281,35.9688 C285.8281,35.5313 285.8125,35.4063 285.7188,35.25 C285.5625,34.9844 285.2813,34.8438 284.9844,34.8438 C284.6875,34.8438 284.4844,34.9375 284.2656,35.25 L284.0938,35.1719 Z " fill="#000000"/><text fill="#000000" font-family="sans-serif" font-size="14" lengthAdjust="spacing" textLength="30" x="302.25" y="44.3467">App</text><line style="stroke:#A80036;stroke-width:1.0;" x1="201" x2="401" y1="55.5" y2="55.5"/><line style="stroke:#A80036;stroke-width:1.0;" x1="201" x2="401" y1="63.5" y2="63.5"/><ellipse cx="211" cy="74.5" fill="#84BE84" rx="3" ry="3" style="stroke:#038048;stroke-width:1.0;"/><text fill="#000000" font-family="sans-serif" font-size="14" lengthAdjust="spacing" textLength="176" x="220" y="80.4951">main(String[] args) : void</text></g><!--MD5=[09ce52be0ee7de43c61b6e2d59bf108b]
class Person--><g id="elem_Person"><rect codeLine="5" fill="#FEFECE" filter="url(#fujzgw4xbwy5y)" height="96.8906" id="Person" style="stroke:#A80036;stroke-width:1.0;" width="299" x="437.5" y="7"/><ellipse cx="558.25" cy="23" fill="#ADD1B2" rx="11" ry="11" style="stroke:#A80036;stroke-width:1.0;"/><path d="M560.5938,18.6719 C559.6563,18.2344 559.0625,18.0938 558.1875,18.0938 C555.5625,18.0938 553.5625,20.1719 553.5625,22.8906 L553.5625,24.0156 C553.5625,26.5938 555.6719,28.4844 558.5625,28.4844 C559.7813,28.4844 560.9375,28.1875 561.6875,27.6406 C562.2656,27.2344 562.5938,26.7813 562.5938,26.3906 C562.5938,25.9375 562.2031,25.5469 561.7344,25.5469 C561.5156,25.5469 561.3125,25.625 561.125,25.8125 C560.6719,26.2969 560.6719,26.2969 560.4844,26.3906 C560.0625,26.6563 559.375,26.7813 558.6094,26.7813 C556.5625,26.7813 555.2656,25.6875 555.2656,23.9844 L555.2656,22.8906 C555.2656,21.1094 556.5156,19.7969 558.25,19.7969 C558.8281,19.7969 559.4375,19.9531 559.9063,20.2031 C560.3906,20.4844 560.5625,20.7031 560.6563,21.1094 C560.7188,21.5156 560.75,21.6406 560.8906,21.7656 C561.0313,21.9063 561.2656,22.0156 561.4844,22.0156 C561.75,22.0156 562.0156,21.875 562.1875,21.6563 C562.2969,21.5 562.3281,21.3125 562.3281,20.8906 L562.3281,19.4688 C562.3281,19.0313 562.3125,18.9063 562.2188,18.75 C562.0625,18.4844 561.7813,18.3438 561.4844,18.3438 C561.1875,18.3438 560.9844,18.4375 560.7656,18.75 L560.5938,18.6719 Z " fill="#000000"/><text fill="#000000" font-family="sans-serif" font-size="14" lengthAdjust="spacing" textLength="49" x="578.75" y="27.8467">Person</text><line style="stroke:#A80036;stroke-width:1.0;" x1="438.5" x2="735.5" y1="39" y2="39"/><rect fill="none" height="6" style="stroke:#C82930;stroke-width:1.0;" width="6" x="445.5" y="47"/><text fill="#000000" font-family="sans-serif" font-size="14" lengthAdjust="spacing" textLength="131" x="457.5" y="55.9951">nachname : String</text><line style="stroke:#A80036;stroke-width:1.0;" x1="438.5" x2="735.5" y1="63.2969" y2="63.2969"/><ellipse cx="448.5" cy="74.2969" fill="#84BE84" rx="3" ry="3" style="stroke:#038048;stroke-width:1.0;"/><text fill="#000000" font-family="sans-serif" font-size="14" lengthAdjust="spacing" textLength="273" x="457.5" y="80.292">setNachname(String nachname) : void</text><ellipse cx="448.5" cy="90.5938" fill="#84BE84" rx="3" ry="3" style="stroke:#038048;stroke-width:1.0;"/><text fill="#000000" font-family="sans-serif" font-size="14" lengthAdjust="spacing" textLength="167" x="457.5" y="96.5889">getNachname() : String</text></g><!--MD5=[cf50a5de139d8ee8ab91969acb1dc454]
class Mitarbeiter--><g id="elem_Mitarbeiter"><rect codeLine="10" fill="#FEFECE" filter="url(#fujzgw4xbwy5y)" height="96.8906" id="Mitarbeiter" style="stroke:#A80036;stroke-width:1.0;" width="371" x="166.5" y="189"/><ellipse cx="306.75" cy="205" fill="#ADD1B2" rx="11" ry="11" style="stroke:#A80036;stroke-width:1.0;"/><path d="M309.0938,200.6719 C308.1563,200.2344 307.5625,200.0938 306.6875,200.0938 C304.0625,200.0938 302.0625,202.1719 302.0625,204.8906 L302.0625,206.0156 C302.0625,208.5938 304.1719,210.4844 307.0625,210.4844 C308.2813,210.4844 309.4375,210.1875 310.1875,209.6406 C310.7656,209.2344 311.0938,208.7813 311.0938,208.3906 C311.0938,207.9375 310.7031,207.5469 310.2344,207.5469 C310.0156,207.5469 309.8125,207.625 309.625,207.8125 C309.1719,208.2969 309.1719,208.2969 308.9844,208.3906 C308.5625,208.6563 307.875,208.7813 307.1094,208.7813 C305.0625,208.7813 303.7656,207.6875 303.7656,205.9844 L303.7656,204.8906 C303.7656,203.1094 305.0156,201.7969 306.75,201.7969 C307.3281,201.7969 307.9375,201.9531 308.4063,202.2031 C308.8906,202.4844 309.0625,202.7031 309.1563,203.1094 C309.2188,203.5156 309.25,203.6406 309.3906,203.7656 C309.5313,203.9063 309.7656,204.0156 309.9844,204.0156 C310.25,204.0156 310.5156,203.875 310.6875,203.6563 C310.7969,203.5 310.8281,203.3125 310.8281,202.8906 L310.8281,201.4688 C310.8281,201.0313 310.8125,200.9063 310.7188,200.75 C310.5625,200.4844 310.2813,200.3438 309.9844,200.3438 C309.6875,200.3438 309.4844,200.4375 309.2656,200.75 L309.0938,200.6719 Z " fill="#000000"/><text fill="#000000" font-family="sans-serif" font-size="14" lengthAdjust="spacing" textLength="82" x="327.25" y="209.8467">Mitarbeiter</text><line style="stroke:#A80036;stroke-width:1.0;" x1="167.5" x2="536.5" y1="221" y2="221"/><rect fill="none" height="6" style="stroke:#C82930;stroke-width:1.0;" width="6" x="174.5" y="229"/><text fill="#000000" font-family="sans-serif" font-size="14" lengthAdjust="spacing" textLength="156" x="186.5" y="237.9951">personalNummer : int</text><line style="stroke:#A80036;stroke-width:1.0;" x1="167.5" x2="536.5" y1="245.2969" y2="245.2969"/><ellipse cx="177.5" cy="256.2969" fill="#84BE84" rx="3" ry="3" style="stroke:#038048;stroke-width:1.0;"/><text fill="#000000" font-family="sans-serif" font-size="14" lengthAdjust="spacing" textLength="345" x="186.5" y="262.292">setPersonalNummer(int personalNummer) : void</text><ellipse cx="177.5" cy="272.5938" fill="#84BE84" rx="3" ry="3" style="stroke:#038048;stroke-width:1.0;"/><text fill="#000000" font-family="sans-serif" font-size="14" lengthAdjust="spacing" textLength="190" x="186.5" y="278.5889">getPersonalNummer() : int</text></g><!--MD5=[b68af693cf60e945a9cb87ea33cffb44]
class Lehrer--><g id="elem_Lehrer"><rect codeLine="15" fill="#FEFECE" filter="url(#fujzgw4xbwy5y)" height="113.1875" id="Lehrer" style="stroke:#A80036;stroke-width:1.0;" width="324" x="7" y="371"/><ellipse cx="141.25" cy="387" fill="#ADD1B2" rx="11" ry="11" style="stroke:#A80036;stroke-width:1.0;"/><path d="M143.5938,382.6719 C142.6563,382.2344 142.0625,382.0938 141.1875,382.0938 C138.5625,382.0938 136.5625,384.1719 136.5625,386.8906 L136.5625,388.0156 C136.5625,390.5938 138.6719,392.4844 141.5625,392.4844 C142.7813,392.4844 143.9375,392.1875 144.6875,391.6406 C145.2656,391.2344 145.5938,390.7813 145.5938,390.3906 C145.5938,389.9375 145.2031,389.5469 144.7344,389.5469 C144.5156,389.5469 144.3125,389.625 144.125,389.8125 C143.6719,390.2969 143.6719,390.2969 143.4844,390.3906 C143.0625,390.6563 142.375,390.7813 141.6094,390.7813 C139.5625,390.7813 138.2656,389.6875 138.2656,387.9844 L138.2656,386.8906 C138.2656,385.1094 139.5156,383.7969 141.25,383.7969 C141.8281,383.7969 142.4375,383.9531 142.9063,384.2031 C143.3906,384.4844 143.5625,384.7031 143.6563,385.1094 C143.7188,385.5156 143.75,385.6406 143.8906,385.7656 C144.0313,385.9063 144.2656,386.0156 144.4844,386.0156 C144.75,386.0156 145.0156,385.875 145.1875,385.6563 C145.2969,385.5 145.3281,385.3125 145.3281,384.8906 L145.3281,383.4688 C145.3281,383.0313 145.3125,382.9063 145.2188,382.75 C145.0625,382.4844 144.7813,382.3438 144.4844,382.3438 C144.1875,382.3438 143.9844,382.4375 143.7656,382.75 L143.5938,382.6719 Z " fill="#000000"/><text fill="#000000" font-family="sans-serif" font-size="14" lengthAdjust="spacing" textLength="47" x="161.75" y="391.8467">Lehrer</text><line style="stroke:#A80036;stroke-width:1.0;" x1="8" x2="330" y1="403" y2="403"/><rect fill="none" height="6" style="stroke:#C82930;stroke-width:1.0;" width="6" x="15" y="411"/><text fill="#000000" font-family="sans-serif" font-size="14" lengthAdjust="spacing" textLength="143" x="27" y="419.9951">fachbereich : String</text><line style="stroke:#A80036;stroke-width:1.0;" x1="8" x2="330" y1="427.2969" y2="427.2969"/><ellipse cx="18" cy="438.2969" fill="#84BE84" rx="3" ry="3" style="stroke:#038048;stroke-width:1.0;"/><text fill="#000000" font-family="sans-serif" font-size="14" lengthAdjust="spacing" textLength="180" x="27" y="444.292">getFachbereich() : String</text><ellipse cx="18" cy="454.5938" fill="#84BE84" rx="3" ry="3" style="stroke:#038048;stroke-width:1.0;"/><text fill="#000000" font-family="sans-serif" font-size="14" lengthAdjust="spacing" textLength="298" x="27" y="460.5889">setFachbereich(String fachbereich) : void</text><ellipse cx="18" cy="470.8906" fill="#84BE84" rx="3" ry="3" style="stroke:#038048;stroke-width:1.0;"/><text fill="#000000" font-family="sans-serif" font-size="14" lengthAdjust="spacing" textLength="139" x="27" y="476.8857">vorstellen() : String</text></g><!--MD5=[3b163f382fcb0a60af2759cb55ad0fea]
class Angestellte--><g id="elem_Angestellte"><rect codeLine="21" fill="#FEFECE" filter="url(#fujzgw4xbwy5y)" height="113.1875" id="Angestellte" style="stroke:#A80036;stroke-width:1.0;" width="338" x="366" y="371"/><ellipse cx="488.75" cy="387" fill="#ADD1B2" rx="11" ry="11" style="stroke:#A80036;stroke-width:1.0;"/><path d="M491.0938,382.6719 C490.1563,382.2344 489.5625,382.0938 488.6875,382.0938 C486.0625,382.0938 484.0625,384.1719 484.0625,386.8906 L484.0625,388.0156 C484.0625,390.5938 486.1719,392.4844 489.0625,392.4844 C490.2813,392.4844 491.4375,392.1875 492.1875,391.6406 C492.7656,391.2344 493.0938,390.7813 493.0938,390.3906 C493.0938,389.9375 492.7031,389.5469 492.2344,389.5469 C492.0156,389.5469 491.8125,389.625 491.625,389.8125 C491.1719,390.2969 491.1719,390.2969 490.9844,390.3906 C490.5625,390.6563 489.875,390.7813 489.1094,390.7813 C487.0625,390.7813 485.7656,389.6875 485.7656,387.9844 L485.7656,386.8906 C485.7656,385.1094 487.0156,383.7969 488.75,383.7969 C489.3281,383.7969 489.9375,383.9531 490.4063,384.2031 C490.8906,384.4844 491.0625,384.7031 491.1563,385.1094 C491.2188,385.5156 491.25,385.6406 491.3906,385.7656 C491.5313,385.9063 491.7656,386.0156 491.9844,386.0156 C492.25,386.0156 492.5156,385.875 492.6875,385.6563 C492.7969,385.5 492.8281,385.3125 492.8281,384.8906 L492.8281,383.4688 C492.8281,383.0313 492.8125,382.9063 492.7188,382.75 C492.5625,382.4844 492.2813,382.3438 491.9844,382.3438 C491.6875,382.3438 491.4844,382.4375 491.2656,382.75 L491.0938,382.6719 Z " fill="#000000"/><text fill="#000000" font-family="sans-serif" font-size="14" lengthAdjust="spacing" textLength="84" x="509.25" y="391.8467">Angestellte</text><line style="stroke:#A80036;stroke-width:1.0;" x1="367" x2="703" y1="403" y2="403"/><rect fill="none" height="6" style="stroke:#C82930;stroke-width:1.0;" width="6" x="374" y="411"/><text fill="#000000" font-family="sans-serif" font-size="14" lengthAdjust="spacing" textLength="157" x="386" y="419.9951">schulleitung : boolean</text><line style="stroke:#A80036;stroke-width:1.0;" x1="367" x2="703" y1="427.2969" y2="427.2969"/><ellipse cx="377" cy="438.2969" fill="#84BE84" rx="3" ry="3" style="stroke:#038048;stroke-width:1.0;"/><text fill="#000000" font-family="sans-serif" font-size="14" lengthAdjust="spacing" textLength="312" x="386" y="444.292">setSchulleitung(boolean schulleitung) : void</text><ellipse cx="377" cy="454.5938" fill="#84BE84" rx="3" ry="3" style="stroke:#038048;stroke-width:1.0;"/><text fill="#000000" font-family="sans-serif" font-size="14" lengthAdjust="spacing" textLength="180" x="386" y="460.5889">isSchulleitung() : boolean</text><ellipse cx="377" cy="470.8906" fill="#84BE84" rx="3" ry="3" style="stroke:#038048;stroke-width:1.0;"/><text fill="#000000" font-family="sans-serif" font-size="14" lengthAdjust="spacing" textLength="139" x="386" y="476.8857">vorstellen() : String</text></g><!--MD5=[e0c77432632b1b568746454dd033b200]
class Lernende--><g id="elem_Lernende"><rect codeLine="27" fill="#FEFECE" filter="url(#fujzgw4xbwy5y)" height="113.1875" id="Lernende" style="stroke:#A80036;stroke-width:1.0;" width="247" x="572.5" y="181"/><ellipse cx="657.75" cy="197" fill="#ADD1B2" rx="11" ry="11" style="stroke:#A80036;stroke-width:1.0;"/><path d="M660.0938,192.6719 C659.1563,192.2344 658.5625,192.0938 657.6875,192.0938 C655.0625,192.0938 653.0625,194.1719 653.0625,196.8906 L653.0625,198.0156 C653.0625,200.5938 655.1719,202.4844 658.0625,202.4844 C659.2813,202.4844 660.4375,202.1875 661.1875,201.6406 C661.7656,201.2344 662.0938,200.7813 662.0938,200.3906 C662.0938,199.9375 661.7031,199.5469 661.2344,199.5469 C661.0156,199.5469 660.8125,199.625 660.625,199.8125 C660.1719,200.2969 660.1719,200.2969 659.9844,200.3906 C659.5625,200.6563 658.875,200.7813 658.1094,200.7813 C656.0625,200.7813 654.7656,199.6875 654.7656,197.9844 L654.7656,196.8906 C654.7656,195.1094 656.0156,193.7969 657.75,193.7969 C658.3281,193.7969 658.9375,193.9531 659.4063,194.2031 C659.8906,194.4844 660.0625,194.7031 660.1563,195.1094 C660.2188,195.5156 660.25,195.6406 660.3906,195.7656 C660.5313,195.9063 660.7656,196.0156 660.9844,196.0156 C661.25,196.0156 661.5156,195.875 661.6875,195.6563 C661.7969,195.5 661.8281,195.3125 661.8281,194.8906 L661.8281,193.4688 C661.8281,193.0313 661.8125,192.9063 661.7188,192.75 C661.5625,192.4844 661.2813,192.3438 660.9844,192.3438 C660.6875,192.3438 660.4844,192.4375 660.2656,192.75 L660.0938,192.6719 Z " fill="#000000"/><text fill="#000000" font-family="sans-serif" font-size="14" lengthAdjust="spacing" textLength="68" x="678.25" y="201.8467">Lernende</text><line style="stroke:#A80036;stroke-width:1.0;" x1="573.5" x2="818.5" y1="213" y2="213"/><rect fill="none" height="6" style="stroke:#C82930;stroke-width:1.0;" width="6" x="580.5" y="221"/><text fill="#000000" font-family="sans-serif" font-size="14" lengthAdjust="spacing" textLength="93" x="592.5" y="229.9951">nummer : int</text><line style="stroke:#A80036;stroke-width:1.0;" x1="573.5" x2="818.5" y1="237.2969" y2="237.2969"/><ellipse cx="583.5" cy="248.2969" fill="#84BE84" rx="3" ry="3" style="stroke:#038048;stroke-width:1.0;"/><text fill="#000000" font-family="sans-serif" font-size="14" lengthAdjust="spacing" textLength="221" x="592.5" y="254.292">setNummer(int nummer) : void</text><ellipse cx="583.5" cy="264.5938" fill="#84BE84" rx="3" ry="3" style="stroke:#038048;stroke-width:1.0;"/><text fill="#000000" font-family="sans-serif" font-size="14" lengthAdjust="spacing" textLength="129" x="592.5" y="270.5889">getNummer() : int</text><ellipse cx="583.5" cy="280.8906" fill="#84BE84" rx="3" ry="3" style="stroke:#038048;stroke-width:1.0;"/><text fill="#000000" font-family="sans-serif" font-size="14" lengthAdjust="spacing" textLength="139" x="592.5" y="286.8857">vorstellen() : String</text></g><!--MD5=[b55e1fc4f5ed1150be76a7fd4391a706]
reverse link Person to Mitarbeiter--><g id="link_Person_Mitarbeiter"><path codeLine="34" d="M508.843,116.365 C478.137,139.885 443.378,166.509 414.399,188.705 " fill="none" id="Person-backto-Mitarbeiter" style="stroke:#A80036;stroke-width:1.0;"/><polygon fill="none" points="504.815,110.633,524.949,104.028,513.328,121.747,504.815,110.633" style="stroke:#A80036;stroke-width:1.0;"/><text fill="#000000" font-family="sans-serif" font-size="13" lengthAdjust="spacing" textLength="52" x="484" y="147.0669">extends</text></g><!--MD5=[9c834ccf53bee16c2f5ff79eb16bfce4]
reverse link Person to Lernende--><g id="link_Person_Lernende"><path codeLine="35" d="M626.373,121.52 C638.141,140.953 650.93,162.073 662.299,180.847 " fill="none" id="Person-backto-Lernende" style="stroke:#A80036;stroke-width:1.0;"/><polygon fill="none" points="620.296,124.998,615.924,104.264,632.271,117.746,620.296,124.998" style="stroke:#A80036;stroke-width:1.0;"/><text fill="#000000" font-family="sans-serif" font-size="13" lengthAdjust="spacing" textLength="52" x="642" y="147.0669">extends</text></g><!--MD5=[5f8c01e2d598d3d40cae6158d4529506]
reverse link Mitarbeiter to Lehrer--><g id="link_Mitarbeiter_Lehrer"><path codeLine="36" d="M291.303,300.855 C269.241,323.52 244.475,348.962 223.029,370.995 " fill="none" id="Mitarbeiter-backto-Lehrer" style="stroke:#A80036;stroke-width:1.0;"/><polygon fill="none" points="286.382,295.876,305.348,286.427,296.414,305.641,286.382,295.876" style="stroke:#A80036;stroke-width:1.0;"/><text fill="#000000" font-family="sans-serif" font-size="13" lengthAdjust="spacing" textLength="52" x="267" y="337.0669">extends</text></g><!--MD5=[cb25b1e4020e44f278560a480684987c]
reverse link Mitarbeiter to Angestellte--><g id="link_Mitarbeiter_Angestellte"><path codeLine="37" d="M412.697,300.855 C434.759,323.52 459.525,348.962 480.971,370.995 " fill="none" id="Mitarbeiter-backto-Angestellte" style="stroke:#A80036;stroke-width:1.0;"/><polygon fill="none" points="407.586,305.641,398.652,286.427,417.618,295.876,407.586,305.641" style="stroke:#A80036;stroke-width:1.0;"/><text fill="#000000" font-family="sans-serif" font-size="13" lengthAdjust="spacing" textLength="52" x="449" y="337.0669">extends</text></g><!--MD5=[78ee743a8ceed64cf65caa652007e0a0]
@startuml
skin rose
class App {
    + main(String[] args) : void
}
class Person {
    - nachname : String
    + setNachname(String nachname) : void
    + getNachname() : String
}
class Mitarbeiter {
    - personalNummer : int
    + setPersonalNummer(int personalNummer) : void
    + getPersonalNummer() : int
}
class Lehrer {
    - fachbereich : String
    + getFachbereich() : String 
    + setFachbereich(String fachbereich) : void
    + vorstellen() : String
}
class Angestellte {
    - schulleitung : boolean
    + setSchulleitung(boolean schulleitung) : void
    + isSchulleitung() : boolean
    + vorstellen() : String
}
class Lernende {
    - nummer : int 
    + setNummer(int nummer) : void
    + getNummer() : int
    + vorstellen() : String
}

Person <|- - Mitarbeiter : "extends"
Person <|- - Lernende : "extends"
Mitarbeiter <|- - Lehrer : "extends"
Mitarbeiter <|- - Angestellte : "extends"
@enduml

PlantUML version 1.2022.2(Sat Mar 05 16:30:19 UTC 2022)
(GPL source distribution)
Java Runtime: Java(TM) SE Runtime Environment
JVM: Java HotSpot(TM) 64-Bit Server VM
Default Encoding: UTF-8
Language: en
Country: US
--></g></svg>