<?xml version="1.0" encoding="UTF-8" standalone="no"?>
<svg xmlns="http://www.w3.org/2000/svg" xmlns:xlink="http://www.w3.org/1999/xlink" contentStyleType="text/css" height="357px" preserveAspectRatio="none" style="width:997px;height:357px;background:#FFFFFF;" version="1.1" viewBox="0 0 997 357" width="997px" zoomAndPan="magnify"><defs><filter height="300%" id="f1w55uokdzn0gb" width="300%" x="-1" y="-1"><feGaussianBlur result="blurOut" stdDeviation="2.0"/><feColorMatrix in="blurOut" result="blurOut2" type="matrix" values="0 0 0 0 0 0 0 0 0 0 0 0 0 0 0 0 0 0 .4 0"/><feOffset dx="4.0" dy="4.0" in="blurOut2" result="blurOut3"/><feBlend in="SourceGraphic" in2="blurOut3" mode="normal"/></filter></defs><g><!--MD5=[335f4d9be48430461c68bf6d6fdba145]
class App--><g id="elem_App"><rect codeLine="2" fill="#FEFECE" filter="url(#f1w55uokdzn0gb)" height="64.2969" id="App" style="stroke:#A80036;stroke-width:1.0;" width="202" x="232" y="23.5"/><ellipse cx="313.75" cy="39.5" fill="#ADD1B2" rx="11" ry="11" style="stroke:#A80036;stroke-width:1.0;"/><path d="M316.0938,35.1719 C315.1563,34.7344 314.5625,34.5938 313.6875,34.5938 C311.0625,34.5938 309.0625,36.6719 309.0625,39.3906 L309.0625,40.5156 C309.0625,43.0938 311.1719,44.9844 314.0625,44.9844 C315.2813,44.9844 316.4375,44.6875 317.1875,44.1406 C317.7656,43.7344 318.0938,43.2813 318.0938,42.8906 C318.0938,42.4375 317.7031,42.0469 317.2344,42.0469 C317.0156,42.0469 316.8125,42.125 316.625,42.3125 C316.1719,42.7969 316.1719,42.7969 315.9844,42.8906 C315.5625,43.1563 314.875,43.2813 314.1094,43.2813 C312.0625,43.2813 310.7656,42.1875 310.7656,40.4844 L310.7656,39.3906 C310.7656,37.6094 312.0156,36.2969 313.75,36.2969 C314.3281,36.2969 314.9375,36.4531 315.4063,36.7031 C315.8906,36.9844 316.0625,37.2031 316.1563,37.6094 C316.2188,38.0156 316.25,38.1406 316.3906,38.2656 C316.5313,38.4063 316.7656,38.5156 316.9844,38.5156 C317.25,38.5156 317.5156,38.375 317.6875,38.1563 C317.7969,38 317.8281,37.8125 317.8281,37.3906 L317.8281,35.9688 C317.8281,35.5313 317.8125,35.4063 317.7188,35.25 C317.5625,34.9844 317.2813,34.8438 316.9844,34.8438 C316.6875,34.8438 316.4844,34.9375 316.2656,35.25 L316.0938,35.1719 Z " fill="#000000"/><text fill="#000000" font-family="sans-serif" font-size="14" lengthAdjust="spacing" textLength="30" x="334.25" y="44.3467">App</text><line style="stroke:#A80036;stroke-width:1.0;" x1="233" x2="433" y1="55.5" y2="55.5"/><line style="stroke:#A80036;stroke-width:1.0;" x1="233" x2="433" y1="63.5" y2="63.5"/><ellipse cx="243" cy="74.5" fill="#84BE84" rx="3" ry="3" style="stroke:#038048;stroke-width:1.0;"/><text fill="#000000" font-family="sans-serif" font-size="14" lengthAdjust="spacing" textLength="176" x="252" y="80.4951">main(String[] args) : void</text></g><!--MD5=[9b7aafb9fcb71352b6fae080db84fe98]
class GeomObject--><g id="elem_GeomObject"><rect codeLine="6" fill="#FEFECE" filter="url(#f1w55uokdzn0gb)" height="96.8906" id="GeomObject" style="stroke:#A80036;stroke-width:1.0;" width="165" x="469.5" y="7"/><ellipse cx="502.95" cy="23" fill="#ADD1B2" rx="11" ry="11" style="stroke:#A80036;stroke-width:1.0;"/><path d="M505.2938,18.6719 C504.3563,18.2344 503.7625,18.0938 502.8875,18.0938 C500.2625,18.0938 498.2625,20.1719 498.2625,22.8906 L498.2625,24.0156 C498.2625,26.5938 500.3719,28.4844 503.2625,28.4844 C504.4813,28.4844 505.6375,28.1875 506.3875,27.6406 C506.9656,27.2344 507.2938,26.7813 507.2938,26.3906 C507.2938,25.9375 506.9031,25.5469 506.4344,25.5469 C506.2156,25.5469 506.0125,25.625 505.825,25.8125 C505.3719,26.2969 505.3719,26.2969 505.1844,26.3906 C504.7625,26.6563 504.075,26.7813 503.3094,26.7813 C501.2625,26.7813 499.9656,25.6875 499.9656,23.9844 L499.9656,22.8906 C499.9656,21.1094 501.2156,19.7969 502.95,19.7969 C503.5281,19.7969 504.1375,19.9531 504.6063,20.2031 C505.0906,20.4844 505.2625,20.7031 505.3563,21.1094 C505.4188,21.5156 505.45,21.6406 505.5906,21.7656 C505.7313,21.9063 505.9656,22.0156 506.1844,22.0156 C506.45,22.0156 506.7156,21.875 506.8875,21.6563 C506.9969,21.5 507.0281,21.3125 507.0281,20.8906 L507.0281,19.4688 C507.0281,19.0313 507.0125,18.9063 506.9188,18.75 C506.7625,18.4844 506.4813,18.3438 506.1844,18.3438 C505.8875,18.3438 505.6844,18.4375 505.4656,18.75 L505.2938,18.6719 Z " fill="#000000"/><text fill="#000000" font-family="sans-serif" font-size="14" lengthAdjust="spacing" textLength="92" x="521.05" y="27.8467">GeomObject</text><line style="stroke:#A80036;stroke-width:1.0;" x1="470.5" x2="633.5" y1="39" y2="39"/><polygon fill="none" points="480.5,45,484.5,49,480.5,53,476.5,49" style="stroke:#B38D22;stroke-width:1.0;"/><text fill="#000000" font-family="sans-serif" font-size="14" lengthAdjust="spacing" textLength="115" x="489.5" y="55.9951">flaeche : double</text><polygon fill="none" points="480.5,61.2969,484.5,65.2969,480.5,69.2969,476.5,65.2969" style="stroke:#B38D22;stroke-width:1.0;"/><text fill="#000000" font-family="sans-serif" font-size="14" lengthAdjust="spacing" textLength="116" x="489.5" y="72.292">umfang : double</text><line style="stroke:#A80036;stroke-width:1.0;" x1="470.5" x2="633.5" y1="79.5938" y2="79.5938"/><ellipse cx="480.5" cy="90.5938" fill="#84BE84" rx="3" ry="3" style="stroke:#038048;stroke-width:1.0;"/><text fill="#000000" font-family="sans-serif" font-size="14" lengthAdjust="spacing" textLength="139" x="489.5" y="96.5889">vorstellen() : String</text></g><!--MD5=[03a0fe4433a18937022116fd655695dd]
class RechtWinkligesDreieck--><g id="elem_RechtWinkligesDreieck"><rect codeLine="12" fill="#FEFECE" filter="url(#f1w55uokdzn0gb)" height="162.0781" id="RechtWinkligesDreieck" style="stroke:#A80036;stroke-width:1.0;" width="408" x="7" y="181"/><ellipse cx="122.75" cy="197" fill="#ADD1B2" rx="11" ry="11" style="stroke:#A80036;stroke-width:1.0;"/><path d="M125.0938,192.6719 C124.1563,192.2344 123.5625,192.0938 122.6875,192.0938 C120.0625,192.0938 118.0625,194.1719 118.0625,196.8906 L118.0625,198.0156 C118.0625,200.5938 120.1719,202.4844 123.0625,202.4844 C124.2813,202.4844 125.4375,202.1875 126.1875,201.6406 C126.7656,201.2344 127.0938,200.7813 127.0938,200.3906 C127.0938,199.9375 126.7031,199.5469 126.2344,199.5469 C126.0156,199.5469 125.8125,199.625 125.625,199.8125 C125.1719,200.2969 125.1719,200.2969 124.9844,200.3906 C124.5625,200.6563 123.875,200.7813 123.1094,200.7813 C121.0625,200.7813 119.7656,199.6875 119.7656,197.9844 L119.7656,196.8906 C119.7656,195.1094 121.0156,193.7969 122.75,193.7969 C123.3281,193.7969 123.9375,193.9531 124.4063,194.2031 C124.8906,194.4844 125.0625,194.7031 125.1563,195.1094 C125.2188,195.5156 125.25,195.6406 125.3906,195.7656 C125.5313,195.9063 125.7656,196.0156 125.9844,196.0156 C126.25,196.0156 126.5156,195.875 126.6875,195.6563 C126.7969,195.5 126.8281,195.3125 126.8281,194.8906 L126.8281,193.4688 C126.8281,193.0313 126.8125,192.9063 126.7188,192.75 C126.5625,192.4844 126.2813,192.3438 125.9844,192.3438 C125.6875,192.3438 125.4844,192.4375 125.2656,192.75 L125.0938,192.6719 Z " fill="#000000"/><text fill="#000000" font-family="sans-serif" font-size="14" lengthAdjust="spacing" textLength="168" x="143.25" y="201.8467">RechtWinkligesDreieck</text><line style="stroke:#A80036;stroke-width:1.0;" x1="8" x2="414" y1="213" y2="213"/><rect fill="none" height="6" style="stroke:#C82930;stroke-width:1.0;" width="6" x="15" y="221"/><text fill="#000000" font-family="sans-serif" font-size="14" lengthAdjust="spacing" textLength="106" x="27" y="229.9951">seitea : double</text><rect fill="none" height="6" style="stroke:#C82930;stroke-width:1.0;" width="6" x="15" y="237.2969"/><text fill="#000000" font-family="sans-serif" font-size="14" lengthAdjust="spacing" textLength="108" x="27" y="246.292">seiteb : double</text><rect fill="none" height="6" style="stroke:#C82930;stroke-width:1.0;" width="6" x="15" y="253.5938"/><text fill="#000000" font-family="sans-serif" font-size="14" lengthAdjust="spacing" textLength="106" x="27" y="262.5889">seitec : double</text><line style="stroke:#A80036;stroke-width:1.0;" x1="8" x2="414" y1="269.8906" y2="269.8906"/><ellipse cx="18" cy="280.8906" fill="#84BE84" rx="3" ry="3" style="stroke:#038048;stroke-width:1.0;"/><text fill="#000000" font-family="sans-serif" font-size="14" lengthAdjust="spacing" textLength="382" x="27" y="286.8857">RechtWinkligesDreieck(double seitea, double seiteb)</text><ellipse cx="18" cy="297.1875" fill="#84BE84" rx="3" ry="3" style="stroke:#038048;stroke-width:1.0;"/><text fill="#000000" font-family="sans-serif" font-size="14" lengthAdjust="spacing" textLength="177" x="27" y="303.1826">berechneUmfang() : void</text><ellipse cx="18" cy="313.4844" fill="#84BE84" rx="3" ry="3" style="stroke:#038048;stroke-width:1.0;"/><text fill="#000000" font-family="sans-serif" font-size="14" lengthAdjust="spacing" textLength="177" x="27" y="319.4795">berechneFlaeche() : void</text><ellipse cx="18" cy="329.7813" fill="#84BE84" rx="3" ry="3" style="stroke:#038048;stroke-width:1.0;"/><text fill="#000000" font-family="sans-serif" font-size="14" lengthAdjust="spacing" textLength="139" x="27" y="335.7764">vorstellen() : String</text></g><!--MD5=[f80dde173efccedb1a83428966ebfad8]
class Kreis--><g id="elem_Kreis"><rect codeLine="22" fill="#FEFECE" filter="url(#f1w55uokdzn0gb)" height="129.4844" id="Kreis" style="stroke:#A80036;stroke-width:1.0;" width="203" x="450.5" y="197.5"/><ellipse cx="529.75" cy="213.5" fill="#ADD1B2" rx="11" ry="11" style="stroke:#A80036;stroke-width:1.0;"/><path d="M532.0938,209.1719 C531.1563,208.7344 530.5625,208.5938 529.6875,208.5938 C527.0625,208.5938 525.0625,210.6719 525.0625,213.3906 L525.0625,214.5156 C525.0625,217.0938 527.1719,218.9844 530.0625,218.9844 C531.2813,218.9844 532.4375,218.6875 533.1875,218.1406 C533.7656,217.7344 534.0938,217.2813 534.0938,216.8906 C534.0938,216.4375 533.7031,216.0469 533.2344,216.0469 C533.0156,216.0469 532.8125,216.125 532.625,216.3125 C532.1719,216.7969 532.1719,216.7969 531.9844,216.8906 C531.5625,217.1563 530.875,217.2813 530.1094,217.2813 C528.0625,217.2813 526.7656,216.1875 526.7656,214.4844 L526.7656,213.3906 C526.7656,211.6094 528.0156,210.2969 529.75,210.2969 C530.3281,210.2969 530.9375,210.4531 531.4063,210.7031 C531.8906,210.9844 532.0625,211.2031 532.1563,211.6094 C532.2188,212.0156 532.25,212.1406 532.3906,212.2656 C532.5313,212.4063 532.7656,212.5156 532.9844,212.5156 C533.25,212.5156 533.5156,212.375 533.6875,212.1563 C533.7969,212 533.8281,211.8125 533.8281,211.3906 L533.8281,209.9688 C533.8281,209.5313 533.8125,209.4063 533.7188,209.25 C533.5625,208.9844 533.2813,208.8438 532.9844,208.8438 C532.6875,208.8438 532.4844,208.9375 532.2656,209.25 L532.0938,209.1719 Z " fill="#000000"/><text fill="#000000" font-family="sans-serif" font-size="14" lengthAdjust="spacing" textLength="36" x="550.25" y="218.3467">Kreis</text><line style="stroke:#A80036;stroke-width:1.0;" x1="451.5" x2="652.5" y1="229.5" y2="229.5"/><rect fill="none" height="6" style="stroke:#C82930;stroke-width:1.0;" width="6" x="458.5" y="237.5"/><text fill="#000000" font-family="sans-serif" font-size="14" lengthAdjust="spacing" textLength="104" x="470.5" y="246.4951">radius : double</text><line style="stroke:#A80036;stroke-width:1.0;" x1="451.5" x2="652.5" y1="253.7969" y2="253.7969"/><ellipse cx="461.5" cy="264.7969" fill="#84BE84" rx="3" ry="3" style="stroke:#038048;stroke-width:1.0;"/><text fill="#000000" font-family="sans-serif" font-size="14" lengthAdjust="spacing" textLength="141" x="470.5" y="270.792">Kreis(double radius)</text><ellipse cx="461.5" cy="281.0938" fill="#84BE84" rx="3" ry="3" style="stroke:#038048;stroke-width:1.0;"/><text fill="#000000" font-family="sans-serif" font-size="14" lengthAdjust="spacing" textLength="177" x="470.5" y="287.0889">berechneUmfang() : void</text><ellipse cx="461.5" cy="297.3906" fill="#84BE84" rx="3" ry="3" style="stroke:#038048;stroke-width:1.0;"/><text fill="#000000" font-family="sans-serif" font-size="14" lengthAdjust="spacing" textLength="177" x="470.5" y="303.3857">berechneFlaeche() : void</text><ellipse cx="461.5" cy="313.6875" fill="#84BE84" rx="3" ry="3" style="stroke:#038048;stroke-width:1.0;"/><text fill="#000000" font-family="sans-serif" font-size="14" lengthAdjust="spacing" textLength="139" x="470.5" y="319.6826">vorstellen() : String</text></g><!--MD5=[396044bf6f76e4426a176d8833197abb]
class Viereck--><g id="elem_Viereck"><rect codeLine="30" fill="#FEFECE" filter="url(#f1w55uokdzn0gb)" height="145.7813" id="Viereck" style="stroke:#A80036;stroke-width:1.0;" width="295" x="688.5" y="189"/><ellipse cx="804.25" cy="205" fill="#ADD1B2" rx="11" ry="11" style="stroke:#A80036;stroke-width:1.0;"/><path d="M806.5938,200.6719 C805.6563,200.2344 805.0625,200.0938 804.1875,200.0938 C801.5625,200.0938 799.5625,202.1719 799.5625,204.8906 L799.5625,206.0156 C799.5625,208.5938 801.6719,210.4844 804.5625,210.4844 C805.7813,210.4844 806.9375,210.1875 807.6875,209.6406 C808.2656,209.2344 808.5938,208.7813 808.5938,208.3906 C808.5938,207.9375 808.2031,207.5469 807.7344,207.5469 C807.5156,207.5469 807.3125,207.625 807.125,207.8125 C806.6719,208.2969 806.6719,208.2969 806.4844,208.3906 C806.0625,208.6563 805.375,208.7813 804.6094,208.7813 C802.5625,208.7813 801.2656,207.6875 801.2656,205.9844 L801.2656,204.8906 C801.2656,203.1094 802.5156,201.7969 804.25,201.7969 C804.8281,201.7969 805.4375,201.9531 805.9063,202.2031 C806.3906,202.4844 806.5625,202.7031 806.6563,203.1094 C806.7188,203.5156 806.75,203.6406 806.8906,203.7656 C807.0313,203.9063 807.2656,204.0156 807.4844,204.0156 C807.75,204.0156 808.0156,203.875 808.1875,203.6563 C808.2969,203.5 808.3281,203.3125 808.3281,202.8906 L808.3281,201.4688 C808.3281,201.0313 808.3125,200.9063 808.2188,200.75 C808.0625,200.4844 807.7813,200.3438 807.4844,200.3438 C807.1875,200.3438 806.9844,200.4375 806.7656,200.75 L806.5938,200.6719 Z " fill="#000000"/><text fill="#000000" font-family="sans-serif" font-size="14" lengthAdjust="spacing" textLength="55" x="824.75" y="209.8467">Viereck</text><line style="stroke:#A80036;stroke-width:1.0;" x1="689.5" x2="982.5" y1="221" y2="221"/><rect fill="none" height="6" style="stroke:#C82930;stroke-width:1.0;" width="6" x="696.5" y="229"/><text fill="#000000" font-family="sans-serif" font-size="14" lengthAdjust="spacing" textLength="106" x="708.5" y="237.9951">seitea : double</text><rect fill="none" height="6" style="stroke:#C82930;stroke-width:1.0;" width="6" x="696.5" y="245.2969"/><text fill="#000000" font-family="sans-serif" font-size="14" lengthAdjust="spacing" textLength="108" x="708.5" y="254.292">seiteb : double</text><line style="stroke:#A80036;stroke-width:1.0;" x1="689.5" x2="982.5" y1="261.5938" y2="261.5938"/><ellipse cx="699.5" cy="272.5938" fill="#84BE84" rx="3" ry="3" style="stroke:#038048;stroke-width:1.0;"/><text fill="#000000" font-family="sans-serif" font-size="14" lengthAdjust="spacing" textLength="269" x="708.5" y="278.5889">Viereck(double seitea, double seiteb)</text><ellipse cx="699.5" cy="288.8906" fill="#84BE84" rx="3" ry="3" style="stroke:#038048;stroke-width:1.0;"/><text fill="#000000" font-family="sans-serif" font-size="14" lengthAdjust="spacing" textLength="177" x="708.5" y="294.8857">berechneUmfang() : void</text><ellipse cx="699.5" cy="305.1875" fill="#84BE84" rx="3" ry="3" style="stroke:#038048;stroke-width:1.0;"/><text fill="#000000" font-family="sans-serif" font-size="14" lengthAdjust="spacing" textLength="177" x="708.5" y="311.1826">berechneFlaeche() : void</text><ellipse cx="699.5" cy="321.4844" fill="#84BE84" rx="3" ry="3" style="stroke:#038048;stroke-width:1.0;"/><text fill="#000000" font-family="sans-serif" font-size="14" lengthAdjust="spacing" textLength="139" x="708.5" y="327.4795">vorstellen() : String</text></g><!--MD5=[10581e5006cfa7f2fd20752adf4b1d3e]
reverse link GeomObject to RechtWinkligesDreieck--><g id="link_GeomObject_RechtWinkligesDreieck"><path codeLine="39" d="M454.996,114.674 C420.626,135.286 381.328,158.853 344.459,180.964 " fill="none" id="GeomObject-backto-RechtWinkligesDreieck" style="stroke:#A80036;stroke-width:1.0;"/><polygon fill="none" points="451.729,108.471,472.481,104.188,458.929,120.478,451.729,108.471" style="stroke:#A80036;stroke-width:1.0;"/><text fill="#000000" font-family="sans-serif" font-size="13" lengthAdjust="spacing" textLength="52" x="424" y="147.0669">extends</text></g><!--MD5=[182650b626c9f9b54d6d8408b521b6d6]
reverse link GeomObject to Kreis--><g id="link_GeomObject_Kreis"><path codeLine="40" d="M552,124.415 C552,147.922 552,174.168 552,197.322 " fill="none" id="GeomObject-backto-Kreis" style="stroke:#A80036;stroke-width:1.0;"/><polygon fill="none" points="545,124.188,552,104.188,559,124.188,545,124.188" style="stroke:#A80036;stroke-width:1.0;"/><text fill="#000000" font-family="sans-serif" font-size="13" lengthAdjust="spacing" textLength="52" x="553" y="147.0669">extends</text></g><!--MD5=[7fca0353f43b37ecf8cc0a1a84c3f1ec]
reverse link GeomObject to Viereck--><g id="link_GeomObject_Viereck"><path codeLine="41" d="M634.778,116.106 C666.421,138.891 702.844,165.118 735.93,188.943 " fill="none" id="GeomObject-backto-Viereck" style="stroke:#A80036;stroke-width:1.0;"/><polygon fill="none" points="630.367,121.556,618.227,104.188,638.548,110.194,630.367,121.556" style="stroke:#A80036;stroke-width:1.0;"/><text fill="#000000" font-family="sans-serif" font-size="13" lengthAdjust="spacing" textLength="52" x="677" y="147.0669">extends</text></g><!--MD5=[d3bfd8cf45d3938dccdb0e38a4e879ef]
@startuml
skin rose
class App {
    + main(String[] args) : void
}

class GeomObject {
    # flaeche : double
    # umfang : double
    + vorstellen() : String
}

class RechtWinkligesDreieck {
    - seitea : double
    - seiteb : double
    - seitec : double
    + RechtWinkligesDreieck(double seitea, double seiteb)
    + berechneUmfang() : void
    + berechneFlaeche() : void
    + vorstellen() : String
}

class Kreis {
    - radius : double
    + Kreis(double radius)
    + berechneUmfang() : void
    + berechneFlaeche() : void
    + vorstellen() : String
}

class Viereck {
    - seitea : double
    - seiteb : double
    + Viereck(double seitea, double seiteb)
    + berechneUmfang() : void
    + berechneFlaeche() : void
    + vorstellen() : String
}

GeomObject <|- - RechtWinkligesDreieck : "extends"
GeomObject <|- - Kreis : "extends"
GeomObject <|- - Viereck : "extends"
@enduml

PlantUML version 1.2022.2(Sat Mar 05 16:30:19 UTC 2022)
(GPL source distribution)
Java Runtime: Java(TM) SE Runtime Environment
JVM: Java HotSpot(TM) 64-Bit Server VM
Default Encoding: UTF-8
Language: en
Country: US
--></g></svg>