<?xml version="1.0" encoding="UTF-8" standalone="no"?>
<svg xmlns="http://www.w3.org/2000/svg" xmlns:xlink="http://www.w3.org/1999/xlink" contentStyleType="text/css" height="775px" preserveAspectRatio="none" style="width:993px;height:775px;background:#FFFFFF;" version="1.1" viewBox="0 0 993 775" width="993px" zoomAndPan="magnify"><defs><filter height="300%" id="f13nksd8r31v0g" width="300%" x="-1" y="-1"><feGaussianBlur result="blurOut" stdDeviation="2.0"/><feColorMatrix in="blurOut" result="blurOut2" type="matrix" values="0 0 0 0 0 0 0 0 0 0 0 0 0 0 0 0 0 0 .4 0"/><feOffset dx="4.0" dy="4.0" in="blurOut2" result="blurOut3"/><feBlend in="SourceGraphic" in2="blurOut3" mode="normal"/></filter></defs><g><!--MD5=[335f4d9be48430461c68bf6d6fdba145]
class App--><g id="elem_App"><rect codeLine="2" fill="#FEFECE" filter="url(#f13nksd8r31v0g)" height="64.2969" id="App" style="stroke:#A80036;stroke-width:1.0;" width="202" x="356.5" y="97"/><ellipse cx="438.25" cy="113" fill="#ADD1B2" rx="11" ry="11" style="stroke:#A80036;stroke-width:1.0;"/><path d="M440.5938,108.6719 C439.6563,108.2344 439.0625,108.0938 438.1875,108.0938 C435.5625,108.0938 433.5625,110.1719 433.5625,112.8906 L433.5625,114.0156 C433.5625,116.5938 435.6719,118.4844 438.5625,118.4844 C439.7813,118.4844 440.9375,118.1875 441.6875,117.6406 C442.2656,117.2344 442.5938,116.7813 442.5938,116.3906 C442.5938,115.9375 442.2031,115.5469 441.7344,115.5469 C441.5156,115.5469 441.3125,115.625 441.125,115.8125 C440.6719,116.2969 440.6719,116.2969 440.4844,116.3906 C440.0625,116.6563 439.375,116.7813 438.6094,116.7813 C436.5625,116.7813 435.2656,115.6875 435.2656,113.9844 L435.2656,112.8906 C435.2656,111.1094 436.5156,109.7969 438.25,109.7969 C438.8281,109.7969 439.4375,109.9531 439.9063,110.2031 C440.3906,110.4844 440.5625,110.7031 440.6563,111.1094 C440.7188,111.5156 440.75,111.6406 440.8906,111.7656 C441.0313,111.9063 441.2656,112.0156 441.4844,112.0156 C441.75,112.0156 442.0156,111.875 442.1875,111.6563 C442.2969,111.5 442.3281,111.3125 442.3281,110.8906 L442.3281,109.4688 C442.3281,109.0313 442.3125,108.9063 442.2188,108.75 C442.0625,108.4844 441.7813,108.3438 441.4844,108.3438 C441.1875,108.3438 440.9844,108.4375 440.7656,108.75 L440.5938,108.6719 Z " fill="#000000"/><text fill="#000000" font-family="sans-serif" font-size="14" lengthAdjust="spacing" textLength="30" x="458.75" y="117.8467">App</text><line style="stroke:#A80036;stroke-width:1.0;" x1="357.5" x2="557.5" y1="129" y2="129"/><line style="stroke:#A80036;stroke-width:1.0;" x1="357.5" x2="557.5" y1="137" y2="137"/><ellipse cx="367.5" cy="148" fill="#84BE84" rx="3" ry="3" style="stroke:#038048;stroke-width:1.0;"/><text fill="#000000" font-family="sans-serif" font-size="14" lengthAdjust="spacing" textLength="176" x="376.5" y="153.9951">main(String[] args) : void</text></g><!--MD5=[09ce52be0ee7de43c61b6e2d59bf108b]
class Person--><g id="elem_Person"><rect codeLine="5" fill="#FEFECE" filter="url(#f13nksd8r31v0g)" height="243.5625" id="Person" style="stroke:#A80036;stroke-width:1.0;" width="299" x="594" y="7"/><ellipse cx="714.75" cy="23" fill="#ADD1B2" rx="11" ry="11" style="stroke:#A80036;stroke-width:1.0;"/><path d="M717.0938,18.6719 C716.1563,18.2344 715.5625,18.0938 714.6875,18.0938 C712.0625,18.0938 710.0625,20.1719 710.0625,22.8906 L710.0625,24.0156 C710.0625,26.5938 712.1719,28.4844 715.0625,28.4844 C716.2813,28.4844 717.4375,28.1875 718.1875,27.6406 C718.7656,27.2344 719.0938,26.7813 719.0938,26.3906 C719.0938,25.9375 718.7031,25.5469 718.2344,25.5469 C718.0156,25.5469 717.8125,25.625 717.625,25.8125 C717.1719,26.2969 717.1719,26.2969 716.9844,26.3906 C716.5625,26.6563 715.875,26.7813 715.1094,26.7813 C713.0625,26.7813 711.7656,25.6875 711.7656,23.9844 L711.7656,22.8906 C711.7656,21.1094 713.0156,19.7969 714.75,19.7969 C715.3281,19.7969 715.9375,19.9531 716.4063,20.2031 C716.8906,20.4844 717.0625,20.7031 717.1563,21.1094 C717.2188,21.5156 717.25,21.6406 717.3906,21.7656 C717.5313,21.9063 717.7656,22.0156 717.9844,22.0156 C718.25,22.0156 718.5156,21.875 718.6875,21.6563 C718.7969,21.5 718.8281,21.3125 718.8281,20.8906 L718.8281,19.4688 C718.8281,19.0313 718.8125,18.9063 718.7188,18.75 C718.5625,18.4844 718.2813,18.3438 717.9844,18.3438 C717.6875,18.3438 717.4844,18.4375 717.2656,18.75 L717.0938,18.6719 Z " fill="#000000"/><text fill="#000000" font-family="sans-serif" font-size="14" lengthAdjust="spacing" textLength="49" x="735.25" y="27.8467">Person</text><line style="stroke:#A80036;stroke-width:1.0;" x1="595" x2="892" y1="39" y2="39"/><polygon fill="none" points="605,45,609,49,605,53,601,49" style="stroke:#B38D22;stroke-width:1.0;"/><text fill="#000000" font-family="sans-serif" font-size="14" lengthAdjust="spacing" textLength="131" x="614" y="55.9951">nachname : String</text><rect fill="none" height="6" style="stroke:#C82930;stroke-width:1.0;" width="6" x="602" y="63.2969"/><text fill="#000000" font-family="sans-serif" font-size="14" lengthAdjust="spacing" textLength="144" x="614" y="72.292">ehepartner : Person</text><line style="stroke:#A80036;stroke-width:1.0;" x1="595" x2="892" y1="79.5938" y2="79.5938"/><polygon fill="#FFFF44" points="605,85.5938,609,89.5938,605,93.5938,601,89.5938" style="stroke:#B38D22;stroke-width:1.0;"/><text fill="#000000" font-family="sans-serif" font-size="14" lengthAdjust="spacing" textLength="181" x="614" y="96.5889">Person(String nachname)</text><ellipse cx="605" cy="106.8906" fill="#84BE84" rx="3" ry="3" style="stroke:#038048;stroke-width:1.0;"/><text fill="#000000" font-family="sans-serif" font-size="14" lengthAdjust="spacing" textLength="273" x="614" y="112.8857">setNachname(String nachname) : void</text><ellipse cx="605" cy="123.1875" fill="#84BE84" rx="3" ry="3" style="stroke:#038048;stroke-width:1.0;"/><text fill="#000000" font-family="sans-serif" font-size="14" lengthAdjust="spacing" textLength="167" x="614" y="129.1826">getNachname() : String</text><ellipse cx="605" cy="139.4844" fill="#84BE84" rx="3" ry="3" style="stroke:#038048;stroke-width:1.0;"/><text fill="#000000" font-family="sans-serif" font-size="14" lengthAdjust="spacing" textLength="139" x="614" y="145.4795">vorstellen() : String</text><polygon fill="#FFFF44" points="605,150.7813,609,154.7813,605,158.7813,601,154.7813" style="stroke:#B38D22;stroke-width:1.0;"/><text fill="#000000" font-family="sans-serif" font-size="14" lengthAdjust="spacing" textLength="249" x="614" y="161.7764">heiraten(Person ehepartner) : void</text><polygon fill="#FFFF44" points="605,167.0781,609,171.0781,605,175.0781,601,171.0781" style="stroke:#B38D22;stroke-width:1.0;"/><text fill="#000000" font-family="sans-serif" font-size="14" lengthAdjust="spacing" textLength="117" x="614" y="178.0732">scheiden() : void</text><ellipse cx="605" cy="188.375" fill="#84BE84" rx="3" ry="3" style="stroke:#038048;stroke-width:1.0;"/><text fill="#000000" font-family="sans-serif" font-size="14" lengthAdjust="spacing" textLength="127" x="614" y="194.3701">toString() : String</text><ellipse cx="605" cy="204.6719" fill="#84BE84" rx="3" ry="3" style="stroke:#038048;stroke-width:1.0;"/><text fill="#000000" font-family="sans-serif" font-size="14" lengthAdjust="spacing" textLength="113" x="614" y="210.667">hashCode() : int</text><ellipse cx="605" cy="220.9688" fill="#84BE84" rx="3" ry="3" style="stroke:#038048;stroke-width:1.0;"/><text fill="#000000" font-family="sans-serif" font-size="14" lengthAdjust="spacing" textLength="202" x="614" y="226.9639">equals(Object obj) : boolean</text><ellipse cx="605" cy="237.2656" fill="#84BE84" rx="3" ry="3" style="stroke:#038048;stroke-width:1.0;"/><text fill="#000000" font-family="sans-serif" font-size="14" lengthAdjust="spacing" textLength="113" x="614" y="243.2607">hashCode() : int</text></g><!--MD5=[cf50a5de139d8ee8ab91969acb1dc454]
class Mitarbeiter--><g id="elem_Mitarbeiter"><rect codeLine="19" fill="#FEFECE" filter="url(#f13nksd8r31v0g)" height="178.375" id="Mitarbeiter" style="stroke:#A80036;stroke-width:1.0;" width="395" x="302" y="328"/><ellipse cx="454.25" cy="344" fill="#ADD1B2" rx="11" ry="11" style="stroke:#A80036;stroke-width:1.0;"/><path d="M456.5938,339.6719 C455.6563,339.2344 455.0625,339.0938 454.1875,339.0938 C451.5625,339.0938 449.5625,341.1719 449.5625,343.8906 L449.5625,345.0156 C449.5625,347.5938 451.6719,349.4844 454.5625,349.4844 C455.7813,349.4844 456.9375,349.1875 457.6875,348.6406 C458.2656,348.2344 458.5938,347.7813 458.5938,347.3906 C458.5938,346.9375 458.2031,346.5469 457.7344,346.5469 C457.5156,346.5469 457.3125,346.625 457.125,346.8125 C456.6719,347.2969 456.6719,347.2969 456.4844,347.3906 C456.0625,347.6563 455.375,347.7813 454.6094,347.7813 C452.5625,347.7813 451.2656,346.6875 451.2656,344.9844 L451.2656,343.8906 C451.2656,342.1094 452.5156,340.7969 454.25,340.7969 C454.8281,340.7969 455.4375,340.9531 455.9063,341.2031 C456.3906,341.4844 456.5625,341.7031 456.6563,342.1094 C456.7188,342.5156 456.75,342.6406 456.8906,342.7656 C457.0313,342.9063 457.2656,343.0156 457.4844,343.0156 C457.75,343.0156 458.0156,342.875 458.1875,342.6563 C458.2969,342.5 458.3281,342.3125 458.3281,341.8906 L458.3281,340.4688 C458.3281,340.0313 458.3125,339.9063 458.2188,339.75 C458.0625,339.4844 457.7813,339.3438 457.4844,339.3438 C457.1875,339.3438 456.9844,339.4375 456.7656,339.75 L456.5938,339.6719 Z " fill="#000000"/><text fill="#000000" font-family="sans-serif" font-size="14" lengthAdjust="spacing" textLength="82" x="474.75" y="348.8467">Mitarbeiter</text><line style="stroke:#A80036;stroke-width:1.0;" x1="303" x2="696" y1="360" y2="360"/><polygon fill="none" points="313,366,317,370,313,374,309,370" style="stroke:#B38D22;stroke-width:1.0;"/><text fill="#000000" font-family="sans-serif" font-size="14" lengthAdjust="spacing" textLength="156" x="322" y="376.9951">personalNummer : int</text><line style="stroke:#A80036;stroke-width:1.0;" x1="303" x2="696" y1="384.2969" y2="384.2969"/><polygon fill="#FFFF44" points="313,390.2969,317,394.2969,313,398.2969,309,394.2969" style="stroke:#B38D22;stroke-width:1.0;"/><text fill="#000000" font-family="sans-serif" font-size="14" lengthAdjust="spacing" textLength="369" x="322" y="401.292">Mitarbeiter(String nachname, int personalNummer)</text><polygon fill="#FFFF44" points="313,406.5938,317,410.5938,313,414.5938,309,410.5938" style="stroke:#B38D22;stroke-width:1.0;"/><text fill="#000000" font-family="sans-serif" font-size="14" lengthAdjust="spacing" textLength="214" x="322" y="417.5889">Mitarbeiter(String nachname)</text><ellipse cx="313" cy="427.8906" fill="#84BE84" rx="3" ry="3" style="stroke:#038048;stroke-width:1.0;"/><text fill="#000000" font-family="sans-serif" font-size="14" lengthAdjust="spacing" textLength="345" x="322" y="433.8857">setPersonalNummer(int personalNummer) : void</text><ellipse cx="313" cy="444.1875" fill="#84BE84" rx="3" ry="3" style="stroke:#038048;stroke-width:1.0;"/><text fill="#000000" font-family="sans-serif" font-size="14" lengthAdjust="spacing" textLength="190" x="322" y="450.1826">getPersonalNummer() : int</text><ellipse cx="313" cy="460.4844" fill="#84BE84" rx="3" ry="3" style="stroke:#038048;stroke-width:1.0;"/><text fill="#000000" font-family="sans-serif" font-size="14" lengthAdjust="spacing" textLength="139" x="322" y="466.4795">vorstellen() : String</text><ellipse cx="313" cy="476.7813" fill="#84BE84" rx="3" ry="3" style="stroke:#038048;stroke-width:1.0;"/><text fill="#000000" font-family="sans-serif" font-size="14" lengthAdjust="spacing" textLength="127" x="322" y="482.7764">toString() : String</text><ellipse cx="313" cy="493.0781" fill="#84BE84" rx="3" ry="3" style="stroke:#038048;stroke-width:1.0;"/><text fill="#000000" font-family="sans-serif" font-size="14" lengthAdjust="spacing" textLength="113" x="322" y="499.0732">hashCode() : int</text></g><!--MD5=[b68af693cf60e945a9cb87ea33cffb44]
class Lehrer--><g id="elem_Lehrer"><rect codeLine="29" fill="#FEFECE" filter="url(#f13nksd8r31v0g)" height="178.375" id="Lehrer" style="stroke:#A80036;stroke-width:1.0;" width="501" x="7" y="583"/><ellipse cx="229.75" cy="599" fill="#ADD1B2" rx="11" ry="11" style="stroke:#A80036;stroke-width:1.0;"/><path d="M232.0938,594.6719 C231.1563,594.2344 230.5625,594.0938 229.6875,594.0938 C227.0625,594.0938 225.0625,596.1719 225.0625,598.8906 L225.0625,600.0156 C225.0625,602.5938 227.1719,604.4844 230.0625,604.4844 C231.2813,604.4844 232.4375,604.1875 233.1875,603.6406 C233.7656,603.2344 234.0938,602.7813 234.0938,602.3906 C234.0938,601.9375 233.7031,601.5469 233.2344,601.5469 C233.0156,601.5469 232.8125,601.625 232.625,601.8125 C232.1719,602.2969 232.1719,602.2969 231.9844,602.3906 C231.5625,602.6563 230.875,602.7813 230.1094,602.7813 C228.0625,602.7813 226.7656,601.6875 226.7656,599.9844 L226.7656,598.8906 C226.7656,597.1094 228.0156,595.7969 229.75,595.7969 C230.3281,595.7969 230.9375,595.9531 231.4063,596.2031 C231.8906,596.4844 232.0625,596.7031 232.1563,597.1094 C232.2188,597.5156 232.25,597.6406 232.3906,597.7656 C232.5313,597.9063 232.7656,598.0156 232.9844,598.0156 C233.25,598.0156 233.5156,597.875 233.6875,597.6563 C233.7969,597.5 233.8281,597.3125 233.8281,596.8906 L233.8281,595.4688 C233.8281,595.0313 233.8125,594.9063 233.7188,594.75 C233.5625,594.4844 233.2813,594.3438 232.9844,594.3438 C232.6875,594.3438 232.4844,594.4375 232.2656,594.75 L232.0938,594.6719 Z " fill="#000000"/><text fill="#000000" font-family="sans-serif" font-size="14" lengthAdjust="spacing" textLength="47" x="250.25" y="603.8467">Lehrer</text><line style="stroke:#A80036;stroke-width:1.0;" x1="8" x2="507" y1="615" y2="615"/><rect fill="none" height="6" style="stroke:#C82930;stroke-width:1.0;" width="6" x="15" y="623"/><text fill="#000000" font-family="sans-serif" font-size="14" lengthAdjust="spacing" textLength="143" x="27" y="631.9951">fachbereich : String</text><line style="stroke:#A80036;stroke-width:1.0;" x1="8" x2="507" y1="639.2969" y2="639.2969"/><ellipse cx="18" cy="650.2969" fill="#84BE84" rx="3" ry="3" style="stroke:#038048;stroke-width:1.0;"/><text fill="#000000" font-family="sans-serif" font-size="14" lengthAdjust="spacing" textLength="321" x="27" y="656.292">Lehrer(String nachname, String fachbereich)</text><ellipse cx="18" cy="666.5938" fill="#84BE84" rx="3" ry="3" style="stroke:#038048;stroke-width:1.0;"/><text fill="#000000" font-family="sans-serif" font-size="14" lengthAdjust="spacing" textLength="333" x="27" y="672.5889">Lehrer(String nachname, int personalnummer)</text><ellipse cx="18" cy="682.8906" fill="#84BE84" rx="3" ry="3" style="stroke:#038048;stroke-width:1.0;"/><text fill="#000000" font-family="sans-serif" font-size="14" lengthAdjust="spacing" textLength="475" x="27" y="688.8857">Lehrer(String nachname, int personalnummer, String fachbereich)</text><ellipse cx="18" cy="699.1875" fill="#84BE84" rx="3" ry="3" style="stroke:#038048;stroke-width:1.0;"/><text fill="#000000" font-family="sans-serif" font-size="14" lengthAdjust="spacing" textLength="180" x="27" y="705.1826">getFachbereich() : String</text><ellipse cx="18" cy="715.4844" fill="#84BE84" rx="3" ry="3" style="stroke:#038048;stroke-width:1.0;"/><text fill="#000000" font-family="sans-serif" font-size="14" lengthAdjust="spacing" textLength="298" x="27" y="721.4795">setFachbereich(String fachbereich) : void</text><ellipse cx="18" cy="731.7813" fill="#84BE84" rx="3" ry="3" style="stroke:#038048;stroke-width:1.0;"/><text fill="#000000" font-family="sans-serif" font-size="14" lengthAdjust="spacing" textLength="139" x="27" y="737.7764">vorstellen() : String</text><ellipse cx="18" cy="748.0781" fill="#84BE84" rx="3" ry="3" style="stroke:#038048;stroke-width:1.0;"/><text fill="#000000" font-family="sans-serif" font-size="14" lengthAdjust="spacing" textLength="127" x="27" y="754.0732">toString() : String</text></g><!--MD5=[3b163f382fcb0a60af2759cb55ad0fea]
class Angestellte--><g id="elem_Angestellte"><rect codeLine="39" fill="#FEFECE" filter="url(#f13nksd8r31v0g)" height="162.0781" id="Angestellte" style="stroke:#A80036;stroke-width:1.0;" width="397" x="543" y="591"/><ellipse cx="695.25" cy="607" fill="#ADD1B2" rx="11" ry="11" style="stroke:#A80036;stroke-width:1.0;"/><path d="M697.5938,602.6719 C696.6563,602.2344 696.0625,602.0938 695.1875,602.0938 C692.5625,602.0938 690.5625,604.1719 690.5625,606.8906 L690.5625,608.0156 C690.5625,610.5938 692.6719,612.4844 695.5625,612.4844 C696.7813,612.4844 697.9375,612.1875 698.6875,611.6406 C699.2656,611.2344 699.5938,610.7813 699.5938,610.3906 C699.5938,609.9375 699.2031,609.5469 698.7344,609.5469 C698.5156,609.5469 698.3125,609.625 698.125,609.8125 C697.6719,610.2969 697.6719,610.2969 697.4844,610.3906 C697.0625,610.6563 696.375,610.7813 695.6094,610.7813 C693.5625,610.7813 692.2656,609.6875 692.2656,607.9844 L692.2656,606.8906 C692.2656,605.1094 693.5156,603.7969 695.25,603.7969 C695.8281,603.7969 696.4375,603.9531 696.9063,604.2031 C697.3906,604.4844 697.5625,604.7031 697.6563,605.1094 C697.7188,605.5156 697.75,605.6406 697.8906,605.7656 C698.0313,605.9063 698.2656,606.0156 698.4844,606.0156 C698.75,606.0156 699.0156,605.875 699.1875,605.6563 C699.2969,605.5 699.3281,605.3125 699.3281,604.8906 L699.3281,603.4688 C699.3281,603.0313 699.3125,602.9063 699.2188,602.75 C699.0625,602.4844 698.7813,602.3438 698.4844,602.3438 C698.1875,602.3438 697.9844,602.4375 697.7656,602.75 L697.5938,602.6719 Z " fill="#000000"/><text fill="#000000" font-family="sans-serif" font-size="14" lengthAdjust="spacing" textLength="84" x="715.75" y="611.8467">Angestellte</text><line style="stroke:#A80036;stroke-width:1.0;" x1="544" x2="939" y1="623" y2="623"/><rect fill="none" height="6" style="stroke:#C82930;stroke-width:1.0;" width="6" x="551" y="631"/><text fill="#000000" font-family="sans-serif" font-size="14" lengthAdjust="spacing" textLength="157" x="563" y="639.9951">schulleitung : boolean</text><line style="stroke:#A80036;stroke-width:1.0;" x1="544" x2="939" y1="647.2969" y2="647.2969"/><ellipse cx="554" cy="658.2969" fill="#84BE84" rx="3" ry="3" style="stroke:#038048;stroke-width:1.0;"/><text fill="#000000" font-family="sans-serif" font-size="14" lengthAdjust="spacing" textLength="216" x="563" y="664.292">Angestellte(String nachname)</text><ellipse cx="554" cy="674.5938" fill="#84BE84" rx="3" ry="3" style="stroke:#038048;stroke-width:1.0;"/><text fill="#000000" font-family="sans-serif" font-size="14" lengthAdjust="spacing" textLength="371" x="563" y="680.5889">Angestellte(String nachname, int personalNummer)</text><ellipse cx="554" cy="690.8906" fill="#84BE84" rx="3" ry="3" style="stroke:#038048;stroke-width:1.0;"/><text fill="#000000" font-family="sans-serif" font-size="14" lengthAdjust="spacing" textLength="312" x="563" y="696.8857">setSchulleitung(boolean schulleitung) : void</text><ellipse cx="554" cy="707.1875" fill="#84BE84" rx="3" ry="3" style="stroke:#038048;stroke-width:1.0;"/><text fill="#000000" font-family="sans-serif" font-size="14" lengthAdjust="spacing" textLength="180" x="563" y="713.1826">isSchulleitung() : boolean</text><ellipse cx="554" cy="723.4844" fill="#84BE84" rx="3" ry="3" style="stroke:#038048;stroke-width:1.0;"/><text fill="#000000" font-family="sans-serif" font-size="14" lengthAdjust="spacing" textLength="139" x="563" y="729.4795">vorstellen() : String</text><ellipse cx="554" cy="739.7813" fill="#84BE84" rx="3" ry="3" style="stroke:#038048;stroke-width:1.0;"/><text fill="#000000" font-family="sans-serif" font-size="14" lengthAdjust="spacing" textLength="127" x="563" y="745.7764">toString() : String</text></g><!--MD5=[e0c77432632b1b568746454dd033b200]
class Lernende--><g id="elem_Lernende"><rect codeLine="48" fill="#FEFECE" filter="url(#f13nksd8r31v0g)" height="162.0781" id="Lernende" style="stroke:#A80036;stroke-width:1.0;" width="247" x="732" y="336"/><ellipse cx="817.25" cy="352" fill="#ADD1B2" rx="11" ry="11" style="stroke:#A80036;stroke-width:1.0;"/><path d="M819.5938,347.6719 C818.6563,347.2344 818.0625,347.0938 817.1875,347.0938 C814.5625,347.0938 812.5625,349.1719 812.5625,351.8906 L812.5625,353.0156 C812.5625,355.5938 814.6719,357.4844 817.5625,357.4844 C818.7813,357.4844 819.9375,357.1875 820.6875,356.6406 C821.2656,356.2344 821.5938,355.7813 821.5938,355.3906 C821.5938,354.9375 821.2031,354.5469 820.7344,354.5469 C820.5156,354.5469 820.3125,354.625 820.125,354.8125 C819.6719,355.2969 819.6719,355.2969 819.4844,355.3906 C819.0625,355.6563 818.375,355.7813 817.6094,355.7813 C815.5625,355.7813 814.2656,354.6875 814.2656,352.9844 L814.2656,351.8906 C814.2656,350.1094 815.5156,348.7969 817.25,348.7969 C817.8281,348.7969 818.4375,348.9531 818.9063,349.2031 C819.3906,349.4844 819.5625,349.7031 819.6563,350.1094 C819.7188,350.5156 819.75,350.6406 819.8906,350.7656 C820.0313,350.9063 820.2656,351.0156 820.4844,351.0156 C820.75,351.0156 821.0156,350.875 821.1875,350.6563 C821.2969,350.5 821.3281,350.3125 821.3281,349.8906 L821.3281,348.4688 C821.3281,348.0313 821.3125,347.9063 821.2188,347.75 C821.0625,347.4844 820.7813,347.3438 820.4844,347.3438 C820.1875,347.3438 819.9844,347.4375 819.7656,347.75 L819.5938,347.6719 Z " fill="#000000"/><text fill="#000000" font-family="sans-serif" font-size="14" lengthAdjust="spacing" textLength="68" x="837.75" y="356.8467">Lernende</text><line style="stroke:#A80036;stroke-width:1.0;" x1="733" x2="978" y1="368" y2="368"/><rect fill="none" height="6" style="stroke:#C82930;stroke-width:1.0;" width="6" x="740" y="376"/><text fill="#000000" font-family="sans-serif" font-size="14" lengthAdjust="spacing" textLength="93" x="752" y="384.9951">nummer : int</text><line style="stroke:#A80036;stroke-width:1.0;" x1="733" x2="978" y1="392.2969" y2="392.2969"/><ellipse cx="743" cy="403.2969" fill="#84BE84" rx="3" ry="3" style="stroke:#038048;stroke-width:1.0;"/><text fill="#000000" font-family="sans-serif" font-size="14" lengthAdjust="spacing" textLength="200" x="752" y="409.292">Lernende(String nachname)</text><ellipse cx="743" cy="419.5938" fill="#84BE84" rx="3" ry="3" style="stroke:#038048;stroke-width:1.0;"/><text fill="#000000" font-family="sans-serif" font-size="14" lengthAdjust="spacing" textLength="221" x="752" y="425.5889">setNummer(int nummer) : void</text><ellipse cx="743" cy="435.8906" fill="#84BE84" rx="3" ry="3" style="stroke:#038048;stroke-width:1.0;"/><text fill="#000000" font-family="sans-serif" font-size="14" lengthAdjust="spacing" textLength="129" x="752" y="441.8857">getNummer() : int</text><ellipse cx="743" cy="452.1875" fill="#84BE84" rx="3" ry="3" style="stroke:#038048;stroke-width:1.0;"/><text fill="#000000" font-family="sans-serif" font-size="14" lengthAdjust="spacing" textLength="139" x="752" y="458.1826">vorstellen() : String</text><ellipse cx="743" cy="468.4844" fill="#84BE84" rx="3" ry="3" style="stroke:#038048;stroke-width:1.0;"/><text fill="#000000" font-family="sans-serif" font-size="14" lengthAdjust="spacing" textLength="127" x="752" y="474.4795">toString() : String</text><ellipse cx="743" cy="484.7813" fill="#84BE84" rx="3" ry="3" style="stroke:#038048;stroke-width:1.0;"/><text fill="#000000" font-family="sans-serif" font-size="14" lengthAdjust="spacing" textLength="113" x="752" y="490.7764">hashCode() : int</text></g><!--MD5=[b55e1fc4f5ed1150be76a7fd4391a706]
reverse link Person to Mitarbeiter--><g id="link_Person_Mitarbeiter"><path codeLine="58" d="M626.829,266.754 C609.083,287.555 591.186,308.532 574.644,327.921 " fill="none" id="Person-backto-Mitarbeiter" style="stroke:#A80036;stroke-width:1.0;"/><polygon fill="none" points="621.716,261.962,640.022,251.29,632.367,271.048,621.716,261.962" style="stroke:#A80036;stroke-width:1.0;"/><text fill="#000000" font-family="sans-serif" font-size="13" lengthAdjust="spacing" textLength="52" x="614.5" y="294.0669">extends</text></g><!--MD5=[9c834ccf53bee16c2f5ff79eb16bfce4]
reverse link Person to Lernende--><g id="link_Person_Lernende"><path codeLine="59" d="M798.401,270.194 C807.248,292.784 816.131,315.468 824.167,335.988 " fill="none" id="Person-backto-Lernende" style="stroke:#A80036;stroke-width:1.0;"/><polygon fill="none" points="791.773,272.465,790.998,251.29,804.809,267.36,791.773,272.465" style="stroke:#A80036;stroke-width:1.0;"/><text fill="#000000" font-family="sans-serif" font-size="13" lengthAdjust="spacing" textLength="52" x="806.5" y="294.0669">extends</text></g><!--MD5=[5f8c01e2d598d3d40cae6158d4529506]
reverse link Mitarbeiter to Lehrer--><g id="link_Mitarbeiter_Lehrer"><path codeLine="60" d="M401.371,520.589 C381.658,541.198 361.105,562.686 341.908,582.756 " fill="none" id="Mitarbeiter-backto-Lehrer" style="stroke:#A80036;stroke-width:1.0;"/><polygon fill="none" points="396.317,515.746,415.2,506.132,406.434,525.423,396.317,515.746" style="stroke:#A80036;stroke-width:1.0;"/><text fill="#000000" font-family="sans-serif" font-size="13" lengthAdjust="spacing" textLength="52" x="387.5" y="549.0669">extends</text></g><!--MD5=[cb25b1e4020e44f278560a480684987c]
reverse link Mitarbeiter to Angestellte--><g id="link_Mitarbeiter_Angestellte"><path codeLine="61" d="M597.89,520.862 C620.186,544.172 643.545,568.592 664.79,590.803 " fill="none" id="Mitarbeiter-backto-Angestellte" style="stroke:#A80036;stroke-width:1.0;"/><polygon fill="none" points="592.566,525.423,583.8,506.132,602.683,515.746,592.566,525.423" style="stroke:#A80036;stroke-width:1.0;"/><text fill="#000000" font-family="sans-serif" font-size="13" lengthAdjust="spacing" textLength="52" x="628.5" y="549.0669">extends</text></g><!--MD5=[cc8f708f1950b2f27fc9b06395f2edb7]
reverse link Person to Person--><g id="link_Person_Person"><path codeLine="63" d="M905.918,105.772 C919.528,110.759 928,118.502 928,129 C928,142.438 914.119,151.361 893.352,155.77 " fill="none" id="Person-backto-Person" style="stroke:#A80036;stroke-width:1.0;"/><polygon fill="none" points="893.352,102.23,898.0423,107.7073,904.9023,105.4845,900.212,100.0072,893.352,102.23" style="stroke:#A80036;stroke-width:1.0;"/><text fill="#000000" font-family="sans-serif" font-size="13" lengthAdjust="spacing" textLength="8" x="900.8042" y="97.6508">1</text></g><!--MD5=[e3458870554cadbb5f3a89b4b8a172f0]
@startuml
skin rose
class App {
    + main(String[] args) : void
}
class Person {
    # nachname : String
    - ehepartner : Person
    # Person(String nachname)
    + setNachname(String nachname) : void
    + getNachname() : String
    + vorstellen() : String
    # heiraten(Person ehepartner) : void
    # scheiden() : void
    + toString() : String
    + hashCode() : int
    + equals(Object obj) : boolean
    + hashCode() : int
}
class Mitarbeiter {
    # personalNummer : int
    # Mitarbeiter(String nachname, int personalNummer)
    # Mitarbeiter(String nachname)
    + setPersonalNummer(int personalNummer) : void
    + getPersonalNummer() : int
    + vorstellen() : String
    + toString() : String
    + hashCode() : int
}
class Lehrer {
    - fachbereich : String
    + Lehrer(String nachname, String fachbereich)
    + Lehrer(String nachname, int personalnummer)
    + Lehrer(String nachname, int personalnummer, String fachbereich)
    + getFachbereich() : String 
    + setFachbereich(String fachbereich) : void
    + vorstellen() : String
    + toString() : String
}
class Angestellte {
    - schulleitung : boolean
    + Angestellte(String nachname)
    + Angestellte(String nachname, int personalNummer)
    + setSchulleitung(boolean schulleitung) : void
    + isSchulleitung() : boolean
    + vorstellen() : String
    + toString() : String
}
class Lernende {
    - nummer : int 
    + Lernende(String nachname)
    + setNummer(int nummer) : void
    + getNummer() : int
    + vorstellen() : String
    + toString() : String
    + hashCode() : int
}

Person <|- - Mitarbeiter : "extends"
Person <|- - Lernende : "extends"
Mitarbeiter <|- - Lehrer : "extends"
Mitarbeiter <|- - Angestellte : "extends"

Person "1" o- - Person
@enduml

PlantUML version 1.2022.2(Sat Mar 05 16:30:19 UTC 2022)
(GPL source distribution)
Java Runtime: Java(TM) SE Runtime Environment
JVM: Java HotSpot(TM) 64-Bit Server VM
Default Encoding: UTF-8
Language: en
Country: US
--></g></svg>