<?xml version="1.0" encoding="UTF-8" standalone="no"?>
<svg xmlns="http://www.w3.org/2000/svg" xmlns:xlink="http://www.w3.org/1999/xlink" contentStyleType="text/css" height="889px" preserveAspectRatio="none" style="width:1026px;height:889px;background:#FFFFFF;" version="1.1" viewBox="0 0 1026 889" width="1026px" zoomAndPan="magnify"><defs><filter height="300%" id="fweibxd32wn3w" width="300%" x="-1" y="-1"><feGaussianBlur result="blurOut" stdDeviation="2.0"/><feColorMatrix in="blurOut" result="blurOut2" type="matrix" values="0 0 0 0 0 0 0 0 0 0 0 0 0 0 0 0 0 0 .4 0"/><feOffset dx="4.0" dy="4.0" in="blurOut2" result="blurOut3"/><feBlend in="SourceGraphic" in2="blurOut3" mode="normal"/></filter></defs><g><!--MD5=[335f4d9be48430461c68bf6d6fdba145]
class App--><g id="elem_App"><rect codeLine="2" fill="#FEFECE" filter="url(#fweibxd32wn3w)" height="64.2969" id="App" style="stroke:#A80036;stroke-width:1.0;" width="202" x="112.5" y="125.5"/><ellipse cx="194.25" cy="141.5" fill="#ADD1B2" rx="11" ry="11" style="stroke:#A80036;stroke-width:1.0;"/><path d="M196.5938,137.1719 C195.6563,136.7344 195.0625,136.5938 194.1875,136.5938 C191.5625,136.5938 189.5625,138.6719 189.5625,141.3906 L189.5625,142.5156 C189.5625,145.0938 191.6719,146.9844 194.5625,146.9844 C195.7813,146.9844 196.9375,146.6875 197.6875,146.1406 C198.2656,145.7344 198.5938,145.2813 198.5938,144.8906 C198.5938,144.4375 198.2031,144.0469 197.7344,144.0469 C197.5156,144.0469 197.3125,144.125 197.125,144.3125 C196.6719,144.7969 196.6719,144.7969 196.4844,144.8906 C196.0625,145.1563 195.375,145.2813 194.6094,145.2813 C192.5625,145.2813 191.2656,144.1875 191.2656,142.4844 L191.2656,141.3906 C191.2656,139.6094 192.5156,138.2969 194.25,138.2969 C194.8281,138.2969 195.4375,138.4531 195.9063,138.7031 C196.3906,138.9844 196.5625,139.2031 196.6563,139.6094 C196.7188,140.0156 196.75,140.1406 196.8906,140.2656 C197.0313,140.4063 197.2656,140.5156 197.4844,140.5156 C197.75,140.5156 198.0156,140.375 198.1875,140.1563 C198.2969,140 198.3281,139.8125 198.3281,139.3906 L198.3281,137.9688 C198.3281,137.5313 198.3125,137.4063 198.2188,137.25 C198.0625,136.9844 197.7813,136.8438 197.4844,136.8438 C197.1875,136.8438 196.9844,136.9375 196.7656,137.25 L196.5938,137.1719 Z " fill="#000000"/><text fill="#000000" font-family="sans-serif" font-size="14" lengthAdjust="spacing" textLength="30" x="214.75" y="146.3467">App</text><line style="stroke:#A80036;stroke-width:1.0;" x1="113.5" x2="313.5" y1="157.5" y2="157.5"/><line style="stroke:#A80036;stroke-width:1.0;" x1="113.5" x2="313.5" y1="165.5" y2="165.5"/><ellipse cx="123.5" cy="176.5" fill="#84BE84" rx="3" ry="3" style="stroke:#038048;stroke-width:1.0;"/><text fill="#000000" font-family="sans-serif" font-size="14" lengthAdjust="spacing" textLength="176" x="132.5" y="182.4951">main(String[] args) : void</text></g><!--MD5=[939598fe90a965a637042066a6c7a538]
class Eatable--><g id="elem_Eatable"><rect codeLine="7" fill="#FEFECE" filter="url(#fweibxd32wn3w)" height="80.5938" id="Eatable" style="stroke:#A80036;stroke-width:1.0;" width="171" x="96" y="454"/><ellipse cx="150.25" cy="470" fill="#B4A7E5" rx="11" ry="11" style="stroke:#A80036;stroke-width:1.0;"/><path d="M151.2031,466.7813 L152.9219,466.7813 C153.3125,466.7813 153.5,466.75 153.625,466.6719 C153.8906,466.5156 154.0313,466.2344 154.0313,465.9375 C154.0313,465.6719 153.9219,465.4063 153.6875,465.2344 C153.5156,465.125 153.375,465.0938 152.9219,465.0938 L147.7813,465.0938 C147.3438,465.0938 147.2188,465.1094 147.0625,465.2031 C146.8125,465.3594 146.6563,465.6563 146.6563,465.9375 C146.6563,466.2188 146.7969,466.4688 147.0156,466.6406 C147.1719,466.75 147.3594,466.7813 147.7813,466.7813 L149.5,466.7813 L149.5,473.2969 L147.7813,473.2969 C147.3438,473.2969 147.2188,473.3125 147.0625,473.4219 C146.8125,473.5781 146.6563,473.8594 146.6563,474.1563 C146.6563,474.4063 146.7969,474.6719 147.0156,474.8281 C147.1719,474.9531 147.375,475 147.7813,475 L152.9219,475 C153.6719,475 154.0313,474.7188 154.0313,474.1563 C154.0313,473.875 153.9219,473.625 153.6875,473.4531 C153.5156,473.3281 153.375,473.2969 152.9219,473.2969 L151.2031,473.2969 L151.2031,466.7813 Z " fill="#000000"/><text fill="#000000" font-family="sans-serif" font-size="14" font-style="italic" lengthAdjust="spacing" textLength="54" x="170.75" y="474.8467">Eatable</text><line style="stroke:#A80036;stroke-width:1.0;" x1="97" x2="266" y1="486" y2="486"/><line style="stroke:#A80036;stroke-width:1.0;" x1="97" x2="266" y1="494" y2="494"/><ellipse cx="107" cy="505" fill="#84BE84" rx="3" ry="3" style="stroke:#038048;stroke-width:1.0;"/><text fill="#000000" font-family="sans-serif" font-size="14" lengthAdjust="spacing" textLength="112" x="116" y="510.9951">inKantine() : int</text><ellipse cx="107" cy="521.2969" fill="#84BE84" rx="3" ry="3" style="stroke:#038048;stroke-width:1.0;"/><text fill="#000000" font-family="sans-serif" font-size="14" lengthAdjust="spacing" textLength="145" x="116" y="527.292">Bewertung() : String</text></g><!--MD5=[09ce52be0ee7de43c61b6e2d59bf108b]
class Person--><g id="elem_Person"><rect codeLine="12" fill="#FEFECE" filter="url(#fweibxd32wn3w)" height="300.7188" id="Person" style="stroke:#A80036;stroke-width:1.0;" width="299" x="350" y="7"/><ellipse cx="465.25" cy="27.1328" fill="#ADD1B2" rx="11" ry="11" style="stroke:#A80036;stroke-width:1.0;"/><path d="M467.5938,22.8047 C466.6563,22.3672 466.0625,22.2266 465.1875,22.2266 C462.5625,22.2266 460.5625,24.3047 460.5625,27.0234 L460.5625,28.1484 C460.5625,30.7266 462.6719,32.6172 465.5625,32.6172 C466.7813,32.6172 467.9375,32.3203 468.6875,31.7734 C469.2656,31.3672 469.5938,30.9141 469.5938,30.5234 C469.5938,30.0703 469.2031,29.6797 468.7344,29.6797 C468.5156,29.6797 468.3125,29.7578 468.125,29.9453 C467.6719,30.4297 467.6719,30.4297 467.4844,30.5234 C467.0625,30.7891 466.375,30.9141 465.6094,30.9141 C463.5625,30.9141 462.2656,29.8203 462.2656,28.1172 L462.2656,27.0234 C462.2656,25.2422 463.5156,23.9297 465.25,23.9297 C465.8281,23.9297 466.4375,24.0859 466.9063,24.3359 C467.3906,24.6172 467.5625,24.8359 467.6563,25.2422 C467.7188,25.6484 467.75,25.7734 467.8906,25.8984 C468.0313,26.0391 468.2656,26.1484 468.4844,26.1484 C468.75,26.1484 469.0156,26.0078 469.1875,25.7891 C469.2969,25.6328 469.3281,25.4453 469.3281,25.0234 L469.3281,23.6016 C469.3281,23.1641 469.3125,23.0391 469.2188,22.8828 C469.0625,22.6172 468.7813,22.4766 468.4844,22.4766 C468.1875,22.4766 467.9844,22.5703 467.7656,22.8828 L467.5938,22.8047 Z " fill="#000000"/><text fill="#000000" font-family="sans-serif" font-size="12" font-style="italic" lengthAdjust="spacing" textLength="64" x="483.75" y="23.1387">«abstract»</text><text fill="#000000" font-family="sans-serif" font-size="14" lengthAdjust="spacing" textLength="49" x="491.25" y="38.9639">Person</text><line style="stroke:#A80036;stroke-width:1.0;" x1="351" x2="648" y1="47.2656" y2="47.2656"/><polygon fill="none" points="361,53.2656,365,57.2656,361,61.2656,357,57.2656" style="stroke:#B38D22;stroke-width:1.0;"/><text fill="#000000" font-family="sans-serif" font-size="14" lengthAdjust="spacing" textLength="131" x="370" y="64.2607">nachname : String</text><rect fill="none" height="6" style="stroke:#C82930;stroke-width:1.0;" width="6" x="358" y="71.5625"/><text fill="#000000" font-family="sans-serif" font-size="14" lengthAdjust="spacing" textLength="144" x="370" y="80.5576">ehepartner : Person</text><polygon fill="none" points="361,85.8594,365,89.8594,361,93.8594,357,89.8594" style="stroke:#B38D22;stroke-width:1.0;"/><text fill="#000000" font-family="sans-serif" font-size="14" lengthAdjust="spacing" text-decoration="underline" textLength="129" x="370" y="96.8545">MINPREIS : double</text><line style="stroke:#A80036;stroke-width:1.0;" x1="351" x2="648" y1="104.1563" y2="104.1563"/><polygon fill="#FFFF44" points="361,110.1563,365,114.1563,361,118.1563,357,114.1563" style="stroke:#B38D22;stroke-width:1.0;"/><text fill="#000000" font-family="sans-serif" font-size="14" lengthAdjust="spacing" textLength="181" x="370" y="121.1514">Person(String nachname)</text><ellipse cx="361" cy="131.4531" fill="#84BE84" rx="3" ry="3" style="stroke:#038048;stroke-width:1.0;"/><text fill="#000000" font-family="sans-serif" font-size="14" lengthAdjust="spacing" textLength="273" x="370" y="137.4482">setNachname(String nachname) : void</text><ellipse cx="361" cy="147.75" fill="#84BE84" rx="3" ry="3" style="stroke:#038048;stroke-width:1.0;"/><text fill="#000000" font-family="sans-serif" font-size="14" lengthAdjust="spacing" textLength="167" x="370" y="153.7451">getNachname() : String</text><ellipse cx="361" cy="164.0469" fill="#84BE84" rx="3" ry="3" style="stroke:#038048;stroke-width:1.0;"/><text fill="#000000" font-family="sans-serif" font-size="14" lengthAdjust="spacing" textLength="139" x="370" y="170.042">vorstellen() : String</text><polygon fill="#FFFF44" points="361,175.3438,365,179.3438,361,183.3438,357,179.3438" style="stroke:#B38D22;stroke-width:1.0;"/><text fill="#000000" font-family="sans-serif" font-size="14" lengthAdjust="spacing" textLength="249" x="370" y="186.3389">heiraten(Person ehepartner) : void</text><polygon fill="#FFFF44" points="361,191.6406,365,195.6406,361,199.6406,357,195.6406" style="stroke:#B38D22;stroke-width:1.0;"/><text fill="#000000" font-family="sans-serif" font-size="14" lengthAdjust="spacing" textLength="117" x="370" y="202.6357">scheiden() : void</text><ellipse cx="361" cy="212.9375" fill="#84BE84" rx="3" ry="3" style="stroke:#038048;stroke-width:1.0;"/><text fill="#000000" font-family="sans-serif" font-size="14" lengthAdjust="spacing" textLength="112" x="370" y="218.9326">inKantine() : int</text><ellipse cx="361" cy="229.2344" fill="#84BE84" rx="3" ry="3" style="stroke:#038048;stroke-width:1.0;"/><text fill="#000000" font-family="sans-serif" font-size="14" lengthAdjust="spacing" textLength="224" x="370" y="235.2295">Bewertung(Object wer) : String</text><ellipse cx="361" cy="245.5313" fill="#84BE84" rx="3" ry="3" style="stroke:#038048;stroke-width:1.0;"/><text fill="#000000" font-family="sans-serif" font-size="14" lengthAdjust="spacing" textLength="202" x="370" y="251.5264">equals(Object obj) : boolean</text><ellipse cx="361" cy="261.8281" fill="#84BE84" rx="3" ry="3" style="stroke:#038048;stroke-width:1.0;"/><text fill="#000000" font-family="sans-serif" font-size="14" lengthAdjust="spacing" textLength="113" x="370" y="267.8232">hashCode() : int</text><ellipse cx="361" cy="278.125" fill="#84BE84" rx="3" ry="3" style="stroke:#038048;stroke-width:1.0;"/><text fill="#000000" font-family="sans-serif" font-size="14" lengthAdjust="spacing" textLength="127" x="370" y="284.1201">toString() : String</text><ellipse cx="361" cy="294.4219" fill="#84BE84" rx="3" ry="3" style="stroke:#038048;stroke-width:1.0;"/><text fill="#000000" font-family="sans-serif" font-size="14" font-style="italic" lengthAdjust="spacing" textLength="251" x="370" y="300.417">kantineKonsum(int anzahl) : double</text></g><!--MD5=[cf50a5de139d8ee8ab91969acb1dc454]
class Mitarbeiter--><g id="elem_Mitarbeiter"><rect codeLine="29" fill="#FEFECE" filter="url(#fweibxd32wn3w)" height="219.2344" id="Mitarbeiter" style="stroke:#A80036;stroke-width:1.0;" width="395" x="302" y="385"/><ellipse cx="454.25" cy="405.1328" fill="#ADD1B2" rx="11" ry="11" style="stroke:#A80036;stroke-width:1.0;"/><path d="M456.5938,400.8047 C455.6563,400.3672 455.0625,400.2266 454.1875,400.2266 C451.5625,400.2266 449.5625,402.3047 449.5625,405.0234 L449.5625,406.1484 C449.5625,408.7266 451.6719,410.6172 454.5625,410.6172 C455.7813,410.6172 456.9375,410.3203 457.6875,409.7734 C458.2656,409.3672 458.5938,408.9141 458.5938,408.5234 C458.5938,408.0703 458.2031,407.6797 457.7344,407.6797 C457.5156,407.6797 457.3125,407.7578 457.125,407.9453 C456.6719,408.4297 456.6719,408.4297 456.4844,408.5234 C456.0625,408.7891 455.375,408.9141 454.6094,408.9141 C452.5625,408.9141 451.2656,407.8203 451.2656,406.1172 L451.2656,405.0234 C451.2656,403.2422 452.5156,401.9297 454.25,401.9297 C454.8281,401.9297 455.4375,402.0859 455.9063,402.3359 C456.3906,402.6172 456.5625,402.8359 456.6563,403.2422 C456.7188,403.6484 456.75,403.7734 456.8906,403.8984 C457.0313,404.0391 457.2656,404.1484 457.4844,404.1484 C457.75,404.1484 458.0156,404.0078 458.1875,403.7891 C458.2969,403.6328 458.3281,403.4453 458.3281,403.0234 L458.3281,401.6016 C458.3281,401.1641 458.3125,401.0391 458.2188,400.8828 C458.0625,400.6172 457.7813,400.4766 457.4844,400.4766 C457.1875,400.4766 456.9844,400.5703 456.7656,400.8828 L456.5938,400.8047 Z " fill="#000000"/><text fill="#000000" font-family="sans-serif" font-size="12" font-style="italic" lengthAdjust="spacing" textLength="64" x="483.75" y="401.1387">«abstract»</text><text fill="#000000" font-family="sans-serif" font-size="14" lengthAdjust="spacing" textLength="82" x="474.75" y="416.9639">Mitarbeiter</text><line style="stroke:#A80036;stroke-width:1.0;" x1="303" x2="696" y1="425.2656" y2="425.2656"/><polygon fill="none" points="313,431.2656,317,435.2656,313,439.2656,309,435.2656" style="stroke:#B38D22;stroke-width:1.0;"/><text fill="#000000" font-family="sans-serif" font-size="14" lengthAdjust="spacing" textLength="156" x="322" y="442.2607">personalNummer : int</text><line style="stroke:#A80036;stroke-width:1.0;" x1="303" x2="696" y1="449.5625" y2="449.5625"/><polygon fill="#FFFF44" points="313,455.5625,317,459.5625,313,463.5625,309,459.5625" style="stroke:#B38D22;stroke-width:1.0;"/><text fill="#000000" font-family="sans-serif" font-size="14" lengthAdjust="spacing" textLength="369" x="322" y="466.5576">Mitarbeiter(String nachname, int personalNummer)</text><polygon fill="#FFFF44" points="313,471.8594,317,475.8594,313,479.8594,309,475.8594" style="stroke:#B38D22;stroke-width:1.0;"/><text fill="#000000" font-family="sans-serif" font-size="14" lengthAdjust="spacing" textLength="214" x="322" y="482.8545">Mitarbeiter(String nachname)</text><ellipse cx="313" cy="493.1563" fill="#84BE84" rx="3" ry="3" style="stroke:#038048;stroke-width:1.0;"/><text fill="#000000" font-family="sans-serif" font-size="14" lengthAdjust="spacing" textLength="345" x="322" y="499.1514">setPersonalNummer(int personalNummer) : void</text><ellipse cx="313" cy="509.4531" fill="#84BE84" rx="3" ry="3" style="stroke:#038048;stroke-width:1.0;"/><text fill="#000000" font-family="sans-serif" font-size="14" lengthAdjust="spacing" textLength="190" x="322" y="515.4482">getPersonalNummer() : int</text><ellipse cx="313" cy="525.75" fill="#84BE84" rx="3" ry="3" style="stroke:#038048;stroke-width:1.0;"/><text fill="#000000" font-family="sans-serif" font-size="14" lengthAdjust="spacing" textLength="139" x="322" y="531.7451">vorstellen() : String</text><ellipse cx="313" cy="542.0469" fill="#84BE84" rx="3" ry="3" style="stroke:#038048;stroke-width:1.0;"/><text fill="#000000" font-family="sans-serif" font-size="14" lengthAdjust="spacing" textLength="127" x="322" y="548.042">toString() : String</text><ellipse cx="313" cy="558.3438" fill="#84BE84" rx="3" ry="3" style="stroke:#038048;stroke-width:1.0;"/><text fill="#000000" font-family="sans-serif" font-size="14" lengthAdjust="spacing" textLength="113" x="322" y="564.3389">hashCode() : int</text><ellipse cx="313" cy="574.6406" fill="#84BE84" rx="3" ry="3" style="stroke:#038048;stroke-width:1.0;"/><text fill="#000000" font-family="sans-serif" font-size="14" lengthAdjust="spacing" textLength="112" x="322" y="580.6357">inKantine() : int</text><ellipse cx="313" cy="590.9375" fill="#84BE84" rx="3" ry="3" style="stroke:#038048;stroke-width:1.0;"/><text fill="#000000" font-family="sans-serif" font-size="14" lengthAdjust="spacing" textLength="145" x="322" y="596.9326">Bewertung() : String</text></g><!--MD5=[b68af693cf60e945a9cb87ea33cffb44]
class Lehrer--><g id="elem_Lehrer"><rect codeLine="41" fill="#FEFECE" filter="url(#fweibxd32wn3w)" height="194.6719" id="Lehrer" style="stroke:#A80036;stroke-width:1.0;" width="501" x="7" y="681"/><ellipse cx="229.75" cy="697" fill="#ADD1B2" rx="11" ry="11" style="stroke:#A80036;stroke-width:1.0;"/><path d="M232.0938,692.6719 C231.1563,692.2344 230.5625,692.0938 229.6875,692.0938 C227.0625,692.0938 225.0625,694.1719 225.0625,696.8906 L225.0625,698.0156 C225.0625,700.5938 227.1719,702.4844 230.0625,702.4844 C231.2813,702.4844 232.4375,702.1875 233.1875,701.6406 C233.7656,701.2344 234.0938,700.7813 234.0938,700.3906 C234.0938,699.9375 233.7031,699.5469 233.2344,699.5469 C233.0156,699.5469 232.8125,699.625 232.625,699.8125 C232.1719,700.2969 232.1719,700.2969 231.9844,700.3906 C231.5625,700.6563 230.875,700.7813 230.1094,700.7813 C228.0625,700.7813 226.7656,699.6875 226.7656,697.9844 L226.7656,696.8906 C226.7656,695.1094 228.0156,693.7969 229.75,693.7969 C230.3281,693.7969 230.9375,693.9531 231.4063,694.2031 C231.8906,694.4844 232.0625,694.7031 232.1563,695.1094 C232.2188,695.5156 232.25,695.6406 232.3906,695.7656 C232.5313,695.9063 232.7656,696.0156 232.9844,696.0156 C233.25,696.0156 233.5156,695.875 233.6875,695.6563 C233.7969,695.5 233.8281,695.3125 233.8281,694.8906 L233.8281,693.4688 C233.8281,693.0313 233.8125,692.9063 233.7188,692.75 C233.5625,692.4844 233.2813,692.3438 232.9844,692.3438 C232.6875,692.3438 232.4844,692.4375 232.2656,692.75 L232.0938,692.6719 Z " fill="#000000"/><text fill="#000000" font-family="sans-serif" font-size="14" lengthAdjust="spacing" textLength="47" x="250.25" y="701.8467">Lehrer</text><line style="stroke:#A80036;stroke-width:1.0;" x1="8" x2="507" y1="713" y2="713"/><rect fill="none" height="6" style="stroke:#C82930;stroke-width:1.0;" width="6" x="15" y="721"/><text fill="#000000" font-family="sans-serif" font-size="14" lengthAdjust="spacing" textLength="143" x="27" y="729.9951">fachbereich : String</text><line style="stroke:#A80036;stroke-width:1.0;" x1="8" x2="507" y1="737.2969" y2="737.2969"/><ellipse cx="18" cy="748.2969" fill="#84BE84" rx="3" ry="3" style="stroke:#038048;stroke-width:1.0;"/><text fill="#000000" font-family="sans-serif" font-size="14" lengthAdjust="spacing" textLength="321" x="27" y="754.292">Lehrer(String nachname, String fachbereich)</text><ellipse cx="18" cy="764.5938" fill="#84BE84" rx="3" ry="3" style="stroke:#038048;stroke-width:1.0;"/><text fill="#000000" font-family="sans-serif" font-size="14" lengthAdjust="spacing" textLength="333" x="27" y="770.5889">Lehrer(String nachname, int personalnummer)</text><ellipse cx="18" cy="780.8906" fill="#84BE84" rx="3" ry="3" style="stroke:#038048;stroke-width:1.0;"/><text fill="#000000" font-family="sans-serif" font-size="14" lengthAdjust="spacing" textLength="475" x="27" y="786.8857">Lehrer(String nachname, int personalnummer, String fachbereich)</text><ellipse cx="18" cy="797.1875" fill="#84BE84" rx="3" ry="3" style="stroke:#038048;stroke-width:1.0;"/><text fill="#000000" font-family="sans-serif" font-size="14" lengthAdjust="spacing" textLength="180" x="27" y="803.1826">getFachbereich() : String</text><ellipse cx="18" cy="813.4844" fill="#84BE84" rx="3" ry="3" style="stroke:#038048;stroke-width:1.0;"/><text fill="#000000" font-family="sans-serif" font-size="14" lengthAdjust="spacing" textLength="298" x="27" y="819.4795">setFachbereich(String fachbereich) : void</text><ellipse cx="18" cy="829.7813" fill="#84BE84" rx="3" ry="3" style="stroke:#038048;stroke-width:1.0;"/><text fill="#000000" font-family="sans-serif" font-size="14" lengthAdjust="spacing" textLength="139" x="27" y="835.7764">vorstellen() : String</text><ellipse cx="18" cy="846.0781" fill="#84BE84" rx="3" ry="3" style="stroke:#038048;stroke-width:1.0;"/><text fill="#000000" font-family="sans-serif" font-size="14" lengthAdjust="spacing" textLength="254" x="27" y="852.0732">kantineKonsum(int anzahl) : double</text><ellipse cx="18" cy="862.375" fill="#84BE84" rx="3" ry="3" style="stroke:#038048;stroke-width:1.0;"/><text fill="#000000" font-family="sans-serif" font-size="14" lengthAdjust="spacing" textLength="127" x="27" y="868.3701">toString() : String</text></g><!--MD5=[3b163f382fcb0a60af2759cb55ad0fea]
class Angestellte--><g id="elem_Angestellte"><rect codeLine="52" fill="#FEFECE" filter="url(#fweibxd32wn3w)" height="178.375" id="Angestellte" style="stroke:#A80036;stroke-width:1.0;" width="397" x="543" y="689.5"/><ellipse cx="695.25" cy="705.5" fill="#ADD1B2" rx="11" ry="11" style="stroke:#A80036;stroke-width:1.0;"/><path d="M697.5938,701.1719 C696.6563,700.7344 696.0625,700.5938 695.1875,700.5938 C692.5625,700.5938 690.5625,702.6719 690.5625,705.3906 L690.5625,706.5156 C690.5625,709.0938 692.6719,710.9844 695.5625,710.9844 C696.7813,710.9844 697.9375,710.6875 698.6875,710.1406 C699.2656,709.7344 699.5938,709.2813 699.5938,708.8906 C699.5938,708.4375 699.2031,708.0469 698.7344,708.0469 C698.5156,708.0469 698.3125,708.125 698.125,708.3125 C697.6719,708.7969 697.6719,708.7969 697.4844,708.8906 C697.0625,709.1563 696.375,709.2813 695.6094,709.2813 C693.5625,709.2813 692.2656,708.1875 692.2656,706.4844 L692.2656,705.3906 C692.2656,703.6094 693.5156,702.2969 695.25,702.2969 C695.8281,702.2969 696.4375,702.4531 696.9063,702.7031 C697.3906,702.9844 697.5625,703.2031 697.6563,703.6094 C697.7188,704.0156 697.75,704.1406 697.8906,704.2656 C698.0313,704.4063 698.2656,704.5156 698.4844,704.5156 C698.75,704.5156 699.0156,704.375 699.1875,704.1563 C699.2969,704 699.3281,703.8125 699.3281,703.3906 L699.3281,701.9688 C699.3281,701.5313 699.3125,701.4063 699.2188,701.25 C699.0625,700.9844 698.7813,700.8438 698.4844,700.8438 C698.1875,700.8438 697.9844,700.9375 697.7656,701.25 L697.5938,701.1719 Z " fill="#000000"/><text fill="#000000" font-family="sans-serif" font-size="14" lengthAdjust="spacing" textLength="84" x="715.75" y="710.3467">Angestellte</text><line style="stroke:#A80036;stroke-width:1.0;" x1="544" x2="939" y1="721.5" y2="721.5"/><rect fill="none" height="6" style="stroke:#C82930;stroke-width:1.0;" width="6" x="551" y="729.5"/><text fill="#000000" font-family="sans-serif" font-size="14" lengthAdjust="spacing" textLength="157" x="563" y="738.4951">schulleitung : boolean</text><line style="stroke:#A80036;stroke-width:1.0;" x1="544" x2="939" y1="745.7969" y2="745.7969"/><ellipse cx="554" cy="756.7969" fill="#84BE84" rx="3" ry="3" style="stroke:#038048;stroke-width:1.0;"/><text fill="#000000" font-family="sans-serif" font-size="14" lengthAdjust="spacing" textLength="216" x="563" y="762.792">Angestellte(String nachname)</text><ellipse cx="554" cy="773.0938" fill="#84BE84" rx="3" ry="3" style="stroke:#038048;stroke-width:1.0;"/><text fill="#000000" font-family="sans-serif" font-size="14" lengthAdjust="spacing" textLength="371" x="563" y="779.0889">Angestellte(String nachname, int personalNummer)</text><ellipse cx="554" cy="789.3906" fill="#84BE84" rx="3" ry="3" style="stroke:#038048;stroke-width:1.0;"/><text fill="#000000" font-family="sans-serif" font-size="14" lengthAdjust="spacing" textLength="312" x="563" y="795.3857">setSchulleitung(boolean schulleitung) : void</text><ellipse cx="554" cy="805.6875" fill="#84BE84" rx="3" ry="3" style="stroke:#038048;stroke-width:1.0;"/><text fill="#000000" font-family="sans-serif" font-size="14" lengthAdjust="spacing" textLength="180" x="563" y="811.6826">isSchulleitung() : boolean</text><ellipse cx="554" cy="821.9844" fill="#84BE84" rx="3" ry="3" style="stroke:#038048;stroke-width:1.0;"/><text fill="#000000" font-family="sans-serif" font-size="14" lengthAdjust="spacing" textLength="139" x="563" y="827.9795">vorstellen() : String</text><ellipse cx="554" cy="838.2813" fill="#84BE84" rx="3" ry="3" style="stroke:#038048;stroke-width:1.0;"/><text fill="#000000" font-family="sans-serif" font-size="14" lengthAdjust="spacing" textLength="127" x="563" y="844.2764">toString() : String</text><ellipse cx="554" cy="854.5781" fill="#84BE84" rx="3" ry="3" style="stroke:#038048;stroke-width:1.0;"/><text fill="#000000" font-family="sans-serif" font-size="14" lengthAdjust="spacing" textLength="254" x="563" y="860.5732">kantineKonsum(int anzahl) : double</text></g><!--MD5=[e0c77432632b1b568746454dd033b200]
class Lernende--><g id="elem_Lernende"><rect codeLine="62" fill="#FEFECE" filter="url(#fweibxd32wn3w)" height="210.9688" id="Lernende" style="stroke:#A80036;stroke-width:1.0;" width="280" x="732.5" y="389"/><ellipse cx="834.25" cy="405" fill="#ADD1B2" rx="11" ry="11" style="stroke:#A80036;stroke-width:1.0;"/><path d="M836.5938,400.6719 C835.6563,400.2344 835.0625,400.0938 834.1875,400.0938 C831.5625,400.0938 829.5625,402.1719 829.5625,404.8906 L829.5625,406.0156 C829.5625,408.5938 831.6719,410.4844 834.5625,410.4844 C835.7813,410.4844 836.9375,410.1875 837.6875,409.6406 C838.2656,409.2344 838.5938,408.7813 838.5938,408.3906 C838.5938,407.9375 838.2031,407.5469 837.7344,407.5469 C837.5156,407.5469 837.3125,407.625 837.125,407.8125 C836.6719,408.2969 836.6719,408.2969 836.4844,408.3906 C836.0625,408.6563 835.375,408.7813 834.6094,408.7813 C832.5625,408.7813 831.2656,407.6875 831.2656,405.9844 L831.2656,404.8906 C831.2656,403.1094 832.5156,401.7969 834.25,401.7969 C834.8281,401.7969 835.4375,401.9531 835.9063,402.2031 C836.3906,402.4844 836.5625,402.7031 836.6563,403.1094 C836.7188,403.5156 836.75,403.6406 836.8906,403.7656 C837.0313,403.9063 837.2656,404.0156 837.4844,404.0156 C837.75,404.0156 838.0156,403.875 838.1875,403.6563 C838.2969,403.5 838.3281,403.3125 838.3281,402.8906 L838.3281,401.4688 C838.3281,401.0313 838.3125,400.9063 838.2188,400.75 C838.0625,400.4844 837.7813,400.3438 837.4844,400.3438 C837.1875,400.3438 836.9844,400.4375 836.7656,400.75 L836.5938,400.6719 Z " fill="#000000"/><text fill="#000000" font-family="sans-serif" font-size="14" lengthAdjust="spacing" textLength="68" x="854.75" y="409.8467">Lernende</text><line style="stroke:#A80036;stroke-width:1.0;" x1="733.5" x2="1011.5" y1="421" y2="421"/><rect fill="none" height="6" style="stroke:#C82930;stroke-width:1.0;" width="6" x="740.5" y="429"/><text fill="#000000" font-family="sans-serif" font-size="14" lengthAdjust="spacing" textLength="93" x="752.5" y="437.9951">nummer : int</text><line style="stroke:#A80036;stroke-width:1.0;" x1="733.5" x2="1011.5" y1="445.2969" y2="445.2969"/><ellipse cx="743.5" cy="456.2969" fill="#84BE84" rx="3" ry="3" style="stroke:#038048;stroke-width:1.0;"/><text fill="#000000" font-family="sans-serif" font-size="14" lengthAdjust="spacing" textLength="200" x="752.5" y="462.292">Lernende(String nachname)</text><ellipse cx="743.5" cy="472.5938" fill="#84BE84" rx="3" ry="3" style="stroke:#038048;stroke-width:1.0;"/><text fill="#000000" font-family="sans-serif" font-size="14" lengthAdjust="spacing" textLength="221" x="752.5" y="478.5889">setNummer(int nummer) : void</text><ellipse cx="743.5" cy="488.8906" fill="#84BE84" rx="3" ry="3" style="stroke:#038048;stroke-width:1.0;"/><text fill="#000000" font-family="sans-serif" font-size="14" lengthAdjust="spacing" textLength="129" x="752.5" y="494.8857">getNummer() : int</text><ellipse cx="743.5" cy="505.1875" fill="#84BE84" rx="3" ry="3" style="stroke:#038048;stroke-width:1.0;"/><text fill="#000000" font-family="sans-serif" font-size="14" lengthAdjust="spacing" textLength="139" x="752.5" y="511.1826">vorstellen() : String</text><ellipse cx="743.5" cy="521.4844" fill="#84BE84" rx="3" ry="3" style="stroke:#038048;stroke-width:1.0;"/><text fill="#000000" font-family="sans-serif" font-size="14" lengthAdjust="spacing" textLength="112" x="752.5" y="527.4795">inKantine() : int</text><ellipse cx="743.5" cy="537.7813" fill="#84BE84" rx="3" ry="3" style="stroke:#038048;stroke-width:1.0;"/><text fill="#000000" font-family="sans-serif" font-size="14" lengthAdjust="spacing" textLength="145" x="752.5" y="543.7764">Bewertung() : String</text><ellipse cx="743.5" cy="554.0781" fill="#84BE84" rx="3" ry="3" style="stroke:#038048;stroke-width:1.0;"/><text fill="#000000" font-family="sans-serif" font-size="14" lengthAdjust="spacing" textLength="254" x="752.5" y="560.0732">kantineKonsum(int anzahl) : double</text><ellipse cx="743.5" cy="570.375" fill="#84BE84" rx="3" ry="3" style="stroke:#038048;stroke-width:1.0;"/><text fill="#000000" font-family="sans-serif" font-size="14" lengthAdjust="spacing" textLength="127" x="752.5" y="576.3701">toString() : String</text><ellipse cx="743.5" cy="586.6719" fill="#84BE84" rx="3" ry="3" style="stroke:#038048;stroke-width:1.0;"/><text fill="#000000" font-family="sans-serif" font-size="14" lengthAdjust="spacing" textLength="113" x="752.5" y="592.667">hashCode() : int</text></g><!--MD5=[b55e1fc4f5ed1150be76a7fd4391a706]
reverse link Person to Mitarbeiter--><g id="link_Person_Mitarbeiter"><path codeLine="75" d="M499.5,328.375 C499.5,347.604 499.5,366.791 499.5,384.923 " fill="none" id="Person-backto-Mitarbeiter" style="stroke:#A80036;stroke-width:1.0;"/><polygon fill="none" points="492.5,328.363,499.5,308.363,506.5,328.363,492.5,328.363" style="stroke:#A80036;stroke-width:1.0;"/><text fill="#000000" font-family="sans-serif" font-size="13" lengthAdjust="spacing" textLength="52" x="500.5" y="351.0669">extends</text></g><!--MD5=[9c834ccf53bee16c2f5ff79eb16bfce4]
reverse link Person to Lernende--><g id="link_Person_Lernende"><path codeLine="76" d="M664.166,306.39 C695.092,334.166 726.831,362.671 755.917,388.794 " fill="none" id="Person-backto-Lernende" style="stroke:#A80036;stroke-width:1.0;"/><polygon fill="none" points="659.267,311.399,649.064,292.827,668.621,300.983,659.267,311.399" style="stroke:#A80036;stroke-width:1.0;"/><text fill="#000000" font-family="sans-serif" font-size="13" lengthAdjust="spacing" textLength="52" x="708.5" y="351.0669">extends</text></g><!--MD5=[5f8c01e2d598d3d40cae6158d4529506]
reverse link Mitarbeiter to Lehrer--><g id="link_Mitarbeiter_Lehrer"><path codeLine="77" d="M393.185,619.388 C375.499,639.997 357.388,661.102 340.393,680.905 " fill="none" id="Mitarbeiter-backto-Lehrer" style="stroke:#A80036;stroke-width:1.0;"/><polygon fill="none" points="387.946,614.744,406.283,604.125,398.57,623.861,387.946,614.744" style="stroke:#A80036;stroke-width:1.0;"/><text fill="#000000" font-family="sans-serif" font-size="13" lengthAdjust="spacing" textLength="52" x="379.5" y="647.0669">extends</text></g><!--MD5=[cb25b1e4020e44f278560a480684987c]
reverse link Mitarbeiter to Angestellte--><g id="link_Mitarbeiter_Angestellte"><path codeLine="78" d="M605.909,619.497 C626.14,643.072 646.923,667.291 665.952,689.465 " fill="none" id="Mitarbeiter-backto-Angestellte" style="stroke:#A80036;stroke-width:1.0;"/><polygon fill="none" points="600.43,623.861,592.717,604.125,611.054,614.744,600.43,623.861" style="stroke:#A80036;stroke-width:1.0;"/><text fill="#000000" font-family="sans-serif" font-size="13" lengthAdjust="spacing" textLength="52" x="628.5" y="647.0669">extends</text></g><!--MD5=[cc8f708f1950b2f27fc9b06395f2edb7]
reverse link Person to Person--><g id="link_Person_Person"><path codeLine="80" d="M661.918,130.207 C675.528,136.067 684,145.165 684,157.5 C684,173.289 670.119,183.774 649.352,188.955 " fill="none" id="Person-backto-Person" style="stroke:#A80036;stroke-width:1.0;"/><polygon fill="none" points="649.352,126.045,653.7901,131.7286,660.7434,129.818,656.3054,124.1343,649.352,126.045" style="stroke:#A80036;stroke-width:1.0;"/><text fill="#000000" font-family="sans-serif" font-size="13" lengthAdjust="spacing" textLength="96" x="690" y="162.0669">verheiratet mit</text><text fill="#000000" font-family="sans-serif" font-size="13" lengthAdjust="spacing" textLength="8" x="656.8042" y="121.235">1</text></g><!--MD5=[18c2d2fd7ea1ef9c3b9449e505cd6c2e]
link Person to Eatable--><g id="link_Person_Eatable"><path codeLine="82" d="M357.242,308.363 C313.018,354.951 267.047,403.38 233.219,439.016 " fill="none" id="Person-to-Eatable" style="stroke:#A80036;stroke-width:1.0;stroke-dasharray:7.0,7.0;"/><polygon fill="none" points="237.89,444.263,219.044,453.949,227.736,434.625,237.89,444.263" style="stroke:#A80036;stroke-width:1.0;"/><text fill="#000000" font-family="sans-serif" font-size="13" lengthAdjust="spacing" textLength="76" x="322.5" y="351.0669">implements</text></g><!--MD5=[203261a939756548835f7a642a890fee]
@startuml
skin rose
class App {
    + main(String[] args) : void
}


interface Eatable {
    + inKantine() : int
    + Bewertung() : String
}

class Person << abstract >> {
    # nachname : String
    - ehepartner : Person
    # {static} MINPREIS : double
    # Person(String nachname)
    + setNachname(String nachname) : void
    + getNachname() : String
    + vorstellen() : String
    # heiraten(Person ehepartner) : void
    # scheiden() : void
    + inKantine() : int
    + Bewertung(Object wer) : String
    + equals(Object obj) : boolean
    + hashCode() : int
    + toString() : String 
    + {abstract} kantineKonsum(int anzahl) : double
}
class Mitarbeiter << abstract >> {
    # personalNummer : int
    # Mitarbeiter(String nachname, int personalNummer)
    # Mitarbeiter(String nachname)
    + setPersonalNummer(int personalNummer) : void
    + getPersonalNummer() : int
    + vorstellen() : String
    + toString() : String
    + hashCode() : int
    + inKantine() : int
    + Bewertung() : String
}
class Lehrer {
    - fachbereich : String
    + Lehrer(String nachname, String fachbereich)
    + Lehrer(String nachname, int personalnummer)
    + Lehrer(String nachname, int personalnummer, String fachbereich)
    + getFachbereich() : String 
    + setFachbereich(String fachbereich) : void
    + vorstellen() : String
    + kantineKonsum(int anzahl) : double
    + toString() : String
}
class Angestellte {
    - schulleitung : boolean
    + Angestellte(String nachname)
    + Angestellte(String nachname, int personalNummer)
    + setSchulleitung(boolean schulleitung) : void
    + isSchulleitung() : boolean
    + vorstellen() : String
    + toString() : String
    + kantineKonsum(int anzahl) : double
}
class Lernende {
    - nummer : int 
    + Lernende(String nachname)
    + setNummer(int nummer) : void
    + getNummer() : int
    + vorstellen() : String
    + inKantine() : int
    + Bewertung() : String
    + kantineKonsum(int anzahl) : double
    + toString() : String
    + hashCode() : int
}

"Person" <|- - Mitarbeiter : "extends"
"Person" <|- - Lernende : "extends"
Mitarbeiter <|- - Lehrer : "extends"
Mitarbeiter <|- - Angestellte : "extends"

"Person" "1" o- - "Person" : "verheiratet mit"

"Person" ..|> Eatable : "implements"
@enduml

PlantUML version 1.2022.2(Sat Mar 05 16:30:19 UTC 2022)
(GPL source distribution)
Java Runtime: Java(TM) SE Runtime Environment
JVM: Java HotSpot(TM) 64-Bit Server VM
Default Encoding: UTF-8
Language: en
Country: US
--></g></svg>